<?xml version="1.0" encoding="utf-8"?>
<!-- Generator: Adobe Illustrator 25.2.0, SVG Export Plug-In . SVG Version: 6.00 Build 0)  -->
<svg version="1.1" id="레이어_1" xmlns="http://www.w3.org/2000/svg" xmlns:xlink="http://www.w3.org/1999/xlink" x="0px"
	 y="0px" viewBox="0 0 400 100" style="enable-background:new 0 0 400 100;" xml:space="preserve">
<style type="text/css">
	.st0{fill:#004097;}
	.st1{fill:#FFFFFF;}
</style>
<path class="st0" d="M381.84,100H18.16C8.13,100,0,91.87,0,81.84V18.16C0,8.13,8.13,0,18.16,0h363.68C391.87,0,400,8.13,400,18.16
	v63.68C400,91.87,391.87,100,381.84,100z"/>
<g>
	<path class="st1" d="M198.14,28.02v2.23h8.47v2.18h-19.8v-2.18h8.45v-2.23H198.14z M188.87,24.16v-1.99h15.6v1.99h-5.95
		c0.5,0.7,1.34,1.28,2.52,1.73c1.18,0.45,2.73,0.77,4.63,0.96l-1.61,2.06c-1.94-0.34-3.52-0.76-4.74-1.27s-2.09-1.1-2.6-1.78
		c-0.48,0.62-1.34,1.2-2.57,1.72c-1.23,0.52-2.85,0.97-4.85,1.36l-1.66-2.06c2-0.24,3.6-0.58,4.79-1.03s2-1.01,2.41-1.68
		L188.87,24.16L188.87,24.16z M196.7,41c-2.61,0-4.59-0.34-5.94-1.01s-2.03-1.58-2.03-2.71c0-1.12,0.68-2.02,2.04-2.7
		s3.34-1.02,5.93-1.02c2.58,0,4.55,0.34,5.92,1.02s2.05,1.58,2.05,2.7c0,1.14-0.68,2.04-2.04,2.71S199.29,41,196.7,41z M196.7,35.56
		c-1.52,0-2.72,0.16-3.6,0.48s-1.32,0.74-1.32,1.27c0,0.56,0.44,0.97,1.32,1.24s2.08,0.4,3.6,0.4c1.5,0,2.7-0.13,3.59-0.4
		s1.33-0.68,1.33-1.24c0-0.53-0.44-0.95-1.33-1.27S198.2,35.56,196.7,35.56z M192.45,18.8h8.45v2.09h-8.45V18.8z"/>
	<path class="st1" d="M209.44,24.33v-2.09h12.55v2.09H209.44z M215.71,32.22c-1.79,0-3.17-0.34-4.14-1.03s-1.45-1.51-1.45-2.47
		s0.48-1.78,1.44-2.46c0.96-0.68,2.34-1.02,4.15-1.02c1.79,0,3.17,0.34,4.14,1.02s1.45,1.5,1.45,2.46s-0.49,1.78-1.46,2.47
		C218.86,31.88,217.48,32.22,215.71,32.22z M225.71,33.8c0.24,0,0.41,0.05,0.52,0.16c0.1,0.1,0.16,0.28,0.16,0.52v6.22h-2.81v-4.66
		H211.8V33.8H225.71z M212.32,19.02h6.7v2.04h-6.7V19.02z M215.71,27.11c-0.85,0-1.53,0.14-2.04,0.42s-0.77,0.67-0.77,1.16
		c0,0.54,0.26,0.94,0.77,1.2c0.51,0.26,1.19,0.38,2.04,0.38c0.83,0,1.51-0.13,2.03-0.38c0.52-0.26,0.78-0.66,0.78-1.2
		c0-0.5-0.26-0.88-0.78-1.16C217.21,27.25,216.54,27.11,215.71,27.11z M226.38,19.12v5.62h2.78v2.42h-2.78v5.78h-2.71V19.12H226.38z
		"/>
	<path class="st1" d="M229.96,29.53c1.47-0.88,2.6-1.96,3.4-3.25s1.19-2.86,1.19-4.72v-1.9h2.83v1.9c-0.02,1.7,0.32,3.12,1.02,4.26
		c0.7,1.14,1.75,2.12,3.16,2.92l-1.78,1.85c-0.8-0.53-1.54-1.14-2.23-1.84s-1.2-1.41-1.54-2.15c-0.34,0.82-0.84,1.63-1.5,2.45
		c-0.66,0.82-1.46,1.55-2.39,2.21L229.96,29.53z M241.58,31.93c1.12,0,2.16,0.1,3.12,0.31s1.79,0.5,2.5,0.89
		c0.69,0.38,1.23,0.86,1.63,1.42c0.4,0.56,0.6,1.2,0.6,1.92c0,0.74-0.2,1.38-0.6,1.94c-0.4,0.56-0.95,1.03-1.66,1.42
		c-0.69,0.38-1.52,0.67-2.48,0.86c-0.97,0.19-2.01,0.29-3.13,0.29s-2.16-0.1-3.11-0.29c-0.95-0.19-1.77-0.48-2.46-0.86
		c-0.7-0.38-1.25-0.86-1.63-1.42c-0.38-0.56-0.58-1.21-0.58-1.94c0-0.7,0.2-1.34,0.6-1.9c0.4-0.56,0.95-1.04,1.66-1.44
		c0.7-0.38,1.53-0.68,2.48-0.89S240.49,31.93,241.58,31.93z M241.55,34.07c-1.42,0-2.59,0.21-3.5,0.62
		c-0.91,0.42-1.37,0.99-1.37,1.73c0,0.75,0.46,1.35,1.38,1.79c0.92,0.44,2.08,0.66,3.49,0.66c1.47,0,2.66-0.22,3.58-0.67
		c0.91-0.45,1.37-1.04,1.37-1.78c0-0.75-0.45-1.33-1.36-1.74C244.24,34.27,243.04,34.07,241.55,34.07z M244.72,19.45v4.3h1.85v-4.63
		h2.64v13.03h-2.64V26.2h-1.85v5.23h-2.64V19.45H244.72z"/>
	<path class="st1" d="M258.95,32.58c-1.2-0.16-2.16-0.54-2.87-1.13s-1.07-1.33-1.07-2.21c0-1.02,0.48-1.85,1.45-2.47
		c0.97-0.62,2.26-0.94,3.88-0.94c1.6,0,2.89,0.31,3.86,0.94c0.98,0.62,1.46,1.45,1.46,2.47c0,0.86-0.35,1.59-1.06,2.17
		s-1.63,0.96-2.78,1.14v1.75c0.45-0.02,0.94-0.04,1.46-0.06c0.53-0.02,1.06-0.05,1.58-0.08c0.54-0.05,1.06-0.09,1.56-0.13
		s0.95-0.09,1.37-0.16v2.28c-1.47,0.19-3.26,0.33-5.36,0.42c-2.1,0.09-4.34,0.13-6.71,0.13h-2.47v-2.33l5.69-0.02v-1.77H258.95z
		 M254.22,22.84h12.14v2.14h-12.14L254.22,22.84L254.22,22.84z M256.91,19.43h6.74v2.09h-6.74V19.43z M260.34,27.78
		c-0.88,0-1.53,0.14-1.94,0.42s-0.62,0.63-0.62,1.04c0,0.43,0.21,0.78,0.64,1.06c0.42,0.27,1.07,0.41,1.93,0.41s1.51-0.14,1.93-0.41
		c0.42-0.27,0.64-0.62,0.64-1.06c0-0.42-0.21-0.76-0.64-1.04S261.21,27.78,260.34,27.78z M268.36,40.6V19.12h2.71V40.6H268.36z"/>
	<path class="st1" d="M292.55,24.25v4.06h9.53v2.3h-19.8v-2.3h7.49v-4.06H292.55z M292.17,32.22c2.58,0,4.55,0.4,5.92,1.2
		s2.05,1.86,2.05,3.19c0,1.34-0.68,2.41-2.04,3.2S294.76,41,292.17,41c-2.61,0-4.59-0.4-5.94-1.19c-1.35-0.79-2.03-1.86-2.03-3.2
		c0-1.33,0.68-2.39,2.04-3.19C287.6,32.62,289.58,32.22,292.17,32.22z M299.32,19.67c0.24,0,0.41,0.05,0.52,0.16
		c0.1,0.1,0.16,0.28,0.16,0.52c-0.03,0.7-0.08,1.45-0.16,2.23s-0.15,1.5-0.23,2.16c-0.08,0.67-0.19,1.43-0.34,2.28h-2.64
		c0.18-0.86,0.31-1.7,0.4-2.52s0.14-1.66,0.16-2.52h-12.82v-2.3h14.95V19.67z M292.17,34.33c-1.52,0-2.72,0.19-3.6,0.56
		c-0.88,0.38-1.32,0.94-1.32,1.69c0,0.82,0.44,1.41,1.32,1.78s2.08,0.55,3.6,0.55c1.5,0,2.7-0.18,3.59-0.55
		c0.89-0.37,1.33-0.96,1.33-1.78c0-0.75-0.44-1.32-1.33-1.69C294.87,34.52,293.67,34.33,292.17,34.33z"/>
	<path class="st1" d="M315.86,30.78c-0.99-0.48-1.96-1.1-2.89-1.87c-0.94-0.77-1.63-1.54-2.08-2.33c-0.14,0.42-0.38,0.84-0.7,1.27
		s-0.7,0.86-1.15,1.3c-0.43,0.42-0.91,0.81-1.44,1.19s-1.06,0.71-1.61,1l-2.14-1.82c1.81-0.85,3.18-1.9,4.13-3.16
		c0.94-1.26,1.42-2.64,1.44-4.16v-2.62h2.9v2.57c-0.02,0.72,0.1,1.42,0.36,2.09s0.61,1.3,1.06,1.87c0.46,0.58,1.02,1.09,1.67,1.55
		c0.65,0.46,1.36,0.82,2.15,1.09L315.86,30.78z M321.76,32.87c0.24,0,0.41,0.05,0.52,0.16c0.1,0.1,0.16,0.28,0.16,0.52v7.18h-2.71
		v-5.59h-12.1v-2.26h14.13V32.87z M322.43,19.12V32h-2.71V19.12H322.43z"/>
	<path class="st1" d="M188.45,68.93c-1.27,0-2.41-0.21-3.42-0.65c-1.01-0.43-1.86-1.02-2.57-1.77c-0.7-0.72-1.24-1.58-1.6-2.57
		c-0.36-0.99-0.54-2.03-0.54-3.15c0-1.11,0.18-2.15,0.54-3.13c0.36-0.97,0.9-1.84,1.6-2.58c0.7-0.73,1.55-1.3,2.55-1.73
		s2.14-0.65,3.43-0.65c1.27,0,2.41,0.22,3.42,0.65s1.85,1.01,2.53,1.73c0.7,0.75,1.24,1.61,1.61,2.58c0.38,0.97,0.56,2.02,0.56,3.13
		s-0.19,2.16-0.56,3.15s-0.91,1.84-1.61,2.57c-0.7,0.75-1.56,1.34-2.57,1.77C190.82,68.72,189.69,68.93,188.45,68.93z M188.45,55.98
		c-1.38,0-2.44,0.46-3.18,1.39c-0.74,0.93-1.1,2.07-1.1,3.43c0,1.34,0.37,2.48,1.12,3.43s1.8,1.43,3.16,1.43s2.41-0.48,3.16-1.43
		c0.75-0.95,1.12-2.1,1.12-3.43c0-1.36-0.37-2.5-1.12-3.43S189.81,55.98,188.45,55.98z M185.56,82.16c-0.36,0-0.61-0.07-0.73-0.2
		c-0.12-0.14-0.19-0.39-0.19-0.75v-9.25h3.88v6.94h17.31v3.26C205.83,82.16,185.56,82.16,185.56,82.16z M205.11,52.31v22.44h-3.81
		V52.31H205.11z"/>
	<path class="st1" d="M238.42,79H210.3v-3.26h28.12V79z M234.85,70.43c-1.09-0.34-2.18-0.81-3.26-1.41s-2.11-1.28-3.06-2.02
		c-0.95-0.75-1.8-1.54-2.53-2.38c-0.74-0.84-1.3-1.67-1.68-2.48c-0.95,1.81-2.3,3.43-4.05,4.86s-3.86,2.58-6.36,3.47l-2.69-2.89
		c1.56-0.45,3.02-1.06,4.37-1.82s2.51-1.63,3.49-2.6c1-1,1.78-2.08,2.35-3.26s0.85-2.42,0.85-3.74v-2.82h4.15v2.82
		c-0.02,1.32,0.28,2.58,0.9,3.79s1.44,2.33,2.46,3.35s2.19,1.91,3.5,2.67c1.31,0.76,2.66,1.32,4.05,1.68L234.85,70.43z"/>
	<path class="st1" d="M244.2,53.77h13.4V57h-10.54v5.78h10.17v3.23h-10.17v6.22c0.36,0,0.75,0.01,1.17,0.02
		c0.42,0.01,0.89,0.02,1.41,0.02s1.09-0.01,1.72-0.03c0.62-0.02,1.33-0.07,2.12-0.14c1.07-0.07,2.29-0.18,3.67-0.32
		c1.38-0.14,2.6-0.3,3.64-0.46v3.23c-0.95,0.14-2.07,0.28-3.37,0.44c-1.29,0.16-2.58,0.27-3.88,0.34c-1.34,0.09-2.74,0.15-4.2,0.17
		s-3.19,0.03-5.18,0.03c-0.36,0-0.61-0.07-0.73-0.2c-0.12-0.14-0.19-0.38-0.19-0.75V54.72c0-0.34,0.07-0.58,0.2-0.73
		C243.59,53.84,243.84,53.77,244.2,53.77z M261.95,82.74V52.31h3.81v11.05h4.18v3.5h-4.18v15.88H261.95z"/>
	<path class="st1" d="M296.19,54.45c0.34,0,0.58,0.07,0.73,0.22c0.15,0.15,0.22,0.39,0.22,0.73c-0.07,1.75-0.2,3.53-0.39,5.34
		s-0.44,3.59-0.73,5.34c-0.29,1.77-0.63,3.47-1,5.1s-0.74,3.13-1.11,4.49h6.53v3.23h-28.12v-3.23H290c0.39-1.22,0.77-2.61,1.16-4.17
		s0.73-3.13,1.02-4.74c0.29-1.61,0.53-3.2,0.71-4.76s0.27-2.99,0.27-4.28h-17.92v-3.26h20.95V54.45z"/>
	<path class="st1" d="M315.5,53.43c0.34,0,0.58,0.07,0.73,0.22c0.15,0.15,0.22,0.39,0.22,0.73v7.34c0,0.36-0.07,0.61-0.22,0.75
		s-0.39,0.2-0.73,0.2h-6.43v3.23h2.89c1.09,0,2.19-0.06,3.32-0.17c1.12-0.11,2.09-0.25,2.91-0.41v3.13
		c-0.41,0.07-0.91,0.14-1.51,0.2c-0.6,0.07-1.24,0.14-1.92,0.2c-0.68,0.07-1.37,0.12-2.06,0.15s-1.33,0.05-1.92,0.05h-4.52
		c-0.36,0-0.61-0.07-0.75-0.2c-0.14-0.14-0.2-0.38-0.2-0.75v-7.41c0-0.34,0.07-0.58,0.2-0.73c0.14-0.15,0.39-0.22,0.75-0.22h6.36
		v-3.2h-7.31v-3.13h10.19V53.43z M309.48,71.38h19.07c0.34,0,0.58,0.07,0.73,0.22s0.22,0.39,0.22,0.73v9.11
		c0,0.36-0.07,0.61-0.22,0.75s-0.39,0.2-0.73,0.2h-19.07c-0.36,0-0.61-0.07-0.75-0.2c-0.14-0.14-0.2-0.39-0.2-0.75v-9.11
		c0-0.34,0.07-0.58,0.2-0.73S309.12,71.38,309.48,71.38z M325.67,79.27v-4.73h-13.26v4.73H325.67z M322.95,52.82v5.85h2.82v-6.36
		h3.74v17.82h-3.74v-7.89h-2.82v7.89h-3.74V52.82H322.95z"/>
</g>
<g>
	<path class="st1" d="M138.24,74.83c0,6.42-5.26,11.68-11.68,11.68H78.2c-6.42,0-11.68-5.26-11.68-11.68V26.46
		c0-6.42,5.26-11.68,11.68-11.68h48.36c6.42,0,11.68,5.26,11.68,11.68L138.24,74.83L138.24,74.83z"/>
	<g>
		<g>
			<path class="st0" d="M115.1,80.17H89.66c-9.27,0-16.81-7.54-16.81-16.81V37.93c0-9.27,7.54-16.81,16.81-16.81h25.44
				c9.27,0,16.81,7.54,16.81,16.81v25.44C131.91,72.63,124.37,80.17,115.1,80.17z M89.66,26.18c-6.48,0-11.75,5.27-11.75,11.75
				v25.44c0,6.48,5.27,11.75,11.75,11.75h25.44c6.48,0,11.75-5.27,11.75-11.75V37.93c0-6.48-5.27-11.75-11.75-11.75H89.66z"/>
		</g>
		<g>
			<path class="st0" d="M102.38,65.77c-8.34,0-15.12-6.78-15.12-15.12s6.78-15.12,15.12-15.12s15.12,6.78,15.12,15.12
				C117.5,58.98,110.72,65.77,102.38,65.77z M102.38,40.59c-5.55,0-10.06,4.51-10.06,10.06s4.51,10.06,10.06,10.06
				c5.55,0,10.06-4.51,10.06-10.06S107.93,40.59,102.38,40.59z"/>
		</g>
		<g>
			<path class="st0" d="M121.78,34.66c0,2.01-1.63,3.63-3.63,3.63c-2.01,0-3.63-1.63-3.63-3.63s1.63-3.63,3.63-3.63
				C120.16,31.03,121.78,32.65,121.78,34.66z"/>
		</g>
	</g>
</g>
</svg>
