<?xml version="1.0" encoding="utf-8"?>
<!-- Generator: Adobe Illustrator 25.2.0, SVG Export Plug-In . SVG Version: 6.00 Build 0)  -->
<svg version="1.1" id="레이어_1" xmlns="http://www.w3.org/2000/svg" xmlns:xlink="http://www.w3.org/1999/xlink" x="0px"
	 y="0px" viewBox="0 0 400 100" style="enable-background:new 0 0 400 100;" xml:space="preserve">
<style type="text/css">
	.st0{fill:#FFFF00;}
	.st1{fill:#42210B;}
	.st2{fill:#603813;}
</style>
<path class="st0" d="M381.84,100H18.16C8.13,100,0,91.87,0,81.84V18.16C0,8.13,8.13,0,18.16,0h363.68C391.87,0,400,8.13,400,18.16
	v63.68C400,91.87,391.87,100,381.84,100z"/>
<g>
	<path class="st1" d="M197.14,32.02v2.23h8.47v2.18h-19.8v-2.18h8.45v-2.23H197.14z M187.87,28.16v-1.99h15.6v1.99h-5.95
		c0.5,0.7,1.34,1.28,2.52,1.73c1.18,0.45,2.73,0.77,4.63,0.96l-1.61,2.06c-1.94-0.34-3.52-0.76-4.74-1.27
		c-1.22-0.51-2.09-1.1-2.6-1.78c-0.48,0.62-1.34,1.2-2.57,1.72c-1.23,0.52-2.85,0.97-4.85,1.36l-1.66-2.06
		c2-0.24,3.6-0.58,4.79-1.03s2-1.01,2.41-1.68H187.87z M195.7,45c-2.61,0-4.59-0.34-5.94-1.01c-1.35-0.67-2.03-1.58-2.03-2.71
		c0-1.12,0.68-2.02,2.04-2.7s3.34-1.02,5.93-1.02c2.58,0,4.55,0.34,5.92,1.02s2.05,1.58,2.05,2.7c0,1.14-0.68,2.04-2.04,2.71
		S198.29,45,195.7,45z M195.7,39.56c-1.52,0-2.72,0.16-3.6,0.48s-1.32,0.74-1.32,1.27c0,0.56,0.44,0.97,1.32,1.24s2.08,0.4,3.6,0.4
		c1.5,0,2.7-0.13,3.59-0.4s1.33-0.68,1.33-1.24c0-0.53-0.44-0.95-1.33-1.27S197.2,39.56,195.7,39.56z M191.45,22.8h8.45v2.09h-8.45
		V22.8z"/>
	<path class="st1" d="M208.44,28.33v-2.09h12.55v2.09H208.44z M214.71,36.22c-1.79,0-3.17-0.34-4.14-1.03
		c-0.97-0.69-1.45-1.51-1.45-2.47s0.48-1.78,1.44-2.46c0.96-0.68,2.34-1.02,4.15-1.02c1.79,0,3.17,0.34,4.14,1.02
		c0.97,0.68,1.45,1.5,1.45,2.46s-0.49,1.78-1.46,2.47C217.86,35.88,216.48,36.22,214.71,36.22z M224.71,37.8
		c0.24,0,0.41,0.05,0.52,0.16c0.1,0.1,0.16,0.28,0.16,0.52v6.22h-2.81v-4.66h-11.78V37.8H224.71z M211.32,23.02h6.7v2.04h-6.7V23.02
		z M214.71,31.11c-0.85,0-1.53,0.14-2.04,0.42c-0.51,0.28-0.77,0.67-0.77,1.16c0,0.54,0.26,0.94,0.77,1.2
		c0.51,0.26,1.19,0.38,2.04,0.38c0.83,0,1.51-0.13,2.03-0.38c0.52-0.26,0.78-0.66,0.78-1.2c0-0.5-0.26-0.88-0.78-1.16
		C216.21,31.25,215.54,31.11,214.71,31.11z M225.38,23.12v5.62h2.78v2.42h-2.78v5.78h-2.71V23.12H225.38z"/>
	<path class="st1" d="M228.96,33.53c1.47-0.88,2.6-1.96,3.4-3.25s1.19-2.86,1.19-4.72v-1.9h2.83v1.9c-0.02,1.7,0.32,3.12,1.02,4.26
		c0.7,1.14,1.75,2.12,3.16,2.92l-1.78,1.85c-0.8-0.53-1.54-1.14-2.23-1.84c-0.69-0.7-1.2-1.41-1.54-2.15
		c-0.34,0.82-0.84,1.63-1.5,2.45c-0.66,0.82-1.46,1.55-2.39,2.21L228.96,33.53z M240.58,35.93c1.12,0,2.16,0.1,3.12,0.31
		s1.79,0.5,2.5,0.89c0.69,0.38,1.23,0.86,1.63,1.42c0.4,0.56,0.6,1.2,0.6,1.92c0,0.74-0.2,1.38-0.6,1.94
		c-0.4,0.56-0.95,1.03-1.66,1.42c-0.69,0.38-1.52,0.67-2.48,0.86c-0.97,0.19-2.01,0.29-3.13,0.29s-2.16-0.1-3.11-0.29
		c-0.95-0.19-1.77-0.48-2.46-0.86c-0.7-0.38-1.25-0.86-1.63-1.42c-0.38-0.56-0.58-1.21-0.58-1.94c0-0.7,0.2-1.34,0.6-1.9
		c0.4-0.56,0.95-1.04,1.66-1.44c0.7-0.38,1.53-0.68,2.48-0.89S239.49,35.93,240.58,35.93z M240.55,38.07c-1.42,0-2.59,0.21-3.5,0.62
		c-0.91,0.42-1.37,0.99-1.37,1.73c0,0.75,0.46,1.35,1.38,1.79c0.92,0.44,2.08,0.66,3.49,0.66c1.47,0,2.66-0.22,3.58-0.67
		c0.91-0.45,1.37-1.04,1.37-1.78c0-0.75-0.45-1.33-1.36-1.74C243.24,38.27,242.04,38.07,240.55,38.07z M243.72,23.45v4.3h1.85v-4.63
		h2.64v13.03h-2.64V30.2h-1.85v5.23h-2.64V23.45H243.72z"/>
	<path class="st1" d="M257.95,36.58c-1.2-0.16-2.16-0.54-2.87-1.13s-1.07-1.33-1.07-2.21c0-1.02,0.48-1.85,1.45-2.47
		c0.97-0.62,2.26-0.94,3.88-0.94c1.6,0,2.89,0.31,3.86,0.94c0.98,0.62,1.46,1.45,1.46,2.47c0,0.86-0.35,1.59-1.06,2.17
		s-1.63,0.96-2.78,1.14v1.75c0.45-0.02,0.94-0.04,1.46-0.06c0.53-0.02,1.06-0.05,1.58-0.08c0.54-0.05,1.06-0.09,1.56-0.13
		s0.95-0.09,1.37-0.16v2.28c-1.47,0.19-3.26,0.33-5.36,0.42c-2.1,0.09-4.34,0.13-6.71,0.13h-2.47v-2.33l5.69-0.02V36.58z
		 M253.22,26.84h12.14v2.14h-12.14V26.84z M255.91,23.43h6.74v2.09h-6.74V23.43z M259.34,31.78c-0.88,0-1.53,0.14-1.94,0.42
		s-0.62,0.63-0.62,1.04c0,0.43,0.21,0.78,0.64,1.06c0.42,0.27,1.07,0.41,1.93,0.41c0.86,0,1.51-0.14,1.93-0.41
		c0.42-0.27,0.64-0.62,0.64-1.06c0-0.42-0.21-0.76-0.64-1.04S260.21,31.78,259.34,31.78z M267.36,44.6V23.12h2.71V44.6H267.36z"/>
	<path class="st1" d="M291.55,28.25v4.06h9.53v2.3h-19.8v-2.3h7.49v-4.06H291.55z M291.17,36.22c2.58,0,4.55,0.4,5.92,1.2
		s2.05,1.86,2.05,3.19c0,1.34-0.68,2.41-2.04,3.2S293.76,45,291.17,45c-2.61,0-4.59-0.4-5.94-1.19c-1.35-0.79-2.03-1.86-2.03-3.2
		c0-1.33,0.68-2.39,2.04-3.19C286.6,36.62,288.58,36.22,291.17,36.22z M298.32,23.67c0.24,0,0.41,0.05,0.52,0.16
		c0.1,0.1,0.16,0.28,0.16,0.52c-0.03,0.7-0.08,1.45-0.16,2.23s-0.15,1.5-0.23,2.16c-0.08,0.67-0.19,1.43-0.34,2.28h-2.64
		c0.18-0.86,0.31-1.7,0.4-2.52c0.09-0.82,0.14-1.66,0.16-2.52h-12.82v-2.3H298.32z M291.17,38.33c-1.52,0-2.72,0.19-3.6,0.56
		c-0.88,0.38-1.32,0.94-1.32,1.69c0,0.82,0.44,1.41,1.32,1.78c0.88,0.37,2.08,0.55,3.6,0.55c1.5,0,2.7-0.18,3.59-0.55
		c0.89-0.37,1.33-0.96,1.33-1.78c0-0.75-0.44-1.32-1.33-1.69C293.87,38.52,292.67,38.33,291.17,38.33z"/>
	<path class="st1" d="M314.86,34.78c-0.99-0.48-1.96-1.1-2.89-1.87c-0.94-0.77-1.63-1.54-2.08-2.33c-0.14,0.42-0.38,0.84-0.7,1.27
		c-0.32,0.43-0.7,0.86-1.15,1.3c-0.43,0.42-0.91,0.81-1.44,1.19s-1.06,0.71-1.61,1l-2.14-1.82c1.81-0.85,3.18-1.9,4.13-3.16
		c0.94-1.26,1.42-2.64,1.44-4.16v-2.62h2.9v2.57c-0.02,0.72,0.1,1.42,0.36,2.09s0.61,1.3,1.06,1.87c0.46,0.58,1.02,1.09,1.67,1.55
		c0.65,0.46,1.36,0.82,2.15,1.09L314.86,34.78z M320.76,36.87c0.24,0,0.41,0.05,0.52,0.16c0.1,0.1,0.16,0.28,0.16,0.52v7.18h-2.71
		v-5.59h-12.1v-2.26H320.76z M321.43,23.12V36h-2.71V23.12H321.43z"/>
	<path class="st1" d="M192.96,60.8c-0.58,0.14-1.18,0.24-1.81,0.28c-0.63,0.04-1.27,0.06-1.91,0.06h-2.52V59h3.53
		c0.67,0,1.29-0.02,1.85-0.05c0.56-0.03,1.14-0.11,1.73-0.24c0.16-0.53,0.29-1.07,0.4-1.62c0.1-0.55,0.18-1.12,0.23-1.72h-7.01
		v-2.21h9.31c0.24,0,0.41,0.05,0.52,0.16c0.1,0.1,0.16,0.28,0.16,0.52c-0.18,3.17-0.99,6.06-2.45,8.66
		c-1.46,2.61-3.66,4.91-6.62,6.91l-2.26-1.82c1.47-0.78,2.8-1.75,3.98-2.9S192.23,62.24,192.96,60.8z M203.11,51.89v8.23h2.9v2.42
		h-2.9V73.4h-2.71v-21.5H203.11z"/>
	<path class="st1" d="M214.85,60.8c-0.58,0.14-1.18,0.24-1.81,0.28c-0.63,0.04-1.27,0.06-1.91,0.06h-2.52V59h3.53
		c0.67,0,1.29-0.02,1.85-0.05c0.56-0.03,1.14-0.11,1.73-0.24c0.16-0.53,0.29-1.07,0.4-1.62c0.1-0.55,0.18-1.12,0.23-1.72h-7.01
		v-2.21h9.31c0.24,0,0.41,0.05,0.52,0.16c0.1,0.1,0.16,0.28,0.16,0.52c-0.18,3.17-0.99,6.06-2.45,8.66
		c-1.46,2.61-3.66,4.91-6.62,6.91l-2.26-1.82c1.47-0.78,2.8-1.75,3.98-2.9S214.11,62.24,214.85,60.8z M225,51.89v8.23h2.9v2.42H225
		V73.4h-2.71v-21.5H225z"/>
	<path class="st1" d="M238.06,64.37c-2-0.24-3.52-0.92-4.57-2.03s-1.57-2.43-1.57-3.95c0-0.83,0.16-1.62,0.49-2.35
		s0.81-1.38,1.45-1.92s1.43-0.98,2.38-1.3c0.94-0.32,2.03-0.48,3.26-0.48c1.21,0,2.29,0.16,3.24,0.48c0.94,0.32,1.74,0.75,2.38,1.3
		s1.13,1.18,1.46,1.92c0.34,0.74,0.5,1.52,0.5,2.35c0,1.54-0.53,2.86-1.6,3.97c-1.06,1.11-2.6,1.78-4.62,2v4.34h8.54v2.3h-19.87
		v-2.3h8.52V64.37z M239.5,54.63c-1.39,0-2.53,0.34-3.41,1.02c-0.88,0.68-1.32,1.6-1.32,2.75c0,1.15,0.44,2.07,1.32,2.75
		c0.88,0.68,2.02,1.02,3.41,1.02c1.38,0,2.51-0.34,3.4-1.02c0.89-0.68,1.33-1.6,1.33-2.75c0-1.15-0.44-2.07-1.33-2.75
		C242,54.97,240.87,54.63,239.5,54.63z"/>
	<path class="st1" d="M254.62,52.32h14.18v1.94h-12.1v1.66h12v1.9h-12v1.68h12.31v1.97h-6.31v1.66h8.57v2.21h-19.8v-2.21h8.28v-1.66
		h-5.16c-0.26,0-0.43-0.05-0.52-0.14c-0.09-0.1-0.13-0.27-0.13-0.53V53c0-0.24,0.05-0.41,0.14-0.52
		C254.18,52.38,254.36,52.32,254.62,52.32z M268.13,66.68c0.24,0,0.41,0.05,0.52,0.16c0.1,0.1,0.16,0.28,0.16,0.52v6.17h-2.78v-4.63
		h-12.34v-2.21H268.13z"/>
	<path class="st1" d="M282.03,56.38h9.91v2.3h-3.48v1.06c-0.02,1.63,0.38,3.06,1.19,4.3c0.81,1.23,1.84,2.22,3.08,2.98l-1.85,1.75
		c-0.91-0.62-1.69-1.3-2.33-2.04c-0.64-0.74-1.14-1.5-1.51-2.28c-0.38,0.9-0.9,1.76-1.56,2.6s-1.46,1.64-2.4,2.39l-2.26-1.68
		c1.38-0.9,2.51-2.02,3.41-3.36c0.9-1.34,1.34-2.91,1.34-4.7v-1.01h-3.55V56.38z M284.09,52.4h5.88v2.23h-5.88V52.4z M300.29,51.92
		V73.4h-2.59V62.26h-1.85v10.13h-2.64V52.28h2.64v7.34h1.85v-7.7H300.29z"/>
	<path class="st1" d="M305.18,61.68c-0.26,0-0.43-0.05-0.52-0.14c-0.09-0.1-0.13-0.27-0.13-0.53V52.4h2.69v6.91h2.98
		c0.5,0,1.05-0.02,1.66-0.06s1.2-0.09,1.78-0.16c0.59-0.06,1.15-0.14,1.67-0.23c0.52-0.09,0.96-0.17,1.33-0.25v2.3
		c-0.3,0.08-0.7,0.16-1.19,0.24c-0.49,0.08-1.03,0.16-1.62,0.24c-0.61,0.06-1.24,0.12-1.9,0.17s-1.3,0.07-1.92,0.07
		c-0.18,0.02-0.52,0.03-1.03,0.04s-1.04,0.01-1.58,0.01c-0.56,0-1.06,0-1.51,0C305.43,61.68,305.2,61.68,305.18,61.68z
		 M307.39,73.25c-0.26,0-0.43-0.05-0.53-0.14c-0.1-0.1-0.14-0.27-0.14-0.53v-4.46c0-0.24,0.05-0.41,0.14-0.52
		c0.1-0.1,0.27-0.16,0.53-0.16h10.82v-1.73h-11.5V63.6h13.68c0.24,0,0.41,0.05,0.52,0.16c0.1,0.1,0.16,0.28,0.16,0.52v4.39
		c0,0.26-0.05,0.43-0.16,0.53c-0.1,0.1-0.28,0.14-0.52,0.14h-10.78v1.8h11.93v2.11H307.39z M321.14,51.92v10.85h-2.71v-5.86h-5.62
		v-2.3h5.62v-2.69H321.14z"/>
</g>
<g>
	<path class="st2" d="M98.5,9C71.71,9,50,25.57,50,46c0,10.45,5.69,19.88,14.81,26.61l-7.49,18.69l23.71-10.78
		C86.46,82.11,92.34,83,98.5,83c26.79,0,48.5-16.57,48.5-37C147,25.57,125.29,9,98.5,9z"/>
	<g>
		<path class="st0" d="M74.14,56.21V40.34h-5.35v-2.28h13.32v2.28h-5.3v15.86H74.14z"/>
		<path class="st0" d="M91.09,38.57l6.6,17.64h-2.83l-1.7-4.66H86l-1.7,4.66h-2.83l6.6-17.64c0.05-0.14,0.12-0.26,0.23-0.36
			c0.1-0.1,0.23-0.14,0.37-0.14h1.8c0.14,0,0.27,0.05,0.38,0.14S91.04,38.42,91.09,38.57z M86.82,49.27h5.52l-2.4-6.7l-0.36-1.15
			l-0.36,1.15L86.82,49.27z"/>
		<path class="st0" d="M101.12,56.21c-0.26,0-0.43-0.04-0.52-0.13s-0.13-0.26-0.13-0.52v-17.5h2.71v15.86h8.3v2.28H101.12z"/>
		<path class="st0" d="M117.56,56.4h-2.54V38.26h2.54v6.6l6.34-6.6h3.46l-8.14,8.23l8.86,9.91h-3.41l-7.1-8.04V56.4z"/>
	</g>
</g>
</svg>
