<?xml version="1.0" encoding="utf-8"?>
<!-- Generator: Adobe Illustrator 25.2.0, SVG Export Plug-In . SVG Version: 6.00 Build 0)  -->
<svg version="1.1" id="레이어_1" xmlns="http://www.w3.org/2000/svg" xmlns:xlink="http://www.w3.org/1999/xlink" x="0px"
	 y="0px" viewBox="0 0 400 100" style="enable-background:new 0 0 400 100;" xml:space="preserve">
<style type="text/css">
	.st0{fill:#004097;}
	.st1{fill:#FFFFFF;}
</style>
<path class="st0" d="M381.84,100H18.16C8.13,100,0,91.87,0,81.84V18.16C0,8.13,8.13,0,18.16,0h363.68C391.87,0,400,8.13,400,18.16
	v63.68C400,91.87,391.87,100,381.84,100z"/>
<g>
	<path class="st1" d="M196.39,22.74h-3.26v2.28c0,2.26,0.33,4.09,0.98,5.5c0.66,1.41,1.75,2.59,3.29,3.55l-1.8,1.82
		c-0.9-0.59-1.69-1.3-2.38-2.11c-0.69-0.82-1.2-1.63-1.54-2.45c-0.29,0.91-0.8,1.83-1.55,2.75s-1.57,1.76-2.48,2.51l-2.23-1.68
		c1.68-1.07,2.91-2.42,3.7-4.06c0.78-1.63,1.18-3.6,1.18-5.9v-2.21h-3.26v-2.28h9.36V22.74z M194.95,25.81h3.07v-6.34h2.64v20.11
		h-2.64V28.33h-3.07V25.81z M204.88,19.12V40.6h-2.62V19.12H204.88z"/>
	<path class="st1" d="M235.48,33.37h-8.45v7.22h-2.76v-7.22h-8.59v-2.28h19.8V33.37z M217.89,19.79h15.34v2.28h-6.12
		c0.14,0.67,0.44,1.28,0.9,1.84c0.46,0.55,1.03,1.04,1.72,1.48c0.67,0.43,1.44,0.81,2.29,1.13c0.86,0.32,1.75,0.58,2.68,0.77
		l-1.68,1.92c-0.67-0.16-1.37-0.37-2.09-0.62c-0.72-0.26-1.41-0.57-2.06-0.94c-0.67-0.35-1.29-0.76-1.86-1.24
		c-0.57-0.47-1.04-1-1.43-1.57c-0.67,0.99-1.62,1.86-2.86,2.6c-1.23,0.74-2.74,1.33-4.51,1.76l-1.85-1.97
		c0.96-0.21,1.87-0.46,2.72-0.77s1.62-0.66,2.29-1.08c0.69-0.43,1.26-0.92,1.72-1.46s0.76-1.16,0.92-1.85h-6.12V19.79z"/>
	<path class="st1" d="M247.82,20.44h6.91v2.26h-4.94v10.3l1.97-0.02c0.34,0,0.7-0.02,1.1-0.06c0.4-0.04,0.79-0.08,1.18-0.13
		c0.38-0.05,0.74-0.1,1.08-0.14s0.61-0.1,0.82-0.14v2.3c-0.24,0.06-0.57,0.13-1,0.19c-0.42,0.06-0.88,0.12-1.38,0.17
		c-0.48,0.05-0.98,0.09-1.49,0.12c-0.51,0.03-0.98,0.05-1.39,0.05c-0.16,0.02-0.4,0.02-0.71,0.02c-0.31,0-0.63,0-0.95,0
		c-0.34,0-0.74,0-1.22,0c-0.26,0-0.43-0.05-0.52-0.14c-0.09-0.1-0.13-0.27-0.13-0.53V21.11c0-0.24,0.05-0.41,0.14-0.52
		C247.38,20.49,247.56,20.44,247.82,20.44z M259.19,19.48v6.74h2.14v-7.13h2.62v21.5h-2.62V28.88h-2.14v10.7h-2.59V19.48H259.19z"/>
	<path class="st1" d="M276.04,24.33v-2.09h12.55v2.09H276.04z M282.3,32.22c-1.79,0-3.17-0.34-4.14-1.03
		c-0.97-0.69-1.45-1.51-1.45-2.47s0.48-1.78,1.44-2.46c0.96-0.68,2.34-1.02,4.15-1.02c1.79,0,3.17,0.34,4.14,1.02
		c0.97,0.68,1.45,1.5,1.45,2.46s-0.49,1.78-1.46,2.47C285.46,31.88,284.08,32.22,282.3,32.22z M292.31,33.8
		c0.24,0,0.41,0.05,0.52,0.16c0.1,0.1,0.16,0.28,0.16,0.52v6.22h-2.81v-4.66h-11.78V33.8H292.31z M278.92,19.02h6.7v2.04h-6.7V19.02
		z M282.3,27.11c-0.85,0-1.53,0.14-2.04,0.42c-0.51,0.28-0.77,0.67-0.77,1.16c0,0.54,0.26,0.94,0.77,1.2
		c0.51,0.26,1.19,0.38,2.04,0.38c0.83,0,1.51-0.13,2.03-0.38c0.52-0.26,0.78-0.66,0.78-1.2c0-0.5-0.26-0.88-0.78-1.16
		C283.81,27.25,283.14,27.11,282.3,27.11z M292.98,19.12v5.62h2.78v2.42h-2.78v5.78h-2.71V19.12H292.98z"/>
	<path class="st1" d="M317.2,28.31v7.61h7.73v2.3h-19.85v-2.3h4.32v-7.61h2.74v7.61h2.3v-7.61H317.2z M322.12,20.29
		c0.24,0,0.41,0.05,0.52,0.16c0.1,0.1,0.16,0.28,0.16,0.52c-0.06,0.9-0.13,1.86-0.2,2.88c-0.07,1.02-0.16,2.07-0.25,3.14
		c-0.1,1.07-0.21,2.13-0.34,3.18s-0.27,2.04-0.43,2.96h-2.69c0.3-1.7,0.54-3.46,0.7-5.29s0.26-3.59,0.31-5.27h-12.72v-2.28H322.12z"
		/>
	<path class="st1" d="M157.64,57.78h17.75v3.26h-17.75V57.78z M166.58,77.43c-1.2,0-2.29-0.18-3.28-0.54
		c-0.99-0.36-1.82-0.87-2.5-1.53c-0.7-0.66-1.25-1.44-1.63-2.35c-0.39-0.91-0.58-1.9-0.58-2.99c0-1.04,0.18-2.02,0.54-2.92
		c0.36-0.91,0.9-1.69,1.6-2.35s1.55-1.17,2.53-1.55s2.09-0.56,3.31-0.56s2.32,0.19,3.3,0.56s1.81,0.89,2.52,1.55
		c0.7,0.66,1.24,1.44,1.62,2.35c0.37,0.91,0.56,1.88,0.56,2.92c0,1.09-0.2,2.09-0.6,2.99c-0.4,0.91-0.94,1.69-1.62,2.35
		c-0.7,0.66-1.55,1.17-2.53,1.53C168.85,77.25,167.76,77.43,166.58,77.43z M161.82,52.71h9.49v3.13h-9.49V52.71z M166.58,65.91
		c-1.29,0-2.29,0.4-2.99,1.19c-0.7,0.79-1.05,1.77-1.05,2.92c0,1.2,0.36,2.19,1.07,2.98c0.71,0.78,1.71,1.17,2.98,1.17
		c1.25,0,2.23-0.39,2.96-1.17c0.73-0.78,1.09-1.77,1.09-2.98c0-1.16-0.36-2.13-1.09-2.92C168.82,66.3,167.83,65.91,166.58,65.91z
		 M178.01,82.7v-30.4h3.81v12.1h4.15v3.5h-4.15V82.7H178.01z"/>
	<path class="st1" d="M200.01,60.5c0-1.09,0.2-2.11,0.59-3.06s0.95-1.78,1.65-2.48c0.73-0.7,1.58-1.26,2.57-1.68
		c0.99-0.42,2.07-0.63,3.25-0.63c1.31,0,2.51,0.25,3.59,0.77c1.08,0.51,1.98,1.18,2.7,2.02h6.66v-3.13h3.81V70.6h-3.81v-5.3h-6.43
		c-0.73,0.95-1.64,1.69-2.75,2.23c-1.11,0.53-2.37,0.8-3.77,0.8c-1.18,0-2.26-0.2-3.25-0.59c-0.99-0.4-1.84-0.95-2.57-1.65
		c-0.7-0.7-1.25-1.53-1.65-2.48S200.01,61.61,200.01,60.5z M214.46,70.46c1.54,0,2.98,0.15,4.32,0.44c1.34,0.29,2.49,0.71,3.47,1.26
		s1.74,1.21,2.29,2.01c0.55,0.79,0.83,1.7,0.83,2.72c0,1.04-0.28,1.96-0.83,2.75c-0.56,0.79-1.32,1.46-2.29,2.01
		c-1,0.54-2.16,0.95-3.49,1.22c-1.33,0.27-2.77,0.41-4.33,0.41c-1.56,0-3-0.14-4.32-0.41c-1.32-0.27-2.46-0.68-3.43-1.22
		s-1.73-1.21-2.28-2.01c-0.54-0.79-0.82-1.71-0.82-2.75c0-1,0.28-1.89,0.85-2.69c0.57-0.79,1.34-1.47,2.31-2.04
		c1-0.54,2.15-0.96,3.47-1.26C211.52,70.61,212.94,70.46,214.46,70.46z M208.06,65.09c1.29,0,2.32-0.46,3.08-1.38
		s1.14-1.99,1.14-3.21c0-1.27-0.38-2.35-1.14-3.25s-1.78-1.34-3.08-1.34c-1.32,0-2.35,0.44-3.09,1.33
		c-0.75,0.88-1.12,1.97-1.12,3.26c0,1.22,0.37,2.29,1.12,3.21S206.75,65.09,208.06,65.09z M214.46,73.49
		c-1.97,0-3.59,0.29-4.86,0.88c-1.27,0.59-1.9,1.41-1.9,2.45c0,1.07,0.64,1.91,1.92,2.53c1.28,0.62,2.89,0.94,4.84,0.94
		c1.99,0,3.62-0.32,4.88-0.95c1.26-0.63,1.89-1.47,1.89-2.52c0-1.06-0.62-1.89-1.87-2.46C218.11,73.78,216.47,73.49,214.46,73.49z
		 M215.92,58.56c0.07,0.32,0.12,0.63,0.17,0.95c0.04,0.32,0.07,0.65,0.07,0.99c0,0.29-0.02,0.58-0.05,0.85
		c-0.03,0.27-0.07,0.53-0.12,0.78h5.03v-3.57H215.92z"/>
	<path class="st1" d="M269.43,79h-28.12v-3.26h28.12V79z M245.8,53.7h20.33v3.26h-17.37v8.94h17.61v3.23h-20.6
		c-0.36,0-0.61-0.07-0.73-0.2c-0.12-0.14-0.19-0.38-0.19-0.75V54.65c0-0.34,0.07-0.58,0.2-0.73S245.44,53.7,245.8,53.7z"/>
	<path class="st1" d="M299.18,53.77c0.34,0,0.58,0.07,0.73,0.22c0.15,0.15,0.22,0.39,0.22,0.73v10.51c0,0.36-0.07,0.61-0.22,0.75
		s-0.39,0.2-0.73,0.2h-9.35v6.19l4.66-0.03c0.75,0,1.57-0.03,2.46-0.1c0.9-0.07,1.79-0.15,2.67-0.24c0.88-0.09,1.72-0.19,2.5-0.29
		c0.78-0.1,1.45-0.21,1.99-0.32v3.26c-0.52,0.09-1.18,0.19-1.99,0.29c-0.8,0.1-1.68,0.2-2.63,0.29c-0.93,0.09-1.91,0.18-2.94,0.25
		c-1.03,0.08-2.02,0.12-2.97,0.12c-0.27,0-0.77,0.01-1.48,0.02c-0.71,0.01-1.44,0.02-2.19,0.02s-1.42,0-2.02,0s-0.92,0-0.97,0
		c-0.36,0-0.61-0.07-0.75-0.2s-0.2-0.38-0.2-0.75V63.93c0-0.34,0.07-0.58,0.2-0.73s0.38-0.22,0.75-0.22h9.45v-5.95h-10.4v-3.26
		H299.18z M305.27,82.7v-30.4h3.88v30.4H305.27z"/>
	<path class="st1" d="M329.17,54.11h12.48c0.34,0,0.58,0.07,0.73,0.22c0.15,0.15,0.22,0.39,0.22,0.73V74.3
		c0,0.36-0.07,0.61-0.22,0.75c-0.15,0.14-0.39,0.2-0.73,0.2h-12.51c-0.36,0-0.61-0.06-0.73-0.19c-0.12-0.12-0.19-0.37-0.19-0.73
		V55.06c0-0.34,0.07-0.58,0.2-0.73S328.81,54.11,329.17,54.11z M338.79,72.03V57.34h-6.77v14.69H338.79z M347.6,82.74V52.31h3.84
		v30.43H347.6z"/>
</g>
<g>
	<g>
		<path class="st1" d="M93.7,35.52c-1.62,3.85-6.77,10.3-6.77,10.3c-2.67,3.52-5.84,7.94-6.95,13.77
			c-2.36,16.15,7.68,24.48,13.83,26.82c-4.85-2.57-13.36-9.94-11.32-23.27c1-4.95,3.65-10.05,9.66-16.52c0,0,7.1-7.4,8.05-13.83
			c0,0,3.37-14.38-9.91-23.21C96.96,17.9,97.09,27.5,93.7,35.52"/>
		<path class="st1" d="M102.42,37.97c-2.1,5.03-7.6,10.07-7.6,10.07c-8.69,8.38-9.8,13.36-9.8,13.36c-2,6.02-1.03,12.6,2.12,17.68
			c2.9,4.58,7.16,7.24,11.41,8.26c-3.23-1.11-9.6-4.91-10.15-13.23c-0.37-5,2.43-11.32,10.52-17.69c0,0,3.9-3,7.24-7.34
			c2.15-2.98,3.92-6.49,4.57-10.95c0,0,1.11-5.66-1.49-12.78c-1.27-3.62-3.88-7.88-7.21-10.85
			C108.18,26.37,102.42,37.97,102.42,37.97"/>
		<path class="st1" d="M132.5,64.28V36.59h-10.97v30.88c-0.03,2.15-0.22,4.54-0.22,4.54c-0.38,3.66-1.13,5.02-1.13,5.02
			c-2.3,5.5-6.46,7.87-6.46,7.87c-11.45,7.72-22.89,1.34-22.89,1.34c14.31,8.49,28.23,0.67,28.23,0.67
			c9.8-5.68,12.47-13.41,13.19-17.57C132.24,69.33,132.5,67.53,132.5,64.28"/>
		<path class="st1" d="M88.59,84.47c0,0-6.43-4.06-9.21-12.69c0,0-2.25-6.65-0.93-13.37c0,0,0.88-5.07,3.31-9.46
			c0,0,1.74-3.1,3.82-5.78c0,0,1.9-2.6,3.23-5.06c0,0,5.71-9.11-1.32-18.22c0,0,2.86,7.39-0.87,14.27c0,0-1.75,3.01-3.66,5.86
			c0,0-4.19,6.06-5.41,10.17c0,0-3.07,7.39-0.95,16.79C76.6,66.99,78.59,78.96,88.59,84.47"/>
	</g>
	<g>
		<g>
			<polygon class="st1" points="100.01,83.9 100.01,80.46 99.33,80.46 99.33,79.99 100.7,79.99 100.7,83.9 			"/>
			<path class="st1" d="M103.55,81.18c0-0.27-0.04-0.47-0.14-0.6c-0.09-0.12-0.24-0.19-0.43-0.19c-0.19,0-0.32,0.06-0.41,0.19
				c-0.08,0.12-0.13,0.33-0.13,0.6c0,0.29,0.04,0.49,0.13,0.61c0.08,0.12,0.23,0.17,0.43,0.17c0.19,0,0.34-0.06,0.43-0.19
				C103.51,81.66,103.55,81.46,103.55,81.18 M103.43,82.21c-0.09,0.07-0.19,0.12-0.29,0.15c-0.1,0.03-0.21,0.05-0.33,0.05
				c-0.36,0-0.63-0.09-0.79-0.28c-0.16-0.18-0.24-0.49-0.24-0.92c0-0.44,0.1-0.76,0.3-0.97c0.2-0.21,0.51-0.31,0.93-0.31
				c0.41,0,0.71,0.11,0.91,0.33c0.2,0.22,0.3,0.55,0.3,1c0,0.35-0.08,0.72-0.25,1.1c-0.17,0.38-0.5,0.89-0.98,1.55h-0.8
				c0.35-0.44,0.61-0.78,0.79-1.02C103.15,82.64,103.3,82.41,103.43,82.21"/>
			<path class="st1" d="M104.85,83.3c0.12,0.06,0.24,0.1,0.35,0.14c0.12,0.03,0.24,0.04,0.37,0.04c0.32,0,0.57-0.08,0.73-0.24
				c0.16-0.16,0.25-0.4,0.25-0.72c0-0.24-0.09-0.42-0.25-0.54c-0.17-0.12-0.42-0.18-0.75-0.18c-0.13,0-0.25,0-0.34,0.01
				c-0.1,0.01-0.19,0.02-0.28,0.04l0.36-1.87h1.91v0.48h-1.34l-0.21,0.96c0.07-0.01,0.14-0.02,0.19-0.02c0.06,0,0.11-0.01,0.15-0.01
				c0.37,0,0.68,0.11,0.9,0.31c0.23,0.21,0.34,0.49,0.34,0.83c0,0.44-0.14,0.79-0.42,1.04c-0.28,0.25-0.66,0.37-1.16,0.37
				c-0.18,0-0.35-0.01-0.52-0.05c-0.17-0.03-0.33-0.08-0.49-0.14L104.85,83.3z"/>
			<path class="st1" d="M107.83,83.9l1.46-2.08c0.13-0.18,0.22-0.35,0.29-0.51c0.06-0.15,0.09-0.29,0.09-0.42
				c0-0.17-0.04-0.3-0.12-0.39c-0.08-0.09-0.21-0.13-0.38-0.13c-0.19,0-0.32,0.06-0.41,0.17c-0.08,0.11-0.12,0.3-0.12,0.57v0.14
				h-0.69c-0.01-0.03-0.01-0.05-0.01-0.08v-0.12c0-0.37,0.1-0.65,0.32-0.84c0.21-0.19,0.53-0.28,0.95-0.28
				c0.38,0,0.68,0.09,0.9,0.26c0.21,0.17,0.32,0.41,0.32,0.71c0,0.18-0.04,0.36-0.13,0.55c-0.08,0.19-0.23,0.41-0.43,0.67
				l-0.99,1.28h1.43v0.5H107.83z"/>
		</g>
		<g>
			<path class="st1" d="M109.54,71.07v4.71c0,0.62,0.21,1.08,0.64,1.37c0.42,0.28,1.09,0.43,2.01,0.43c0.91,0,1.58-0.14,2.01-0.43
				c0.42-0.29,0.63-0.74,0.63-1.37v-4.71h-1.34v4.78c0,0.31-0.1,0.54-0.32,0.68c-0.21,0.15-0.54,0.22-0.99,0.22
				c-0.45,0-0.78-0.07-0.99-0.22c-0.22-0.15-0.32-0.37-0.32-0.68v-4.78H109.54z"/>
			<path class="st1" d="M95.85,77.59c0.71,0,1.24-0.14,1.58-0.43c0.34-0.29,0.51-0.73,0.51-1.32v-4.77h-1.35v4.8
				c0,0.31-0.08,0.54-0.24,0.69c-0.16,0.14-0.41,0.22-0.75,0.22c-0.19,0-0.38-0.03-0.57-0.09c-0.19-0.06-0.4-0.15-0.62-0.27v0.89
				c0.23,0.1,0.46,0.17,0.7,0.21C95.36,77.57,95.6,77.59,95.85,77.59"/>
			<polygon class="st1" points="103.49,71.85 103.49,71.07 99.48,71.07 99.48,77.5 103.49,77.5 103.49,76.69 100.83,76.69 
				100.83,74.52 103.27,74.52 103.27,73.75 100.83,73.75 100.83,71.85 			"/>
			<path class="st1" d="M107.51,77.16c0.34-0.29,0.51-0.73,0.51-1.32v-4.77h-1.35v4.8c0,0.31-0.08,0.54-0.24,0.69
				c-0.16,0.14-0.41,0.22-0.75,0.22c-0.19,0-0.38-0.03-0.57-0.09c-0.19-0.06-0.4-0.15-0.62-0.27v0.89c0.23,0.1,0.47,0.17,0.7,0.21
				c0.23,0.05,0.48,0.07,0.74,0.07C106.64,77.59,107.17,77.45,107.51,77.16"/>
		</g>
		<g>
			<path class="st1" d="M105.38,69c0.71-0.06,1.17-0.39,1.17-0.39l6.8,0.47V60.3l-0.71-0.04l0.31,0.5v7.96l-6.54-0.42
				c-0.3,0.2-0.68,0.35-1.14,0.38c-0.46-0.02-0.84-0.17-1.14-0.38l-6.54,0.42v-7.96l0.31-0.5L97.2,60.3v8.78l6.8-0.47
				c0,0,0.46,0.33,1.17,0.39C105.17,69,105.32,69.01,105.38,69z"/>
			<g>
				<path class="st1" d="M98.64,59.76c-0.15,0.24-0.67,1.06-0.69,1.08c0,0.03,0,6.76,0,7.13c0.15-0.25,0.67-1.12,0.69-1.15
					C98.64,66.8,98.64,60.11,98.64,59.76z"/>
				<path class="st1" d="M104.21,67.92l0.02,0.02c0.16,0.17,0.42,0.28,0.77,0.36c-0.09-0.51-0.34-0.9-0.76-1.13
					c-0.45-0.25-1.18-0.37-2.15-0.37c-0.45,0-0.93,0.03-1.48,0.08c-0.53,0.05-1.09,0.13-1.66,0.23c-0.02,0.04-0.63,1.05-0.72,1.2
					C98.44,68.3,104.21,67.92,104.21,67.92z"/>
				<path class="st1" d="M112.6,60.84c-0.01-0.02-0.54-0.84-0.69-1.08c0,0.36,0,7.04,0,7.07c0.01,0.02,0.53,0.89,0.69,1.15
					C112.6,67.6,112.6,60.87,112.6,60.84z"/>
				<path class="st1" d="M106.31,67.17c-0.42,0.23-0.67,0.61-0.76,1.13c0.35-0.08,0.62-0.2,0.78-0.36l0.02-0.02
					c0,0,5.78,0.38,5.98,0.4c-0.09-0.15-0.7-1.16-0.72-1.2c-0.57-0.1-1.13-0.18-1.66-0.23c-0.54-0.05-1.03-0.08-1.48-0.08
					C107.49,66.8,106.76,66.92,106.31,67.17z"/>
			</g>
			<path class="st1" d="M109.93,59.01c-0.52-0.06-1.03-0.09-1.53-0.09l-0.68,0.03l-0.52,0.08c-0.38,0.08-0.7,0.2-0.95,0.37
				l-0.07,0.06c0,0-0.03,0.02-0.03,0.02c-0.27,0.19-0.5,0.43-0.66,0.7v7.16c0.1-0.13,0.22-0.25,0.36-0.35
				c0.44-0.27,1.02-0.46,1.72-0.54c0,0,0.02,0,0.03,0l0.03,0c0.38-0.04,0.81-0.05,1.27-0.04l0.94,0.07
				c0.48,0.05,1.03,0.12,1.65,0.21v-7.41C110.96,59.14,110.43,59.06,109.93,59.01z M110.62,60.59c0,0-0.48,1.39-1.99,1.93
				c0,0,0.26,0.06,0.87,0.78c0,0,0.29,0.4,0.79,0.66c0,0-0.86,1.69-0.94,1.89c0,0-0.62-0.47-1.06-1.67c0,0-0.06-0.16-0.3-0.16
				c0,0-0.68,0.08-0.96,0.1c0,0-0.15,0.1-0.28,0l-0.1-0.11c0,0-0.02,0.01-0.07-0.03c0,0-0.09-0.07-0.09-0.16
				c0,0-0.01-0.09,0.06-0.14c0,0,1.14-0.78,1.35-1.07c0,0-0.01,0.04,0.05-0.12c0,0-0.34-0.09-0.54-0.23c0,0-0.24-0.16-0.23-0.38
				l0.06,0c0,0,0,0.26,0.49,0.41c0,0-0.12-0.16-0.16-0.36c0,0,0.04-0.01,0.07-0.01c0,0,0.14,0.42,0.38,0.43c0,0,0.46-0.29,0.5-0.61
				c0,0-0.19-0.12-0.27-0.6l0.06-0.04c0,0,0.08,0.46,0.31,0.45c0,0,0.21-0.01,0.34-0.39c0,0,0.11-0.28,0.1-0.64
				c0,0-0.01-0.13-0.05-0.31l0.05-0.08c0,0,0.05,0.12,0.06,0.24c0,0,0.01-0.23,0.18-0.47l0.04,0.02c0,0-0.11,0.12-0.11,0.52
				c0,0,0.02,0.37-0.15,0.83c0,0-0.33,0.79-0.77,1.15c0,0,0.73-0.3,0.94-0.46c0,0,0.28-0.17,0.32-0.78h0.07c0,0,0.04,0.12-0.01,0.49
				c0,0,0.5-0.23,0.86-1.05c0,0,0.07-0.21-0.02-0.43l0.03-0.04c0,0,0.11,0.2,0.1,0.3c0,0,0.1-0.24,0.32-0.29l0.02,0.04
				C110.93,60.19,110.7,60.33,110.62,60.59z"/>
			<path class="st1" d="M104.4,59.47l-0.03-0.02c0,0-0.08-0.06-0.07-0.06c-0.25-0.16-0.56-0.29-0.94-0.37l-0.52-0.08l-0.68-0.03
				c-0.49,0-1.01,0.03-1.53,0.09c-0.51,0.05-1.03,0.14-1.57,0.25v7.41c0.62-0.09,1.17-0.16,1.65-0.21c0,0,0.94-0.07,0.95-0.07
				c0.46-0.01,0.89,0,1.26,0.04l0.04,0c0,0,0.01,0,0.04,0c0.69,0.08,1.27,0.26,1.72,0.54c0.14,0.1,0.26,0.22,0.36,0.35v-7.16
				C104.9,59.9,104.68,59.67,104.4,59.47z M103.45,65.45h-2.65c0.4-1.13-0.41-3.18-0.41-3.18c0.55-0.63,1.26-1.55,1.57-1.96v2.48
				c-0.15,0.06-0.26,0.21-0.26,0.39c0,0.23,0.19,0.42,0.42,0.42c0.23,0,0.42-0.19,0.42-0.42c0-0.17-0.11-0.33-0.26-0.39v-2.5
				c0.3,0.4,1.02,1.35,1.59,1.98C103.86,62.27,103.05,64.32,103.45,65.45z"/>
		</g>
	</g>
</g>
</svg>
