<?xml version="1.0" encoding="utf-8"?>
<!-- Generator: Adobe Illustrator 25.2.0, SVG Export Plug-In . SVG Version: 6.00 Build 0)  -->
<svg version="1.1" id="레이어_1" xmlns="http://www.w3.org/2000/svg" xmlns:xlink="http://www.w3.org/1999/xlink" x="0px"
	 y="0px" viewBox="0 0 400 100" style="enable-background:new 0 0 400 100;" xml:space="preserve">
<style type="text/css">
	.st0{fill:#004097;}
	.st1{fill:#FFFFFF;}
</style>
<path class="st0" d="M381.84,100H18.16C8.13,100,0,91.87,0,81.84V18.16C0,8.13,8.13,0,18.16,0h363.68C391.87,0,400,8.13,400,18.16
	v63.68C400,91.87,391.87,100,381.84,100z"/>
<g>
	<path class="st1" d="M138.24,74.83c0,6.42-5.26,11.68-11.68,11.68H78.2c-6.42,0-11.68-5.26-11.68-11.68V26.46
		c0-6.42,5.26-11.68,11.68-11.68h48.36c6.42,0,11.68,5.26,11.68,11.68L138.24,74.83L138.24,74.83z"/>
	<g>
		<g>
			<path class="st0" d="M115.1,80.17H89.66c-9.27,0-16.81-7.54-16.81-16.81V37.93c0-9.27,7.54-16.81,16.81-16.81h25.44
				c9.27,0,16.81,7.54,16.81,16.81v25.44C131.91,72.63,124.37,80.17,115.1,80.17z M89.66,26.18c-6.48,0-11.75,5.27-11.75,11.75
				v25.44c0,6.48,5.27,11.75,11.75,11.75h25.44c6.48,0,11.75-5.27,11.75-11.75V37.93c0-6.48-5.27-11.75-11.75-11.75H89.66z"/>
		</g>
		<g>
			<path class="st0" d="M102.38,65.77c-8.34,0-15.12-6.78-15.12-15.12s6.78-15.12,15.12-15.12s15.12,6.78,15.12,15.12
				C117.5,58.98,110.72,65.77,102.38,65.77z M102.38,40.59c-5.55,0-10.06,4.51-10.06,10.06s4.51,10.06,10.06,10.06
				c5.55,0,10.06-4.51,10.06-10.06S107.93,40.59,102.38,40.59z"/>
		</g>
		<g>
			<path class="st0" d="M121.78,34.66c0,2.01-1.63,3.63-3.63,3.63c-2.01,0-3.63-1.63-3.63-3.63s1.63-3.63,3.63-3.63
				C120.16,31.03,121.78,32.65,121.78,34.66z"/>
		</g>
	</g>
</g>
<g>
	<path class="st1" d="M206.11,23.71h-3.4v2.38c0,2.35,0.34,4.26,1.03,5.72c0.68,1.47,1.82,2.7,3.42,3.7l-1.88,1.9
		c-0.93-0.62-1.76-1.35-2.47-2.2s-1.25-1.7-1.6-2.55c-0.3,0.95-0.84,1.9-1.61,2.86c-0.77,0.96-1.64,1.83-2.59,2.61l-2.33-1.75
		c1.75-1.12,3.03-2.52,3.85-4.22s1.23-3.75,1.23-6.15v-2.3h-3.4v-2.38h9.75V23.71z M204.61,26.91h3.2v-6.6h2.75v20.95h-2.75V29.54
		h-3.2V26.91z M214.96,19.93v22.38h-2.72V19.93H214.96z"/>
	<path class="st1" d="M238.68,34.79h-8.8v7.52h-2.88v-7.52h-8.95v-2.38h20.62V34.79z M220.36,20.63h15.98v2.38h-6.38
		c0.15,0.7,0.46,1.34,0.94,1.91c0.47,0.57,1.07,1.09,1.79,1.54c0.7,0.45,1.5,0.84,2.39,1.17c0.89,0.33,1.82,0.6,2.79,0.8l-1.75,2
		c-0.7-0.17-1.42-0.38-2.17-0.65s-1.47-0.59-2.15-0.98c-0.7-0.37-1.35-0.79-1.94-1.29c-0.59-0.49-1.09-1.04-1.49-1.64
		c-0.7,1.03-1.69,1.94-2.97,2.71c-1.28,0.77-2.85,1.39-4.7,1.84l-1.92-2.05c1-0.22,1.95-0.48,2.84-0.8
		c0.89-0.32,1.69-0.69,2.39-1.12c0.72-0.45,1.31-0.96,1.79-1.53c0.47-0.57,0.8-1.21,0.96-1.92h-6.38V20.63z"/>
	<path class="st1" d="M243.38,21.31h7.2v2.35h-5.15v10.72l2.05-0.02c0.35,0,0.73-0.02,1.15-0.06c0.42-0.04,0.83-0.09,1.23-0.14
		c0.4-0.05,0.77-0.1,1.12-0.15c0.35-0.05,0.63-0.1,0.85-0.15v2.4c-0.25,0.07-0.6,0.13-1.04,0.2c-0.44,0.07-0.92,0.12-1.44,0.17
		c-0.5,0.05-1.02,0.09-1.55,0.12c-0.53,0.03-1.02,0.05-1.45,0.05c-0.17,0.02-0.41,0.03-0.74,0.03c-0.33,0-0.65,0-0.99,0
		c-0.35,0-0.77,0-1.27,0c-0.27,0-0.45-0.05-0.54-0.15c-0.09-0.1-0.14-0.28-0.14-0.55V22.01c0-0.25,0.05-0.43,0.15-0.54
		C242.93,21.36,243.11,21.31,243.38,21.31z M255.23,20.31v7.03h2.22v-7.42h2.73v22.4h-2.73v-12.2h-2.22v11.15h-2.7V20.31H255.23z"/>
	<path class="st1" d="M264.63,25.36v-2.18h13.08v2.18H264.63z M271.16,33.58c-1.87,0-3.3-0.36-4.31-1.08
		c-1.01-0.72-1.51-1.58-1.51-2.58s0.5-1.85,1.5-2.56c1-0.71,2.44-1.06,4.32-1.06c1.87,0,3.3,0.35,4.31,1.06
		c1.01,0.71,1.51,1.56,1.51,2.56s-0.51,1.86-1.52,2.58C274.44,33.23,273.01,33.58,271.16,33.58z M281.58,35.24
		c0.25,0,0.43,0.05,0.54,0.16s0.16,0.29,0.16,0.54v6.48h-2.92v-4.85h-12.27v-2.32H281.58z M267.63,19.83h6.97v2.12h-6.97V19.83z
		 M271.16,28.26c-0.88,0-1.59,0.15-2.12,0.44c-0.53,0.29-0.8,0.7-0.8,1.21c0,0.57,0.27,0.98,0.8,1.25s1.24,0.4,2.12,0.4
		c0.87,0,1.57-0.13,2.11-0.4c0.54-0.27,0.81-0.68,0.81-1.25c0-0.52-0.27-0.92-0.81-1.21C272.73,28.41,272.02,28.26,271.16,28.26z
		 M282.28,19.93v5.85h2.9v2.52h-2.9v6.03h-2.82v-14.4H282.28z"/>
	<path class="st1" d="M299.36,29.51v7.92h8.05v2.4h-20.67v-2.4h4.5v-7.92h2.85v7.92h2.4v-7.92H299.36z M304.48,21.16
		c0.25,0,0.43,0.05,0.54,0.16s0.16,0.29,0.16,0.54c-0.07,0.93-0.14,1.93-0.21,3s-0.16,2.16-0.26,3.27c-0.1,1.12-0.22,2.22-0.35,3.31
		c-0.13,1.09-0.28,2.12-0.45,3.09h-2.8c0.32-1.77,0.56-3.6,0.72-5.51c0.17-1.91,0.28-3.74,0.33-5.49h-13.25v-2.38H304.48z"/>
	<path class="st1" d="M183.66,70.66c-1.28,0-2.42-0.22-3.44-0.65c-1.01-0.43-1.88-1.03-2.58-1.78c-0.71-0.73-1.24-1.59-1.61-2.58
		c-0.37-0.99-0.55-2.05-0.55-3.16s0.18-2.17,0.55-3.15c0.36-0.98,0.9-1.85,1.61-2.6c0.71-0.73,1.56-1.31,2.56-1.74
		s2.15-0.65,3.45-0.65c1.28,0,2.42,0.22,3.44,0.65c1.01,0.43,1.86,1.01,2.55,1.74c0.71,0.75,1.25,1.62,1.62,2.6
		c0.38,0.98,0.56,2.03,0.56,3.15s-0.19,2.17-0.56,3.16c-0.38,0.99-0.92,1.85-1.62,2.58c-0.71,0.75-1.57,1.35-2.58,1.78
		C186.05,70.44,184.91,70.66,183.66,70.66z M183.66,57.63c-1.39,0-2.46,0.47-3.2,1.4c-0.74,0.94-1.11,2.09-1.11,3.45
		c0,1.35,0.38,2.5,1.13,3.45s1.81,1.44,3.18,1.44c1.37,0,2.43-0.48,3.18-1.44s1.13-2.11,1.13-3.45c0-1.37-0.38-2.52-1.13-3.45
		C186.09,58.1,185.03,57.63,183.66,57.63z M180.75,83.96c-0.36,0-0.61-0.07-0.74-0.21c-0.13-0.14-0.19-0.39-0.19-0.75v-9.3h3.9v6.98
		h17.41v3.28H180.75z M200.42,53.93v22.57h-3.83V53.93H200.42z"/>
	<path class="st1" d="M234.07,80.78h-28.28V77.5h28.28V80.78z M230.48,72.16c-1.09-0.34-2.19-0.82-3.28-1.42
		c-1.09-0.6-2.12-1.28-3.08-2.03c-0.96-0.75-1.81-1.55-2.55-2.39c-0.74-0.84-1.31-1.68-1.69-2.5c-0.96,1.82-2.31,3.45-4.07,4.89
		c-1.76,1.44-3.89,2.6-6.4,3.49l-2.7-2.91c1.57-0.46,3.04-1.07,4.39-1.83c1.36-0.76,2.52-1.64,3.5-2.62c1-1,1.79-2.1,2.36-3.28
		c0.57-1.18,0.85-2.44,0.85-3.76v-2.84H222v2.84c-0.02,1.32,0.28,2.59,0.91,3.81c0.63,1.22,1.45,2.34,2.48,3.37
		c1.03,1.03,2.2,1.92,3.52,2.68c1.32,0.76,2.68,1.33,4.07,1.69L230.48,72.16z"/>
	<path class="st1" d="M240.02,55.41h13.47v3.25h-10.6v5.81h10.23v3.25h-10.23v6.26c0.36,0,0.76,0.01,1.18,0.02
		c0.42,0.01,0.89,0.02,1.42,0.02s1.1-0.01,1.73-0.03c0.63-0.02,1.34-0.07,2.14-0.14c1.07-0.07,2.3-0.18,3.69-0.32
		c1.39-0.15,2.61-0.3,3.66-0.46v3.25c-0.96,0.14-2.09,0.29-3.39,0.44c-1.3,0.16-2.6,0.27-3.9,0.34c-1.34,0.09-2.75,0.15-4.22,0.17
		c-1.47,0.02-3.21,0.03-5.22,0.03c-0.37,0-0.61-0.07-0.74-0.21s-0.19-0.39-0.19-0.75V56.36c0-0.34,0.07-0.59,0.21-0.74
		S239.65,55.41,240.02,55.41z M257.87,84.54V53.93h3.83v11.11h4.21v3.52h-4.21v15.97H257.87z"/>
	<path class="st1" d="M292.45,56.09c0.34,0,0.59,0.07,0.74,0.22s0.22,0.39,0.22,0.74c-0.07,1.76-0.2,3.54-0.39,5.37
		c-0.19,1.82-0.44,3.61-0.74,5.37c-0.3,1.78-0.63,3.49-1.01,5.13s-0.75,3.15-1.11,4.51h6.57v3.25h-28.28v-3.25h17.78
		c0.39-1.23,0.77-2.63,1.16-4.19s0.73-3.15,1.03-4.77c0.3-1.62,0.54-3.21,0.72-4.79s0.27-3.01,0.27-4.31h-18.02v-3.28H292.45z"/>
	<path class="st1" d="M312.01,55.06c0.34,0,0.59,0.07,0.74,0.22c0.15,0.15,0.22,0.39,0.22,0.74v7.39c0,0.36-0.07,0.62-0.22,0.75
		s-0.39,0.21-0.74,0.21h-6.46v3.25h2.91c1.09,0,2.21-0.06,3.33-0.17c1.13-0.11,2.1-0.25,2.92-0.41v3.15
		c-0.41,0.07-0.92,0.14-1.52,0.21c-0.6,0.07-1.25,0.14-1.93,0.21s-1.37,0.12-2.07,0.15s-1.34,0.05-1.93,0.05h-4.55
		c-0.37,0-0.62-0.07-0.75-0.21s-0.21-0.39-0.21-0.75v-7.46c0-0.34,0.07-0.59,0.21-0.74s0.39-0.22,0.75-0.22h6.4v-3.21h-7.35v-3.15
		H312.01z M305.96,73.12h19.19c0.34,0,0.59,0.07,0.74,0.22c0.15,0.15,0.22,0.39,0.22,0.74v9.17c0,0.36-0.07,0.62-0.22,0.75
		c-0.15,0.14-0.39,0.21-0.74,0.21h-19.19c-0.37,0-0.62-0.07-0.75-0.21c-0.14-0.14-0.21-0.39-0.21-0.75v-9.17
		c0-0.34,0.07-0.59,0.21-0.74C305.34,73.19,305.59,73.12,305.96,73.12z M322.23,81.05V76.3H308.9v4.75H322.23z M319.5,54.45v5.88
		h2.84v-6.4h3.76v17.92h-3.76v-7.93h-2.84v7.93h-3.76V54.45H319.5z"/>
</g>
</svg>
