<?xml version="1.0" encoding="utf-8"?>
<!-- Generator: Adobe Illustrator 25.2.0, SVG Export Plug-In . SVG Version: 6.00 Build 0)  -->
<svg version="1.1" id="레이어_1" xmlns="http://www.w3.org/2000/svg" xmlns:xlink="http://www.w3.org/1999/xlink" x="0px"
	 y="0px" viewBox="0 0 700 6100" style="enable-background:new 0 0 700 6100;" xml:space="preserve">
<style type="text/css">
	.st0{fill:#125696;}
	.st1{fill:#3476BC;}
	.st2{fill:#4BA4DC;}
	.st3{opacity:0.3;fill:#FFFFFF;}
	.st4{opacity:0.5;fill:#FFFFFF;}
	.st5{opacity:0.2;fill:#FFFFFF;}
	.st6{fill:#FFFFFF;}
	.st7{font-family:'KoPubDotumBold';}
	.st8{font-size:30.0916px;}
	.st9{font-family:'KoPubDotumLight';}
	.st10{font-size:15.0458px;}
	.st11{fill:none;stroke:#FFFFFF;stroke-width:3;stroke-miterlimit:10;}
	.st12{font-size:30px;}
	.st13{opacity:0.9;}
	.st14{opacity:0.3;}
	.st15{opacity:0.5;}
	.st16{opacity:0.8;}
	.st17{font-size:13.63px;}
	.st18{font-size:22.9398px;}
	.st19{fill:none;stroke:#FFFFFF;stroke-miterlimit:10;}
	.st20{fill:none;stroke:#FFFFFF;stroke-width:0.3;stroke-miterlimit:10;}
	.st21{fill:#CCCCCC;}
	.st22{fill:none;}
	.st23{font-size:21px;}
	.st24{font-family:'BMYEONSUNG';}
	.st25{font-size:40.9213px;}
	.st26{font-size:19.4823px;}
	.st27{font-size:24.9149px;}
</style>
<rect y="2802" class="st0" width="700" height="1699"/>
<g>
	<polygon class="st1" points="700,695.73 700,-0.22 536.05,-0.22 536.05,636.29 	"/>
	<polygon class="st2" points="536.05,-0.22 -0.11,-0.22 -0.11,772.99 536.05,636.29 	"/>
	<polygon class="st0" points="536.05,636.29 -0.11,772.99 -0.11,904.78 700,904.78 700,695.73 	"/>
</g>
<rect y="903.46" class="st2" width="700" height="798.52"/>
<g>
	<circle class="st3" cx="133.44" cy="1350.23" r="122.44"/>
	<circle class="st4" cx="190.98" cy="1492.8" r="79.08"/>
</g>
<g>
	<circle class="st4" cx="578.27" cy="1257.97" r="92.97"/>
	<circle class="st5" cx="601.8" cy="1454.95" r="172.05"/>
</g>
<text transform="matrix(1 0 0 1 191.5193 316.9137)"><tspan x="0" y="0" class="st6 st7 st8">2021학년도 신입생</tspan><tspan x="0" y="36.11" class="st6 st7 st8">온라인 오리엔테이션</tspan></text>
<text transform="matrix(1 0 0 1 191.0789 268.1715)" class="st6 st9 st10">물결 총학생회와 함께하는</text>
<g>
	<g>
		<g>
			<path class="st6" d="M196.81,93.08c-1.49,3.55-6.24,9.49-6.24,9.49c-2.46,3.24-5.38,7.31-6.41,12.69
				c-2.17,14.89,7.07,22.55,12.74,24.72c-4.47-2.37-12.31-9.16-10.43-21.45c0.92-4.57,3.36-9.26,8.9-15.22c0,0,6.54-6.82,7.42-12.75
				c0,0,3.11-13.25-9.13-21.39C199.82,76.84,199.94,85.69,196.81,93.08"/>
			<path class="st6" d="M204.85,95.34c-1.93,4.63-7.01,9.28-7.01,9.28c-8,7.73-9.03,12.31-9.03,12.31
				c-1.84,5.54-0.95,11.61,1.95,16.29c2.67,4.22,6.6,6.67,10.51,7.61c-2.97-1.03-8.85-4.52-9.35-12.19
				c-0.34-4.6,2.24-10.43,9.69-16.3c0,0,3.59-2.76,6.67-6.77c1.98-2.75,3.61-5.98,4.21-10.09c0,0,1.02-5.22-1.38-11.78
				c-1.17-3.33-3.58-7.26-6.64-10C210.16,84.65,204.85,95.34,204.85,95.34"/>
			<path class="st6" d="M232.57,119.58V94.06h-10.11v28.45c-0.03,1.98-0.2,4.18-0.2,4.18c-0.35,3.37-1.05,4.62-1.05,4.62
				c-2.12,5.07-5.96,7.26-5.96,7.26c-10.55,7.12-21.09,1.23-21.09,1.23c13.18,7.82,26.01,0.61,26.01,0.61
				c9.03-5.23,11.49-12.36,12.16-16.19C232.33,124.23,232.57,122.58,232.57,119.58"/>
			<path class="st6" d="M192.11,138.19c0,0-5.93-3.74-8.49-11.69c0,0-2.07-6.12-0.86-12.32c0,0,0.81-4.68,3.05-8.72
				c0,0,1.6-2.86,3.52-5.33c0,0,1.75-2.4,2.98-4.66c0,0,5.26-8.4-1.21-16.79c0,0,2.63,6.81-0.8,13.15c0,0-1.62,2.77-3.37,5.4
				c0,0-3.86,5.59-4.99,9.38c0,0-2.83,6.81-0.87,15.48C181.06,122.08,182.89,133.11,192.11,138.19"/>
		</g>
		<g>
			<g>
				<polygon class="st6" points="202.63,137.66 202.63,134.49 202,134.49 202,134.05 203.26,134.05 203.26,137.66 				"/>
				<path class="st6" d="M205.89,135.16c0-0.25-0.04-0.43-0.13-0.55c-0.08-0.11-0.22-0.17-0.4-0.17c-0.17,0-0.3,0.06-0.38,0.17
					c-0.08,0.11-0.12,0.3-0.12,0.56c0,0.27,0.04,0.45,0.12,0.56c0.08,0.11,0.21,0.16,0.39,0.16c0.18,0,0.31-0.06,0.39-0.17
					C205.85,135.59,205.89,135.41,205.89,135.16 M205.78,136.1c-0.09,0.06-0.18,0.11-0.27,0.14c-0.09,0.03-0.2,0.04-0.3,0.04
					c-0.33,0-0.58-0.08-0.73-0.25c-0.15-0.17-0.22-0.45-0.22-0.85c0-0.4,0.09-0.7,0.28-0.9c0.18-0.19,0.47-0.29,0.86-0.29
					c0.38,0,0.66,0.1,0.84,0.31c0.18,0.2,0.28,0.51,0.28,0.92c0,0.33-0.08,0.66-0.23,1.01c-0.16,0.35-0.46,0.82-0.91,1.42h-0.74
					c0.32-0.4,0.56-0.72,0.73-0.94C205.52,136.49,205.66,136.29,205.78,136.1"/>
				<path class="st6" d="M207.08,137.11c0.11,0.06,0.22,0.1,0.33,0.12c0.11,0.03,0.23,0.04,0.34,0.04c0.3,0,0.53-0.07,0.67-0.22
					c0.15-0.15,0.23-0.37,0.23-0.66c0-0.22-0.08-0.39-0.23-0.5c-0.15-0.11-0.38-0.17-0.69-0.17c-0.12,0-0.23,0-0.32,0.01
					c-0.09,0.01-0.18,0.02-0.26,0.04l0.33-1.73h1.76v0.44h-1.23l-0.2,0.88c0.07-0.01,0.13-0.02,0.18-0.02c0.05,0,0.1,0,0.14,0
					c0.34,0,0.62,0.1,0.83,0.29c0.21,0.19,0.31,0.45,0.31,0.77c0,0.41-0.13,0.73-0.38,0.96c-0.25,0.23-0.61,0.34-1.07,0.34
					c-0.16,0-0.32-0.01-0.48-0.04c-0.16-0.03-0.31-0.07-0.45-0.13L207.08,137.11z"/>
				<path class="st6" d="M209.83,137.66l1.34-1.91c0.12-0.17,0.21-0.33,0.27-0.47c0.06-0.14,0.09-0.27,0.09-0.38
					c0-0.16-0.04-0.28-0.11-0.36c-0.08-0.08-0.19-0.12-0.35-0.12c-0.17,0-0.3,0.05-0.37,0.15c-0.07,0.1-0.11,0.28-0.11,0.52v0.13
					h-0.63c-0.01-0.02-0.01-0.05-0.01-0.07v-0.11c0-0.34,0.1-0.6,0.29-0.78c0.19-0.17,0.49-0.26,0.87-0.26
					c0.35,0,0.62,0.08,0.83,0.24c0.2,0.16,0.3,0.38,0.3,0.65c0,0.16-0.04,0.33-0.12,0.5c-0.08,0.18-0.21,0.38-0.39,0.62l-0.91,1.18
					h1.32v0.46H209.83z"/>
			</g>
			<g>
				<path class="st6" d="M211.41,125.84v4.34c0,0.58,0.19,1,0.59,1.26c0.39,0.26,1,0.39,1.85,0.39c0.84,0,1.46-0.13,1.85-0.39
					c0.39-0.26,0.58-0.69,0.58-1.26v-4.34h-1.23v4.41c0,0.28-0.09,0.49-0.29,0.63c-0.2,0.13-0.5,0.2-0.91,0.2
					c-0.41,0-0.71-0.07-0.91-0.2c-0.2-0.14-0.3-0.35-0.3-0.63v-4.41H211.41z"/>
				<path class="st6" d="M198.8,131.85c0.66,0,1.14-0.13,1.46-0.4c0.32-0.26,0.47-0.67,0.47-1.22v-4.4h-1.25v4.42
					c0,0.29-0.07,0.5-0.22,0.63c-0.15,0.13-0.38,0.2-0.69,0.2c-0.17,0-0.35-0.03-0.53-0.08c-0.18-0.05-0.37-0.13-0.57-0.25v0.82
					c0.21,0.09,0.43,0.16,0.64,0.2C198.34,131.83,198.57,131.85,198.8,131.85"/>
				<polygon class="st6" points="205.84,126.55 205.84,125.84 202.14,125.84 202.14,131.76 205.84,131.76 205.84,131.02 
					203.39,131.02 203.39,129.02 205.63,129.02 205.63,128.31 203.39,128.31 203.39,126.55 				"/>
				<path class="st6" d="M209.54,131.45c0.32-0.26,0.47-0.67,0.47-1.22v-4.4h-1.24v4.42c0,0.29-0.08,0.5-0.22,0.63
					c-0.15,0.13-0.38,0.2-0.69,0.2c-0.17,0-0.35-0.03-0.53-0.08c-0.18-0.05-0.37-0.13-0.57-0.25v0.82c0.22,0.09,0.43,0.16,0.65,0.2
					c0.22,0.04,0.44,0.07,0.68,0.07C208.74,131.85,209.23,131.71,209.54,131.45"/>
			</g>
			<g>
				<path class="st6" d="M207.58,123.93c0.65-0.05,1.08-0.36,1.08-0.36l6.27,0.44v-8.09l-0.65-0.04l0.29,0.46v7.33l-6.03-0.39
					c-0.28,0.19-0.63,0.33-1.05,0.35c-0.42-0.02-0.77-0.16-1.05-0.35l-6.03,0.39v-7.33l0.29-0.46l-0.65,0.04v8.09l6.27-0.44
					c0,0,0.42,0.31,1.07,0.36C207.38,123.93,207.52,123.94,207.58,123.93z"/>
				<g>
					<path class="st6" d="M201.37,115.41c-0.14,0.22-0.62,0.98-0.63,1c0,0.03,0,6.23,0,6.57c0.14-0.23,0.62-1.04,0.63-1.06
						C201.37,121.9,201.37,115.74,201.37,115.41z"/>
					<path class="st6" d="M206.5,122.93l0.02,0.02c0.14,0.15,0.39,0.26,0.71,0.33c-0.08-0.47-0.31-0.83-0.7-1.04
						c-0.42-0.23-1.09-0.34-1.98-0.34c-0.41,0-0.86,0.03-1.36,0.07c-0.49,0.05-1,0.12-1.53,0.22c-0.02,0.04-0.58,0.97-0.66,1.11
						C201.18,123.28,206.5,122.93,206.5,122.93z"/>
					<path class="st6" d="M214.23,116.41c-0.01-0.02-0.49-0.78-0.63-1c0,0.33,0,6.49,0,6.52c0.01,0.02,0.49,0.82,0.63,1.06
						C214.23,122.64,214.23,116.44,214.23,116.41z"/>
					<path class="st6" d="M208.43,122.24c-0.39,0.21-0.62,0.57-0.7,1.04c0.32-0.07,0.57-0.18,0.72-0.33l0.02-0.02
						c0,0,5.33,0.35,5.51,0.36c-0.09-0.14-0.64-1.07-0.66-1.11c-0.53-0.09-1.04-0.17-1.53-0.22c-0.5-0.05-0.95-0.07-1.36-0.07
						C209.52,121.9,208.85,122.01,208.43,122.24z"/>
				</g>
				<path class="st6" d="M211.77,114.72c-0.48-0.05-0.95-0.08-1.41-0.08l-0.63,0.03l-0.48,0.07c-0.35,0.08-0.65,0.19-0.87,0.34
					l-0.07,0.05c0,0-0.03,0.02-0.03,0.02c-0.25,0.18-0.46,0.39-0.61,0.65v6.6c0.09-0.12,0.2-0.23,0.33-0.32
					c0.41-0.25,0.94-0.42,1.59-0.5c0,0,0.01,0,0.03,0l0.03,0c0.35-0.04,0.75-0.05,1.17-0.04l0.87,0.06
					c0.44,0.04,0.95,0.11,1.52,0.19v-6.83C212.72,114.85,212.23,114.77,211.77,114.72z M212.4,116.18c0,0-0.44,1.28-1.84,1.78
					c0,0,0.24,0.06,0.8,0.72c0,0,0.27,0.37,0.73,0.61c0,0-0.79,1.56-0.87,1.74c0,0-0.57-0.43-0.97-1.54c0,0-0.06-0.14-0.27-0.14
					c0,0-0.63,0.07-0.88,0.09c0,0-0.14,0.09-0.25,0l-0.09-0.1c0,0-0.02,0.01-0.06-0.03c0,0-0.09-0.06-0.09-0.15
					c0,0-0.01-0.08,0.05-0.13c0,0,1.05-0.72,1.24-0.98c0,0-0.01,0.04,0.05-0.11c0,0-0.31-0.08-0.5-0.21c0,0-0.22-0.15-0.22-0.35
					l0.05,0c0,0,0,0.24,0.45,0.38c0,0-0.11-0.15-0.15-0.33c0,0,0.04-0.01,0.06-0.01c0,0,0.13,0.38,0.35,0.39
					c0,0,0.43-0.26,0.46-0.56c0,0-0.18-0.11-0.25-0.56l0.06-0.03c0,0,0.07,0.42,0.28,0.41c0,0,0.19,0,0.31-0.36
					c0,0,0.1-0.25,0.09-0.59c0,0-0.01-0.12-0.04-0.29l0.04-0.07c0,0,0.04,0.11,0.06,0.22c0,0,0.01-0.21,0.17-0.43l0.04,0.02
					c0,0-0.1,0.11-0.1,0.48c0,0,0.01,0.34-0.14,0.76c0,0-0.3,0.73-0.71,1.06c0,0,0.68-0.28,0.87-0.43c0,0,0.26-0.16,0.29-0.71h0.07
					c0,0,0.04,0.11-0.01,0.45c0,0,0.46-0.21,0.79-0.97c0,0,0.07-0.2-0.02-0.39l0.03-0.04c0,0,0.1,0.18,0.09,0.27
					c0,0,0.1-0.22,0.3-0.27l0.02,0.04C212.69,115.81,212.48,115.94,212.4,116.18z"/>
				<path class="st6" d="M206.67,115.15l-0.03-0.02c0,0-0.07-0.05-0.07-0.05c-0.23-0.15-0.52-0.26-0.87-0.34l-0.48-0.07l-0.62-0.03
					c-0.46,0-0.93,0.03-1.41,0.08c-0.47,0.05-0.95,0.13-1.44,0.23v6.83c0.57-0.09,1.08-0.15,1.52-0.19c0,0,0.87-0.06,0.87-0.06
					c0.42-0.01,0.82,0,1.17,0.04l0.04,0c0,0,0.01,0,0.03,0c0.64,0.08,1.17,0.24,1.58,0.5c0.13,0.09,0.24,0.2,0.33,0.32v-6.6
					C207.13,115.54,206.93,115.33,206.67,115.15z M205.8,120.66h-2.44c0.37-1.04-0.38-2.93-0.38-2.93c0.51-0.58,1.16-1.43,1.45-1.81
					v2.29c-0.14,0.06-0.24,0.2-0.24,0.36c0,0.21,0.17,0.39,0.38,0.39c0.21,0,0.38-0.17,0.38-0.39c0-0.16-0.1-0.3-0.24-0.36v-2.31
					c0.28,0.37,0.94,1.24,1.46,1.83C206.18,117.73,205.43,119.62,205.8,120.66z"/>
			</g>
		</g>
	</g>
	<g>
		<path class="st6" d="M217.57,156.69c0,2.07,2.14,3.75,4.78,3.75c2.64,0,4.78-1.68,4.78-3.75c0-1.04-0.54-1.99-1.42-2.67h1.82
			v-1.47h-3.71v-1.69h-2.93v1.69h-3.71v1.47h1.81C218.12,154.71,217.57,155.65,217.57,156.69z M222.35,154.33
			c1.12,0,2.03,1.06,2.03,2.36c0,1.31-0.91,2.37-2.03,2.37c-1.12,0-2.03-1.06-2.03-2.37C220.32,155.39,221.23,154.33,222.35,154.33z
			 M218.12,174.94h0.86v-3.03l1.79,3.03h0.85v-4.33h-0.86v3.01l-1.8-3.01h-0.84V174.94z M204.17,174.09h1.54l0.32,0.85h0.92
			l-1.58-4.33h-0.86l-1.58,4.33h0.92L204.17,174.09z M204.94,171.74l0.61,1.87h-1.22L204.94,171.74z M200.51,161.91
			c0.36,0.31,0.85,0.47,1.46,0.47h3.89c0.53,0,0.98-0.05,1.35-0.17c0.37-0.11,0.7-0.22,1.16-0.4v5.76h2.75v-10.32h1.29v10.32h2.75
			v-16.26h-2.75v4.42h-1.29v-4.42h-2.75v9.13c-0.23,0.09-0.77,0.24-1.12,0.31c-0.36,0.07-0.79,0.11-1.29,0.11h-3.14v-7.44h4.14
			v-1.51h-6.99v8.73C199.98,161.17,200.15,161.59,200.51,161.91z M232.07,156.8h2.36v-1.51h-2.36v-4h-2.9v9.64h2.9V156.8z
			 M172.58,170.61v3.17c0,0.42,0.14,0.72,0.43,0.92c0.28,0.19,0.74,0.29,1.35,0.29c0.61,0,1.07-0.1,1.35-0.29
			c0.28-0.2,0.42-0.5,0.42-0.92v-3.17h-0.9v3.22c0,0.21-0.07,0.36-0.21,0.46c-0.14,0.1-0.36,0.15-0.66,0.15
			c-0.3,0-0.52-0.05-0.66-0.15c-0.15-0.1-0.22-0.25-0.22-0.46v-3.22H172.58z M213.31,170.61v3.17c0,0.42,0.14,0.72,0.43,0.92
			c0.29,0.19,0.73,0.29,1.35,0.29c0.61,0,1.06-0.1,1.35-0.29c0.29-0.2,0.43-0.5,0.43-0.92v-3.17h-0.9v3.22
			c0,0.21-0.08,0.36-0.21,0.46c-0.14,0.1-0.37,0.15-0.66,0.15c-0.3,0-0.52-0.05-0.67-0.15c-0.15-0.1-0.21-0.25-0.21-0.46v-3.22
			H213.31z M248.93,170.61l-0.57,1.21c-0.05,0.11-0.09,0.22-0.13,0.33c-0.04,0.11-0.07,0.24-0.1,0.36c-0.04-0.15-0.08-0.28-0.12-0.4
			c-0.04-0.12-0.08-0.22-0.12-0.3l-0.56-1.21h-0.94l1.27,2.49v1.84h0.94v-1.84l1.29-2.49H248.93z M207.74,170.61v4.33h2.86v-0.54
			h-1.96v-3.79H207.74z M250.75,165.23h-6.11v-6.57h-2.79v6.57h-1.44v-6.57h-2.8v6.57h-2.73v1.49h15.86V165.23z M246.17,158.42
			c0,1.22-0.04,2.22-0.12,3c-0.08,0.79-0.31,1.46-0.68,2.02h2.56c0.34-0.51,0.61-1.17,0.8-1.99c0.19-0.81,0.29-1.76,0.29-2.85v-6.6
			H236.2v1.51h9.98V158.42z M234.05,170.61h-1.09v4.33h0.91v-2.12h0.02l1.55,2.12h0.98l-1.61-2.13c0.43-0.03,0.75-0.14,0.96-0.32
			c0.21-0.18,0.32-0.43,0.32-0.75c0-0.41-0.16-0.7-0.47-0.87C235.3,170.7,234.78,170.61,234.05,170.61z M234.93,172.32
			c-0.16,0.11-0.42,0.17-0.79,0.17h-0.27v-1.37h0.25c0.4,0,0.68,0.05,0.83,0.13c0.15,0.09,0.22,0.25,0.22,0.48
			C235.16,172.02,235.08,172.22,234.93,172.32z M244.85,174.94v-3.78h1.25v-0.54h-3.43v0.54h1.25v3.78H244.85z M238.79,174.27
			c-0.16,0.1-0.38,0.16-0.66,0.16c-0.16,0-0.33-0.02-0.51-0.06c-0.19-0.04-0.38-0.1-0.6-0.19v0.59c0.2,0.07,0.41,0.13,0.6,0.16
			c0.19,0.03,0.39,0.05,0.58,0.05c0.51,0,0.93-0.11,1.26-0.32c0.33-0.21,0.5-0.49,0.5-0.82c0-0.24-0.08-0.45-0.24-0.63
			c-0.16-0.19-0.43-0.38-0.82-0.58c-0.03-0.02-0.08-0.04-0.14-0.07c-0.66-0.34-1-0.64-1-0.89c0-0.18,0.09-0.32,0.26-0.43
			c0.17-0.11,0.4-0.16,0.69-0.16c0.16,0,0.33,0.02,0.5,0.06c0.17,0.04,0.34,0.1,0.51,0.18v-0.58c-0.19-0.07-0.38-0.12-0.58-0.15
			c-0.19-0.03-0.4-0.05-0.6-0.05c-0.48,0-0.88,0.11-1.2,0.32c-0.33,0.22-0.49,0.49-0.49,0.82c0,0.23,0.08,0.43,0.24,0.61
			c0.16,0.18,0.44,0.38,0.84,0.59c0.03,0.02,0.09,0.05,0.17,0.09c0.62,0.33,0.93,0.62,0.93,0.87
			C239.03,174.03,238.95,174.17,238.79,174.27z M240.94,170.61v4.33h0.91v-4.33H240.94z M189.59,174.94v-3.78h1.25v-0.54h-3.43v0.54
			h1.26v3.78H189.59z M231.88,171.14v-0.52h-2.7v4.33h2.7v-0.54h-1.79v-1.46h1.64v-0.51h-1.64v-1.29H231.88z M223.84,170.61h-0.91
			v4.33h0.91V170.61z M225.59,170.61h-0.93l1.48,4.33h0.77l1.48-4.33h-0.92l-0.95,2.94L225.59,170.61z M232.07,161.64h-13.26v1.49
			h10.37v4.41h2.9V161.64z M164.86,159.59c-0.7,1.09-1.59,1.77-2.68,2.03l1.33,1.02c0.83-0.11,1.64-0.5,2.43-1.16
			c0.79-0.67,1.26-1.35,1.4-2.02c0.16,0.68,0.63,1.35,1.41,2.02c0.78,0.67,1.58,1.05,2.4,1.16l1.29-0.99v5.92h2.73v-16.26h-2.73
			v4.45h-2.39v1.51h2.39v4.17c-1.04-0.27-1.92-0.78-2.62-1.86c-0.7-1.09-1.06-2.39-1.06-3.91v-2.33h2.35v-1.49h-7.74v1.49h2.54v2.33
			C165.91,157.2,165.55,158.5,164.86,159.59z M179.33,170.61v4.33h0.86v-3.03l1.79,3.03h0.85v-4.33h-0.86v3.01l-1.8-3.01H179.33z
			 M163.2,175c0.48,0,0.83-0.09,1.06-0.29c0.23-0.19,0.35-0.49,0.35-0.89v-3.21h-0.91v3.22c0,0.21-0.05,0.37-0.16,0.46
			c-0.11,0.1-0.28,0.15-0.51,0.15c-0.13,0-0.26-0.02-0.39-0.06c-0.13-0.04-0.26-0.1-0.41-0.18v0.6c0.15,0.07,0.31,0.11,0.47,0.15
			C162.86,174.98,163.02,175,163.2,175z M179.04,151.31h-2.73v16.26h2.73V151.31z M168.56,171.14v-0.52h-2.7v4.33h2.7v-0.54h-1.79
			v-1.46h1.63v-0.51h-1.63v-1.29H168.56z M186.09,156.45c-1.37,0.9-2.79,1.35-4.29,1.36l1.14,1.14c1.23,0,2.75-0.28,4.08-0.82
			c1.33-0.55,2.19-1.22,2.59-2.01c0.41,0.78,1.28,1.44,2.61,2c1.33,0.56,2.84,0.83,4.05,0.83l1.14-1.14
			c-1.48-0.01-2.9-0.47-4.28-1.36c-1.38-0.9-2.06-1.94-2.06-3.13v-0.1h5.12v-1.51h-13.16v1.51h5.11v0.1
			C188.14,154.51,187.45,155.55,186.09,156.45z M197.09,174.48c0.3-0.34,0.45-0.91,0.45-1.7c0-0.8-0.15-1.36-0.45-1.71
			c-0.3-0.34-0.79-0.52-1.47-0.52c-0.68,0-1.17,0.17-1.47,0.52c-0.3,0.35-0.45,0.92-0.45,1.71c0,0.79,0.15,1.36,0.45,1.7
			c0.3,0.34,0.79,0.51,1.47,0.51C196.3,174.99,196.79,174.82,197.09,174.48z M194.85,174.06c-0.16-0.25-0.24-0.68-0.24-1.3
			c0-0.62,0.08-1.05,0.23-1.29c0.15-0.25,0.41-0.37,0.77-0.37c0.36,0,0.62,0.12,0.77,0.37c0.15,0.24,0.23,0.68,0.23,1.3
			c0,0.64-0.07,1.08-0.22,1.31c-0.15,0.24-0.4,0.36-0.76,0.36C195.27,174.44,195.01,174.31,194.85,174.06z M201.3,174.94h0.85v-4.33
			h-0.86v3.01l-1.79-3.01h-0.84v4.33h0.86v-3.03L201.3,174.94z M183.61,174.94h0.92l0.31-0.85h1.54l0.32,0.85h0.92l-1.58-4.33h-0.86
			L183.61,174.94z M186.23,173.61h-1.22l0.61-1.87L186.23,173.61z M191.65,170.61v4.33h0.91v-4.33H191.65z M188.16,167.57h2.9v-5.64
			h6.86v-1.49h-16.64v1.49h6.88V167.57z M170.99,174.71c0.23-0.19,0.34-0.49,0.34-0.89v-3.21h-0.91v3.22c0,0.21-0.05,0.37-0.16,0.46
			c-0.11,0.1-0.27,0.15-0.51,0.15c-0.12,0-0.25-0.02-0.38-0.06c-0.13-0.04-0.27-0.1-0.41-0.18v0.6c0.15,0.07,0.31,0.11,0.47,0.15
			c0.16,0.03,0.32,0.05,0.5,0.05C170.4,175,170.76,174.91,170.99,174.71z"/>
	</g>
</g>
<rect x="167.83" y="243" class="st11" width="284.76" height="130.95"/>
<text transform="matrix(1 0 0 1 267.1707 969.5107)" class="st6 st7 st12">제대랑 제대로</text>
<rect y="1702" class="st1" width="700" height="1100"/>
<g class="st13">
	<path class="st6" d="M-31.04,2232.07c-7.79,6.11-16.5,8.13-19.36,4.48c-2.86-3.65,1.17-11.63,8.96-17.74l219.35-172.15
		c7.79-6.11,16.5-8.13,19.36-4.48s-1.17,11.63-8.96,17.74L-31.04,2232.07z"/>
</g>
<g>
	<path class="st6" d="M163.17,2193.5c-7.79,6.11-16.3,8.39-18.91,5.06s1.62-11.06,9.41-17.17l166.27-130.49
		c7.79-6.11,16.3-8.39,18.91-5.06c2.61,3.33-1.62,11.06-9.41,17.17L163.17,2193.5z"/>
</g>
<g class="st14">
	<path class="st6" d="M-30.82,2098.56c-7.79,6.11-16.3,8.39-18.91,5.06c-2.61-3.33,1.62-11.06,9.41-17.17l166.27-130.49
		c7.79-6.11,16.3-8.39,18.91-5.06c2.61,3.33-1.62,11.06-9.41,17.17L-30.82,2098.56z"/>
</g>
<circle class="st4" cx="172.05" cy="1929.31" r="8.21"/>
<g class="st14">
	<path class="st6" d="M221.16,1900.98c-7.79,6.11-16.3,8.39-18.91,5.06c-2.61-3.33,1.62-11.06,9.41-17.17l166.27-130.49
		c7.79-6.11,16.3-8.39,18.91-5.06c2.61,3.33-1.62,11.06-9.41,17.17L221.16,1900.98z"/>
</g>
<g class="st15">
	<path class="st6" d="M253.5,2008.75c-7.79,6.11-16.3,8.39-18.91,5.06c-2.61-3.33,1.62-11.06,9.41-17.17l166.27-130.49
		c7.79-6.11,16.3-8.39,18.91-5.06c2.61,3.33-1.62,11.06-9.41,17.17L253.5,2008.75z"/>
</g>
<g class="st14">
	<path class="st6" d="M390.3,2263.89c-7.79,6.11-16.5,8.13-19.36,4.48c-2.86-3.65,1.17-11.63,8.96-17.74l219.35-172.15
		c7.79-6.11,16.5-8.13,19.36-4.48c2.86,3.65-1.17,11.63-8.96,17.74L390.3,2263.89z"/>
</g>
<g>
	<path class="st6" d="M584.51,2225.32c-7.79,6.11-16.3,8.39-18.91,5.06c-2.61-3.33,1.62-11.06,9.41-17.17l166.27-130.49
		c7.79-6.11,16.3-8.39,18.91-5.06c2.61,3.33-1.62,11.06-9.41,17.17L584.51,2225.32z"/>
</g>
<g class="st15">
	<path class="st6" d="M390.52,2130.38c-7.79,6.11-16.3,8.39-18.91,5.06c-2.61-3.33,1.62-11.06,9.41-17.17l166.27-130.49
		c7.79-6.11,16.3-8.39,18.91-5.06c2.61,3.33-1.62,11.06-9.41,17.17L390.52,2130.38z"/>
</g>
<circle class="st6" cx="593.39" cy="1961.13" r="8.21"/>
<g class="st15">
	<path class="st6" d="M642.5,1932.8c-7.79,6.11-16.3,8.39-18.91,5.06c-2.61-3.33,1.62-11.06,9.41-17.17l166.27-130.49
		c7.79-6.11,16.3-8.39,18.91-5.06c2.61,3.33-1.62,11.06-9.41,17.17L642.5,1932.8z"/>
</g>
<g class="st16">
	<path class="st6" d="M674.83,2040.57c-7.79,6.11-16.3,8.39-18.91,5.06s1.62-11.06,9.41-17.17l166.27-130.49
		c7.79-6.11,16.3-8.39,18.91-5.06c2.61,3.33-1.62,11.06-9.41,17.17L674.83,2040.57z"/>
</g>
<circle class="st4" cx="374.26" cy="2018.1" r="8.21"/>
<circle class="st4" cx="412.75" cy="1987.82" r="8.21"/>
<g class="st14">
	<path class="st6" d="M461.43,1960.36c-7.79,6.11-16.5,8.13-19.36,4.48s1.17-11.63,8.96-17.74l219.35-172.15
		c7.79-6.11,16.5-8.13,19.36-4.48c2.86,3.65-1.17,11.63-8.96,17.74L461.43,1960.36z"/>
</g>
<text transform="matrix(1 0 0 1 197.7759 1787.3242)" class="st6 st7 st12">학사 가이드 다운로드 (PDF)</text>
<g class="st13">
	<path class="st6" d="M-131.8,2741.36c-7.79,6.11-16.5,8.13-19.36,4.48c-2.86-3.65,1.17-11.63,8.96-17.74l219.35-172.15
		c7.79-6.11,16.5-8.13,19.36-4.48c2.86,3.65-1.17,11.63-8.96,17.74L-131.8,2741.36z"/>
</g>
<g>
	<path class="st6" d="M62.41,2702.8c-7.79,6.11-16.3,8.39-18.91,5.06s1.62-11.06,9.41-17.17l166.27-130.49
		c7.79-6.11,16.3-8.39,18.91-5.06c2.61,3.33-1.62,11.06-9.41,17.17L62.41,2702.8z"/>
</g>
<g class="st14">
	<path class="st6" d="M-131.58,2557.85c-7.79,6.11-16.3,8.39-18.91,5.06c-2.61-3.33,1.62-11.06,9.41-17.17l166.27-130.49
		c7.79-6.11,16.3-8.39,18.91-5.06c2.61,3.33-1.62,11.06-9.41,17.17L-131.58,2557.85z"/>
</g>
<circle class="st4" cx="71.29" cy="2438.61" r="8.21"/>
<g class="st14">
	<path class="st6" d="M120.4,2410.27c-7.79,6.11-16.3,8.39-18.91,5.06c-2.61-3.33,1.62-11.06,9.41-17.17l166.27-130.49
		c7.79-6.11,16.3-8.39,18.91-5.06c2.61,3.33-1.62,11.06-9.41,17.17L120.4,2410.27z"/>
</g>
<g class="st15">
	<path class="st6" d="M152.73,2518.04c-7.79,6.11-16.3,8.39-18.91,5.06c-2.61-3.33,1.62-11.06,9.41-17.17l166.27-130.49
		c7.79-6.11,16.3-8.39,18.91-5.06c2.61,3.33-1.62,11.06-9.41,17.17L152.73,2518.04z"/>
</g>
<g class="st14">
	<path class="st6" d="M289.53,2773.18c-7.79,6.11-16.5,8.13-19.36,4.48c-2.86-3.65,1.17-11.63,8.96-17.74l219.35-172.15
		c7.79-6.11,16.5-8.13,19.36-4.48c2.86,3.65-1.17,11.63-8.96,17.74L289.53,2773.18z"/>
</g>
<g>
	<path class="st6" d="M483.74,2734.62c-7.79,6.11-16.3,8.39-18.91,5.06c-2.61-3.33,1.62-11.06,9.41-17.17l166.27-130.49
		c7.79-6.11,16.3-8.39,18.91-5.06c2.61,3.33-1.62,11.06-9.41,17.17L483.74,2734.62z"/>
</g>
<g class="st15">
	<path class="st6" d="M289.75,2639.67c-7.79,6.11-16.3,8.39-18.91,5.06c-2.61-3.33,1.62-11.06,9.41-17.17l166.27-130.49
		c7.79-6.11,16.3-8.39,18.91-5.06c2.61,3.33-1.62,11.06-9.41,17.17L289.75,2639.67z"/>
</g>
<circle class="st6" cx="492.63" cy="2470.43" r="8.21"/>
<g class="st15">
	<path class="st6" d="M541.73,2442.09c-7.79,6.11-16.3,8.39-18.91,5.06c-2.61-3.33,1.62-11.06,9.41-17.17l166.27-130.49
		c7.79-6.11,16.3-8.39,18.91-5.06c2.61,3.33-1.62,11.06-9.41,17.17L541.73,2442.09z"/>
</g>
<g class="st16">
	<path class="st6" d="M574.07,2549.86c-7.79,6.11-16.3,8.39-18.91,5.06c-2.61-3.33,1.62-11.06,9.41-17.17l166.27-130.49
		c7.79-6.11,16.3-8.39,18.91-5.06c2.61,3.33-1.62,11.06-9.41,17.17L574.07,2549.86z"/>
</g>
<circle class="st4" cx="273.49" cy="2527.39" r="8.21"/>
<circle class="st4" cx="311.98" cy="2497.11" r="8.21"/>
<g class="st14">
	<path class="st6" d="M360.66,2469.65c-7.79,6.11-16.5,8.13-19.36,4.48c-2.86-3.65,1.17-11.63,8.96-17.74l219.35-172.15
		c7.79-6.11,16.5-8.13,19.36-4.48c2.86,3.65-1.17,11.63-8.96,17.74L360.66,2469.65z"/>
</g>
<circle class="st6" cx="259.33" cy="2020.99" r="84.99"/>
<circle class="st6" cx="440.91" cy="2208.95" r="84.99"/>
<circle class="st6" cx="258.93" cy="2409.94" r="84.99"/>
<circle class="st6" cx="440.9" cy="2602.91" r="84.99"/>
<text transform="matrix(1 0 0 1 236.6155 2925.4648)" class="st6 st7 st12">제대로 된 대학생활</text>
<g>
	<text transform="matrix(1 0 0 1 268.0913 2992.2412)"><tspan x="0" y="0" class="st6 st9 st17">알고 즐기면 더 재밌는 대학생활,</tspan><tspan x="-15.85" y="16.36" class="st6 st9 st17">물결의 경험을 차근차근 풀어냈습니다!</tspan></text>
	<text transform="matrix(1 0 0 1 240.7798 2996.8262)" class="st6 st9 st18">“</text>
	<text transform="matrix(1 0 0 1 469.2109 3010.7832)" class="st6 st9 st18">”</text>
</g>
<line class="st19" x1="202.5" y1="2951.39" x2="514.94" y2="2951.39"/>
<line class="st19" x1="698" y1="2876.36" x2="517.5" y2="2950.5"/>
<circle class="st19" cx="516.7" cy="2951.39" r="1.4"/>
<circle class="st19" cx="201.38" cy="2951.39" r="1.4"/>
<g>
	<line class="st20" x1="-74.81" y1="3379.09" x2="24.93" y2="3279.35"/>
	<circle class="st20" cx="25.43" cy="3278.86" r="0.99"/>
	<circle class="st20" cx="125.91" cy="3278.86" r="0.99"/>
	<line class="st20" x1="26.42" y1="3278.86" x2="124.91" y2="3278.86"/>
	<line class="st20" x1="127.15" y1="3278.86" x2="238.33" y2="3327.11"/>
	<circle class="st20" cx="239.32" cy="3327.6" r="0.99"/>
	<line class="st20" x1="240.32" y1="3327.6" x2="358.7" y2="3300.24"/>
	<circle class="st20" cx="359.7" cy="3299.75" r="0.99"/>
	<line class="st20" x1="360.44" y1="3300" x2="555.44" y2="3357.2"/>
	<circle class="st20" cx="556.18" cy="3357.45" r="0.99"/>
	<line class="st20" x1="556.93" y1="3356.7" x2="657.41" y2="3308.95"/>
	<circle class="st20" cx="658.16" cy="3308.7" r="0.99"/>
	<line class="st20" x1="658.9" y1="3308.95" x2="845.44" y2="3358.69"/>
	<circle class="st20" cx="846.18" cy="3358.94" r="0.99"/>
	<line class="st20" x1="847.18" y1="3358.44" x2="880.26" y2="3343.77"/>
</g>
<g>
	<line class="st20" x1="880.19" y1="3680.43" x2="780.46" y2="3580.7"/>
	<circle class="st20" cx="779.96" cy="3580.2" r="0.99"/>
	<circle class="st20" cx="679.48" cy="3580.2" r="0.99"/>
	<line class="st20" x1="778.96" y1="3580.2" x2="680.47" y2="3580.2"/>
	<line class="st20" x1="678.23" y1="3580.2" x2="567.06" y2="3628.45"/>
	<circle class="st20" cx="566.06" cy="3628.95" r="0.99"/>
	<line class="st20" x1="565.07" y1="3628.95" x2="446.68" y2="3601.59"/>
	<circle class="st20" cx="445.69" cy="3601.09" r="0.99"/>
	<line class="st20" x1="444.94" y1="3601.34" x2="249.95" y2="3658.54"/>
	<circle class="st20" cx="249.2" cy="3658.79" r="0.99"/>
	<line class="st20" x1="248.45" y1="3658.05" x2="147.97" y2="3610.29"/>
	<circle class="st20" cx="147.23" cy="3610.05" r="0.99"/>
	<line class="st20" x1="146.48" y1="3610.29" x2="-40.05" y2="3660.04"/>
	<circle class="st20" cx="-40.8" cy="3660.29" r="0.99"/>
	<line class="st20" x1="-41.8" y1="3659.79" x2="-74.88" y2="3645.11"/>
</g>
<g>
	<line class="st20" x1="766.65" y1="3967.97" x2="666.92" y2="3868.24"/>
	<circle class="st20" cx="666.42" cy="3867.74" r="0.99"/>
	<circle class="st20" cx="565.94" cy="3867.74" r="0.99"/>
	<line class="st20" x1="665.42" y1="3867.74" x2="566.93" y2="3867.74"/>
	<line class="st20" x1="564.69" y1="3867.74" x2="453.52" y2="3915.99"/>
	<circle class="st20" cx="452.52" cy="3916.49" r="0.99"/>
	<line class="st20" x1="451.53" y1="3916.49" x2="333.14" y2="3889.13"/>
	<circle class="st20" cx="332.14" cy="3888.63" r="0.99"/>
	<line class="st20" x1="331.4" y1="3888.88" x2="136.41" y2="3946.09"/>
	<circle class="st20" cx="135.66" cy="3946.34" r="0.99"/>
	<line class="st20" x1="134.91" y1="3945.59" x2="34.43" y2="3897.84"/>
	<circle class="st20" cx="33.69" cy="3897.59" r="0.99"/>
	<line class="st20" x1="32.94" y1="3897.84" x2="-153.6" y2="3947.58"/>
	<circle class="st20" cx="-154.34" cy="3947.83" r="0.99"/>
	<line class="st20" x1="-155.34" y1="3947.33" x2="-188.42" y2="3932.66"/>
</g>
<g>
	<line class="st20" x1="-48.07" y1="4240.57" x2="51.67" y2="4140.83"/>
	<circle class="st20" cx="52.17" cy="4140.33" r="0.99"/>
	<circle class="st20" cx="152.65" cy="4140.33" r="0.99"/>
	<line class="st20" x1="53.16" y1="4140.33" x2="151.65" y2="4140.33"/>
	<line class="st20" x1="153.89" y1="4140.33" x2="265.07" y2="4188.58"/>
	<circle class="st20" cx="266.06" cy="4189.08" r="0.99"/>
	<line class="st20" x1="267.06" y1="4189.08" x2="385.44" y2="4161.72"/>
	<circle class="st20" cx="386.44" cy="4161.23" r="0.99"/>
	<line class="st20" x1="387.19" y1="4161.47" x2="582.18" y2="4218.68"/>
	<circle class="st20" cx="582.92" cy="4218.93" r="0.99"/>
	<line class="st20" x1="583.67" y1="4218.18" x2="684.15" y2="4170.43"/>
	<circle class="st20" cx="684.9" cy="4170.18" r="0.99"/>
	<line class="st20" x1="685.64" y1="4170.43" x2="872.18" y2="4220.17"/>
	<circle class="st20" cx="872.93" cy="4220.42" r="0.99"/>
	<line class="st20" x1="873.92" y1="4219.92" x2="907" y2="4205.25"/>
</g>
<rect y="5601" class="st21" width="701" height="499"/>
<rect id="_x3C_분할_영역_x3E_" x="141" y="-86" class="st22" width="416" height="5106"/>
<text transform="matrix(1 0 0 1 264.5518 1399.7446)"><tspan x="0" y="0" class="st6 st7 st23">여러분의 대학생활이</tspan><tspan x="6.11" y="42" class="st6 st7 st23">더 기대되길 바라며</tspan><tspan x="-18.29" y="84" class="st6 st7 st23">‘제대’랑 제대로 함께하는</tspan><tspan x="-24.51" y="126" class="st6 st7 st23">즐거운 영상을 담았습니다.</tspan><tspan x="-12.2" y="210" class="st6 st7 st23">신입생 여러분의 입학을</tspan><tspan x="-12.31" y="252" class="st6 st7 st23">진심으로 축하드립니다!</tspan></text>
<rect x="0" y="4501" class="st1" width="701" height="1100"/>
<g class="st14">
	<path class="st6" d="M137.61,4970.39c-0.43-3.88-7.84-7.71-16.45-4.32c-29.87-5.46-59.75,20.25-89.62,13.9
		c-8.78,2.72-15.62,4.48-15.19,8.39c0.43,3.96,8.62,14.6,17.24,10.97c29.88,4.92,59.75-20.78,89.62-13.86
		C131.99,4983,138.04,4974.34,137.61,4970.39z"/>
</g>
<g class="st14">
	<path class="st6" d="M-5.28,5081.18c-0.43-3.88-7.83-7.71-16.45-4.32c-29.87-5.46-59.75,20.25-89.62,13.9
		c-8.79,2.72-15.62,4.48-15.19,8.39c0.43,3.96,8.62,14.61,17.24,10.97c29.88,4.92,59.75-20.78,89.62-13.86
		C-10.9,5093.79-4.84,5085.13-5.28,5081.18z"/>
</g>
<g class="st14">
	<path class="st6" d="M95.94,5165.62c-0.43-3.88-7.83-7.71-16.45-4.32c-29.87-5.46-59.75,20.25-89.62,13.9
		c-8.79,2.72-15.62,4.48-15.19,8.39c0.43,3.96,8.62,14.61,17.24,10.97c29.87,4.92,59.75-20.78,89.62-13.86
		C90.32,5178.23,96.37,5169.56,95.94,5165.62z"/>
</g>
<g class="st14">
	<path class="st6" d="M301.09,4821.91c-0.43-3.88-7.84-7.72-16.45-4.32c-29.87-5.46-59.75,20.25-89.62,13.9
		c-8.79,2.73-15.62,4.48-15.19,8.39c0.43,3.96,8.62,14.6,17.24,10.97c29.87,4.92,59.75-20.78,89.62-13.86
		C295.46,4834.51,301.52,4825.85,301.09,4821.91z"/>
</g>
<g class="st14">
	<path class="st6" d="M333.02,4953.44c-0.43-3.88-7.83-7.71-16.45-4.32c-29.87-5.46-59.75,20.25-89.62,13.9
		c-8.79,2.73-15.62,4.48-15.19,8.39c0.43,3.96,8.62,14.61,17.24,10.97c29.88,4.92,59.75-20.78,89.62-13.86
		C327.4,4966.04,333.45,4957.38,333.02,4953.44z"/>
</g>
<g class="st14">
	<path class="st6" d="M490.54,4811.62c-0.43-3.88-7.84-7.71-16.45-4.32c-29.87-5.46-59.75,20.25-89.62,13.9
		c-8.78,2.72-15.62,4.48-15.19,8.39c0.43,3.96,8.62,14.61,17.24,10.97c29.87,4.92,59.75-20.78,89.62-13.86
		C484.92,4824.23,490.97,4815.57,490.54,4811.62z"/>
</g>
<g class="st14">
	<path class="st6" d="M533.84,4953.44c-0.43-3.88-7.83-7.71-16.45-4.32c-29.87-5.46-59.75,20.25-89.62,13.9
		c-8.79,2.72-15.62,4.48-15.19,8.39c0.43,3.96,8.62,14.6,17.24,10.97c29.87,4.92,59.75-20.78,89.62-13.86
		C528.22,4966.04,534.27,4957.38,533.84,4953.44z"/>
</g>
<g class="st14">
	<path class="st6" d="M290.8,5081.18c-0.43-3.88-7.83-7.71-16.45-4.32c-29.87-5.46-59.75,20.25-89.62,13.9
		c-8.79,2.72-15.62,4.48-15.19,8.39c0.43,3.96,8.62,14.61,17.24,10.97c29.88,4.92,59.75-20.78,89.62-13.86
		C285.18,5093.79,291.24,5085.12,290.8,5081.18z"/>
</g>
<g class="st14">
	<path class="st6" d="M387.69,5193.23c-0.43-3.88-7.84-7.72-16.45-4.32c-29.87-5.46-59.75,20.25-89.62,13.9
		c-8.78,2.72-15.62,4.48-15.19,8.39c0.43,3.96,8.62,14.6,17.24,10.97c29.87,4.92,59.75-20.78,89.62-13.86
		C382.07,5205.83,388.13,5197.17,387.69,5193.23z"/>
</g>
<g class="st14">
	<path class="st6" d="M533.84,5057.91c-0.43-3.88-7.83-7.72-16.45-4.32c-29.87-5.46-59.75,20.25-89.62,13.9
		c-8.79,2.73-15.62,4.48-15.19,8.39c0.43,3.96,8.62,14.6,17.24,10.97c29.87,4.92,59.75-20.78,89.62-13.86
		C528.22,5070.51,534.27,5061.85,533.84,5057.91z"/>
</g>
<g class="st14">
	<path class="st6" d="M595.55,5241.4c-0.43-3.88-7.83-7.71-16.45-4.32c-29.87-5.46-59.75,20.25-89.62,13.9
		c-8.78,2.72-15.62,4.48-15.19,8.39c0.43,3.96,8.62,14.61,17.24,10.97c29.88,4.92,59.75-20.78,89.62-13.86
		C589.92,5254,595.98,5245.35,595.55,5241.4z"/>
</g>
<g class="st14">
	<path class="st6" d="M643.18,5126.65c-0.43-3.88-7.83-7.71-16.45-4.32c-29.87-5.46-59.75,20.25-89.62,13.9
		c-8.79,2.73-15.62,4.48-15.19,8.39c0.43,3.96,8.62,14.61,17.24,10.97c29.87,4.92,59.75-20.78,89.62-13.86
		C637.56,5139.25,643.61,5130.59,643.18,5126.65z"/>
</g>
<g class="st14">
	<path class="st6" d="M787.16,5024.35c-0.43-3.88-7.83-7.71-16.45-4.32c-29.87-5.46-59.75,20.25-89.62,13.9
		c-8.79,2.72-15.62,4.48-15.19,8.39c0.43,3.96,8.62,14.6,17.24,10.97c29.87,4.92,59.75-20.78,89.62-13.86
		C781.53,5036.95,787.59,5028.29,787.16,5024.35z"/>
</g>
<g class="st14">
	<path class="st6" d="M826.13,5210.55c-0.43-3.88-7.83-7.71-16.45-4.32c-29.87-5.46-59.75,20.25-89.62,13.9
		c-8.79,2.72-15.62,4.48-15.19,8.39c0.43,3.96,8.62,14.61,17.24,10.97c29.88,4.92,59.75-20.78,89.62-13.86
		C820.51,5223.15,826.56,5214.49,826.13,5210.55z"/>
</g>
<g class="st14">
	<path class="st6" d="M517.6,5536.94c-0.43-3.88-7.83-7.71-16.45-4.32c-29.87-5.46-59.75,20.25-89.62,13.9
		c-8.79,2.73-15.62,4.48-15.19,8.39c0.43,3.96,8.62,14.61,17.24,10.97c29.87,4.92,59.75-20.78,89.62-13.86
		C511.98,5549.54,518.03,5540.89,517.6,5536.94z"/>
</g>
<g class="st14">
	<path class="st6" d="M565.23,5422.19c-0.43-3.88-7.83-7.72-16.45-4.32c-29.87-5.46-59.75,20.25-89.62,13.9
		c-8.78,2.72-15.62,4.48-15.19,8.39c0.43,3.96,8.62,14.6,17.24,10.97c29.87,4.92,59.75-20.78,89.62-13.86
		C559.61,5434.79,565.67,5426.13,565.23,5422.19z"/>
</g>
<g class="st14">
	<path class="st6" d="M709.21,5319.89c-0.43-3.88-7.83-7.71-16.45-4.32c-29.87-5.46-59.75,20.25-89.62,13.9
		c-8.78,2.72-15.62,4.48-15.19,8.39c0.43,3.96,8.62,14.61,17.24,10.97c29.87,4.92,59.75-20.78,89.62-13.86
		C703.59,5332.49,709.65,5323.83,709.21,5319.89z"/>
</g>
<g class="st14">
	<path class="st6" d="M748.19,5506.09c-0.43-3.88-7.84-7.71-16.45-4.32c-29.87-5.46-59.75,20.25-89.62,13.9
		c-8.79,2.72-15.62,4.47-15.19,8.39c0.43,3.96,8.62,14.6,17.24,10.97c29.87,4.92,59.75-20.78,89.62-13.86
		C742.56,5518.69,748.62,5510.03,748.19,5506.09z"/>
</g>
<g class="st14">
	<path class="st6" d="M231.8,5241.4c-0.43-3.88-7.83-7.71-16.45-4.32c-29.87-5.46-59.75,20.25-89.62,13.9
		c-8.79,2.72-15.62,4.48-15.19,8.39c0.43,3.96,8.62,14.61,17.24,10.97c29.87,4.92,59.75-20.78,89.62-13.86
		C226.18,5254.01,232.23,5245.35,231.8,5241.4z"/>
</g>
<g>
	<path class="st4" d="M324.95,4553.86c-2.78,1.01-5.45,2.2-7.99,3.55c-20.24-23.5-53.63-33.33-84.53-22.15
		c-32.87,11.89-52.68,43.85-50.64,77.05c-21.93,11.54-32.54,37.78-23.87,61.74c9.48,26.18,38.38,39.73,64.56,30.25
		c10.94-3.96,19.68-11.32,25.45-20.45c12.04,1.7,24.65,0.57,36.88-3.86c10.38-3.76,19.45-9.52,26.95-16.68
		c15.74,10.45,36.06,13.57,55.2,6.65c32.06-11.6,48.64-47,37.04-79.06C392.4,4558.84,357.01,4542.25,324.95,4553.86z"/>
	<g>
		<text transform="matrix(0.9743 -0.2252 0.2252 0.9743 232.1083 4614.1011)"><tspan x="0" y="0" class="st6 st24 st25">2거 풀면</tspan><tspan x="0" y="49.11" class="st6 st24 st25">1만아라!</tspan></text>
		<text transform="matrix(0.9743 -0.2252 0.2252 0.9743 205.9428 4605.5093)"><tspan x="0" y="0" class="st6 st24 st26">이</tspan><tspan x="-1.66" y="23.38" class="st6 st24 st26">제</tspan><tspan x="-0.1" y="46.76" class="st6 st24 st26">진</tspan><tspan x="-1.37" y="70.14" class="st6 st24 st26">짜</tspan></text>
	</g>
</g>
<g>
	<path class="st4" d="M499.97,4720.45c-2.06-0.3-4.1-0.45-6.12-0.47c-4.69-21.27-22.07-38.46-44.9-41.83
		c-24.29-3.58-47.18,9.58-56.97,30.8c-17.4-0.16-32.7,12.54-35.31,30.24c-2.85,19.35,10.51,37.34,29.86,40.2
		c8.09,1.19,15.94-0.45,22.54-4.18c6.88,5.06,15.06,8.56,24.09,9.89c7.67,1.13,15.2,0.59,22.22-1.35
		c6.26,11.71,17.79,20.4,31.93,22.48c23.69,3.5,45.73-12.87,49.22-36.56C540.03,4745.99,523.66,4723.95,499.97,4720.45z"/>
	<text transform="matrix(0.9819 0.1893 -0.1893 0.9819 391.7133 4727.6562)"><tspan x="0" y="0" class="st6 st24 st27">21학번을 위한</tspan><tspan x="0" y="29.9" class="st6 st24 st27">Quiz time !</tspan></text>
</g>
<g class="st14">
	<path class="st6" d="M409.14,5317.71c-0.43-3.88-7.84-7.71-16.45-4.32c-29.87-5.46-59.75,20.25-89.62,13.9
		c-8.79,2.73-15.62,4.48-15.19,8.39c0.43,3.96,8.62,14.6,17.24,10.97c29.87,4.92,59.75-20.78,89.62-13.86
		C403.51,5330.31,409.57,5321.66,409.14,5317.71z"/>
</g>
<g class="st14">
	<path class="st6" d="M266.25,5428.5c-0.43-3.88-7.84-7.72-16.45-4.32c-29.87-5.46-59.75,20.25-89.62,13.9
		c-8.79,2.73-15.62,4.48-15.19,8.39c0.43,3.96,8.62,14.61,17.24,10.97c29.87,4.92,59.75-20.78,89.62-13.86
		C260.63,5441.1,266.68,5432.44,266.25,5428.5z"/>
</g>
<g class="st14">
	<path class="st6" d="M367.47,5512.94c-0.43-3.88-7.83-7.72-16.45-4.32c-29.87-5.46-59.75,20.25-89.62,13.9
		c-8.79,2.72-15.62,4.48-15.19,8.39c0.43,3.96,8.62,14.61,17.24,10.97c29.88,4.92,59.75-20.78,89.62-13.86
		C361.85,5525.54,367.9,5516.88,367.47,5512.94z"/>
</g>
</svg>
