<?xml version="1.0" encoding="utf-8"?>
<!-- Generator: Adobe Illustrator 25.2.0, SVG Export Plug-In . SVG Version: 6.00 Build 0)  -->
<svg version="1.1" id="레이어_1" xmlns="http://www.w3.org/2000/svg" xmlns:xlink="http://www.w3.org/1999/xlink" x="0px"
	 y="0px" viewBox="0 0 200 200" style="enable-background:new 0 0 200 200;" xml:space="preserve">
<style type="text/css">
	.st0{fill:#EB76A1;}
	.st1{fill:#FFFFFF;}
</style>
<path class="st0" d="M154.58,199.68H45.42C20.33,199.68,0,179.35,0,154.27V45.1C0,20.02,20.33-0.32,45.42-0.32h109.16
	C179.67-0.32,200,20.02,200,45.1v109.16C200,179.35,179.67,199.68,154.58,199.68z"/>
<g>
	<path class="st1" d="M24.69,79.59c3.98,0.27,7.02,1.08,9.12,2.43c2.1,1.35,3.14,3.08,3.14,5.19c0,2.35-1.26,4.22-3.79,5.62
		c-2.53,1.4-6.2,2.1-11.01,2.1c-4.85,0-8.52-0.7-11.03-2.1c-2.51-1.4-3.77-3.27-3.77-5.62c0-2.11,1.03-3.84,3.1-5.19
		c2.07-1.35,5.06-2.16,8.98-2.43v-3.92H3.78v-4.19h36.78v4.19H24.69V79.59z M8.02,55.29h28.27v4.24H25.1
		c0.3,1.04,0.89,1.92,1.78,2.63c0.89,0.71,1.98,1.31,3.25,1.78c1.25,0.51,2.62,0.91,4.12,1.2c1.5,0.3,3.01,0.53,4.53,0.71
		l-3.03,3.66c-1.31-0.21-2.64-0.46-3.99-0.76c-1.35-0.3-2.64-0.68-3.86-1.16c-1.25-0.45-2.38-0.99-3.39-1.63
		c-1.01-0.64-1.83-1.39-2.45-2.25c-0.71,0.86-1.57,1.6-2.56,2.23c-1,0.62-2.1,1.17-3.32,1.65c-1.19,0.48-2.45,0.87-3.77,1.18
		c-1.32,0.31-2.64,0.56-3.95,0.74L5.39,65.9c1.78-0.3,3.46-0.62,5.02-0.98c1.56-0.36,2.95-0.77,4.17-1.25
		c1.19-0.5,2.19-1.09,2.99-1.76c0.8-0.67,1.34-1.46,1.61-2.39H8.02V55.29z M22.15,83.33c-2.82,0-5.05,0.33-6.69,0.98
		c-1.64,0.65-2.45,1.6-2.45,2.85c0,1.34,0.82,2.31,2.45,2.92C17.1,90.7,19.33,91,22.15,91c2.79,0,5.02-0.31,6.67-0.91
		c1.65-0.61,2.47-1.58,2.47-2.92c0-1.25-0.82-2.2-2.47-2.85C27.17,83.66,24.95,83.33,22.15,83.33z"/>
	<path class="st1" d="M54.17,74.82c-1.6,0-3.06-0.25-4.37-0.76c-1.31-0.5-2.44-1.2-3.39-2.1c-0.92-0.89-1.64-1.95-2.14-3.19
		c-0.51-1.23-0.76-2.58-0.76-4.04c0-1.43,0.25-2.75,0.76-3.97c0.5-1.22,1.22-2.27,2.14-3.17c0.95-0.89,2.08-1.6,3.39-2.12
		c1.31-0.52,2.76-0.78,4.37-0.78c1.58,0,3.02,0.26,4.33,0.78c1.31,0.52,2.44,1.23,3.39,2.12c0.92,0.89,1.64,1.95,2.16,3.17
		c0.52,1.22,0.78,2.54,0.78,3.97c0,1.46-0.26,2.8-0.78,4.04c-0.52,1.23-1.24,2.3-2.16,3.19c-0.95,0.89-2.08,1.59-3.39,2.1
		C57.18,74.56,55.74,74.82,54.17,74.82z M62.15,78.07c2.02,0,3.89,0.19,5.62,0.58c1.72,0.39,3.22,0.94,4.5,1.65
		c1.25,0.71,2.23,1.59,2.94,2.63c0.71,1.04,1.07,2.23,1.07,3.57c0,1.37-0.36,2.57-1.07,3.61s-1.69,1.92-2.94,2.63
		c-1.28,0.71-2.78,1.25-4.5,1.6c-1.72,0.36-3.61,0.54-5.66,0.54s-3.93-0.18-5.64-0.54c-1.71-0.36-3.19-0.89-4.44-1.6
		c-1.25-0.71-2.22-1.59-2.92-2.63c-0.7-1.04-1.05-2.24-1.05-3.61c0-1.31,0.36-2.48,1.07-3.52c0.71-1.04,1.71-1.93,2.99-2.67
		c1.28-0.71,2.77-1.26,4.48-1.65C58.3,78.27,60.15,78.07,62.15,78.07z M54.17,58.99c-1.78,0-3.16,0.55-4.12,1.65
		c-0.97,1.1-1.45,2.48-1.45,4.15c0,1.64,0.48,3.01,1.45,4.12c0.97,1.11,2.34,1.67,4.12,1.67c1.78,0,3.16-0.56,4.12-1.67
		c0.97-1.11,1.45-2.49,1.45-4.12c0-1.66-0.48-3.05-1.45-4.15C57.32,59.54,55.95,58.99,54.17,58.99z M62.15,82.04
		c-2.59,0-4.68,0.39-6.29,1.16c-1.6,0.77-2.41,1.84-2.41,3.21c0,1.4,0.81,2.5,2.43,3.32c1.62,0.82,3.71,1.23,6.26,1.23
		c2.62,0,4.72-0.42,6.31-1.25c1.59-0.83,2.39-1.93,2.39-3.3c0-1.4-0.79-2.47-2.36-3.23C66.9,82.42,64.79,82.04,62.15,82.04z
		 M75.08,54.26v8.52h5.13v4.24h-5.13v11.28h-5.08V54.26H75.08z"/>
	<path class="st1" d="M87.38,56.05H114v4.24H91.26v11.68h23.09v4.28H102.5v9.23h15.83v4.28H81.5v-4.28h15.78v-9.23h-9.94
		c-0.48,0-0.8-0.09-0.96-0.27c-0.16-0.18-0.25-0.5-0.25-0.98v-17.7c0-0.45,0.09-0.77,0.27-0.96C86.58,56.14,86.91,56.05,87.38,56.05
		z"/>
	<path class="st1" d="M142.04,85.87c-1.84-1.25-3.6-2.78-5.28-4.59s-2.98-3.75-3.9-5.8c-0.24,0.8-0.65,1.7-1.25,2.7
		c-0.59,1-1.32,2-2.18,3.01c-0.83,1.04-1.76,2.04-2.79,3.01c-1.03,0.97-2.04,1.82-3.05,2.56l-4.19-3.3
		c3.75-2.29,6.47-5.08,8.18-8.36c1.71-3.28,2.56-6.89,2.56-10.81v-8.56h5.31v8.83c-0.03,3.66,0.81,7.05,2.52,10.19
		c1.71,3.14,4.3,5.71,7.78,7.74L142.04,85.87z M154.35,54.26v39.9h-5.04V70.54h-7.98v-4.55h7.98V54.26H154.35z"/>
	<path class="st1" d="M159.7,73.66h7.27v-8.52h4.99v8.52c0.65,0,1.58-0.03,2.76-0.09s2.45-0.15,3.79-0.27
		c1.34-0.09,2.67-0.2,3.99-0.33s2.46-0.29,3.41-0.47v4.19c-0.95,0.15-2.16,0.3-3.61,0.45c-1.46,0.15-3.09,0.28-4.9,0.4
		c-1.81,0.15-3.78,0.26-5.91,0.33c-2.12,0.07-4.33,0.11-6.62,0.11h-5.17V73.66z M181.41,55.6c0.45,0,0.76,0.1,0.96,0.29
		c0.19,0.19,0.29,0.51,0.29,0.96c-0.06,1.1-0.14,2.25-0.25,3.46c-0.1,1.2-0.23,2.39-0.38,3.54c-0.15,1.19-0.3,2.33-0.47,3.43
		c-0.16,1.1-0.32,2.07-0.47,2.9h-5.08c0.33-1.49,0.6-3.17,0.83-5.04s0.38-3.63,0.47-5.26h-15.34V55.6H181.41z M167.1,93.41
		c-0.48,0-0.79-0.09-0.96-0.27c-0.16-0.18-0.25-0.51-0.25-0.98V80.61h5.08v8.52h22.16v4.28H167.1z M197.15,70.45h-5.17v13.51h-5.04
		V54.22h5.04v11.9h5.17V70.45z"/>
	<path class="st1" d="M39.32,124.08c-0.03,5.26-1,9.12-2.92,11.59c-1.92,2.47-4.39,3.7-7.42,3.7c-3.03,0-5.51-1.23-7.45-3.7
		c-1.93-2.47-2.9-6.33-2.9-11.59c0-5.26,0.97-9.12,2.9-11.59c1.93-2.47,4.41-3.7,7.45-3.7c3.03,0,5.51,1.23,7.45,3.7
		C38.35,114.96,39.32,118.82,39.32,124.08z M23.67,124.04c0,1.55,0.1,2.98,0.31,4.3c0.21,1.32,0.54,2.47,0.98,3.46
		c0.42,0.95,0.96,1.7,1.63,2.25c0.67,0.55,1.46,0.83,2.39,0.83c0.89,0,1.67-0.27,2.34-0.83c0.67-0.55,1.21-1.3,1.63-2.25
		c0.45-0.98,0.78-2.13,1-3.46c0.22-1.32,0.33-2.76,0.33-4.3c0-1.52-0.11-2.93-0.33-4.26c-0.22-1.32-0.56-2.46-1-3.41
		c-0.42-0.95-0.96-1.7-1.63-2.25c-0.67-0.55-1.45-0.83-2.34-0.83c-0.92,0-1.72,0.28-2.39,0.83c-0.67,0.55-1.21,1.3-1.63,2.25
		c-0.45,0.95-0.77,2.09-0.98,3.41C23.77,121.1,23.67,122.52,23.67,124.04z M45.47,147.67v-39.9h5.04v39.9H45.47z"/>
	<path class="st1" d="M92.42,130.73H55.64v-4.24h9.5v-5.17c-1.87-0.62-3.3-1.47-4.28-2.54c-0.98-1.07-1.47-2.32-1.47-3.75
		c0-2.23,1.3-4.04,3.9-5.44c2.6-1.4,6.18-2.1,10.72-2.1c4.55,0,8.12,0.7,10.72,2.1c2.6,1.4,3.9,3.21,3.9,5.44
		c0,1.4-0.49,2.63-1.47,3.7c-0.98,1.07-2.36,1.92-4.15,2.54v5.22h9.41V130.73z M74.01,133c4.79,0,8.45,0.71,10.99,2.12
		s3.81,3.28,3.81,5.6c0,2.35-1.26,4.22-3.79,5.62c-2.53,1.4-6.2,2.1-11.01,2.1c-4.85,0-8.52-0.7-11.03-2.1
		c-2.51-1.4-3.77-3.27-3.77-5.62c0-2.32,1.26-4.18,3.79-5.6S69.19,133,74.01,133z M74.01,111.2c-2.73,0-4.94,0.35-6.62,1.05
		c-1.68,0.7-2.52,1.66-2.52,2.88c0,1.16,0.85,2.07,2.54,2.72c1.69,0.65,3.89,0.98,6.6,0.98c2.68,0,4.87-0.33,6.58-0.98
		c1.71-0.65,2.56-1.56,2.56-2.72c0-1.22-0.85-2.18-2.54-2.88C78.91,111.55,76.71,111.2,74.01,111.2z M74.01,136.83
		c-2.82,0-5.05,0.33-6.69,0.98c-1.64,0.65-2.45,1.61-2.45,2.85c0,1.34,0.82,2.31,2.45,2.92c1.63,0.61,3.86,0.91,6.69,0.91
		c2.79,0,5.02-0.3,6.67-0.91c1.65-0.61,2.47-1.58,2.47-2.92c0-1.25-0.82-2.2-2.47-2.85C79.02,137.16,76.8,136.83,74.01,136.83z
		 M70.08,122.39v4.1h7.98v-4.1c-0.62,0.09-1.28,0.15-1.96,0.18c-0.68,0.03-1.38,0.04-2.1,0.04s-1.4-0.01-2.05-0.04
		C71.3,122.54,70.68,122.48,70.08,122.39z"/>
	<path class="st1" d="M128.54,127.52c0,0.48-0.1,0.8-0.29,0.98c-0.19,0.18-0.51,0.27-0.96,0.27h-16.54c-0.48,0-0.8-0.09-0.96-0.27
		c-0.16-0.18-0.25-0.5-0.25-0.98v-18.55h5.04v5.66h9.05v-5.66h4.9V127.52z M126.71,132.47c2.02,0,3.89,0.18,5.62,0.54
		c1.72,0.36,3.22,0.88,4.5,1.56c1.25,0.68,2.23,1.52,2.94,2.52c0.71,1,1.07,2.12,1.07,3.37c0,1.31-0.36,2.45-1.07,3.43
		c-0.71,0.98-1.69,1.81-2.94,2.5c-1.28,0.65-2.78,1.15-4.5,1.49c-1.72,0.34-3.61,0.51-5.66,0.51s-3.93-0.17-5.64-0.51
		c-1.71-0.34-3.19-0.84-4.44-1.49c-1.25-0.68-2.22-1.52-2.92-2.5c-0.7-0.98-1.05-2.12-1.05-3.43c0-1.25,0.36-2.36,1.07-3.34
		c0.71-0.98,1.71-1.81,2.99-2.5s2.77-1.21,4.48-1.58C122.87,132.65,124.71,132.47,126.71,132.47z M123.63,124.53v-5.66h-9.05v5.66
		H123.63z M126.71,136.43c-2.59,0-4.68,0.36-6.29,1.07c-1.6,0.71-2.41,1.68-2.41,2.9s0.81,2.2,2.43,2.94s3.71,1.12,6.26,1.12
		c2.62,0,4.72-0.38,6.31-1.14c1.59-0.76,2.39-1.73,2.39-2.92c0-1.25-0.79-2.22-2.36-2.92C131.46,136.78,129.35,136.43,126.71,136.43
		z M139.86,107.77v8.69h5.13v4.24h-5.13v11.64h-5.08v-24.57H139.86z"/>
	<path class="st1" d="M149.13,126.54v-17.61h4.99v5.39H163v-5.39h4.99v6.46h7.13v-7.62h4.99v21.76h-4.99v-9.85h-7.13v6.87
		c0,0.48-0.1,0.8-0.29,0.98c-0.19,0.18-0.51,0.27-0.96,0.27h-16.41c-0.48,0-0.79-0.09-0.96-0.27
		C149.21,127.34,149.13,127.01,149.13,126.54z M153.19,146.02v-15.07h4.95v4.06h16.99v-4.06h4.95v15.07c0,0.47-0.1,0.8-0.29,0.98
		s-0.51,0.27-0.96,0.27h-24.39c-0.48,0-0.8-0.09-0.98-0.27C153.28,146.82,153.19,146.5,153.19,146.02z M163,123.55v-4.99h-8.87v4.99
		H163z M175.13,143.21v-4.15h-16.99v4.15H175.13z"/>
</g>
</svg>
