<?xml version="1.0" encoding="utf-8"?>
<!-- Generator: Adobe Illustrator 25.2.0, SVG Export Plug-In . SVG Version: 6.00 Build 0)  -->
<svg version="1.1" id="레이어_1" xmlns="http://www.w3.org/2000/svg" xmlns:xlink="http://www.w3.org/1999/xlink" x="0px"
	 y="0px" viewBox="0 0 200 200" style="enable-background:new 0 0 200 200;" xml:space="preserve">
<style type="text/css">
	.st0{fill:#EB76A1;}
	.st1{fill:#FFFFFF;}
</style>
<path class="st0" d="M154.58,199.68H45.42C20.33,199.68,0,179.35,0,154.27V45.1C0,20.02,20.33-0.32,45.42-0.32h109.16
	C179.67-0.32,200,20.02,200,45.1v109.16C200,179.35,179.67,199.68,154.58,199.68z"/>
<g>
	<path class="st1" d="M63.48,33.94v-3.88H86.8v3.88H63.48z M75.12,48.61c-3.33,0-5.89-0.64-7.69-1.92c-1.8-1.28-2.7-2.81-2.7-4.59
		c0-1.78,0.89-3.31,2.68-4.57c1.78-1.26,4.35-1.9,7.71-1.9c3.33,0,5.89,0.63,7.69,1.9c1.8,1.26,2.7,2.79,2.7,4.57
		c0,1.78-0.91,3.31-2.72,4.59C80.98,47.97,78.42,48.61,75.12,48.61z M93.71,51.55c0.45,0,0.77,0.1,0.96,0.29
		c0.19,0.19,0.29,0.51,0.29,0.96v11.55h-5.22V55.7H67.85v-4.15H93.71z M68.83,24.08h12.44v3.79H68.83V24.08z M75.12,39.11
		c-1.58,0-2.84,0.26-3.79,0.78c-0.95,0.52-1.43,1.24-1.43,2.16c0,1.01,0.48,1.75,1.43,2.23c0.95,0.48,2.21,0.71,3.79,0.71
		c1.55,0,2.8-0.24,3.77-0.71c0.97-0.48,1.45-1.22,1.45-2.23c0-0.92-0.48-1.64-1.45-2.16C77.92,39.37,76.67,39.11,75.12,39.11z
		 M94.96,24.26V34.7h5.17v4.5h-5.17v10.75h-5.04V24.26H94.96z"/>
	<path class="st1" d="M105.39,54.4c-0.48,0-0.79-0.09-0.96-0.27c-0.16-0.18-0.24-0.51-0.24-0.98V26.09h5.08V49.9l3.43-0.09
		c0.42,0,0.96-0.03,1.63-0.09s1.36-0.12,2.07-0.18c0.71-0.09,1.41-0.19,2.1-0.29c0.68-0.1,1.25-0.2,1.7-0.29v4.33
		c-0.39,0.09-0.94,0.19-1.65,0.31c-0.71,0.12-1.52,0.24-2.41,0.36c-0.86,0.09-1.75,0.17-2.67,0.25c-0.92,0.07-1.77,0.11-2.54,0.11
		c-0.27,0.03-0.7,0.05-1.29,0.07c-0.6,0.02-1.21,0.02-1.83,0.02c-0.62,0.03-1.18,0.04-1.65,0.04
		C105.68,54.45,105.42,54.43,105.39,54.4z M121.62,62.25V24.93h4.86v12.71h3.92V24.22h4.86v39.95h-4.86V42.54h-3.92v19.71H121.62z"
		/>
	<path class="st1" d="M42.62,108.53h36.87v4.24H42.62V108.53z M45.6,96.62h5.31l-0.09-12.8H46.5v-4.24h29.03v4.24h-4.41l-0.13,12.8
		h5.44v4.28H45.6V96.62z M66.07,83.83H55.9l0.09,12.8h9.99L66.07,83.83z"/>
	<path class="st1" d="M85.42,88.56H98.4v-5.31H84.17v-4.19h17.92c0.45,0,0.76,0.1,0.96,0.29s0.29,0.51,0.29,0.96v11.01
		c0,0.48-0.1,0.8-0.29,0.98c-0.19,0.18-0.51,0.27-0.96,0.27H89.17v5.13h6.96c0.86,0,1.84-0.04,2.94-0.11
		c1.1-0.07,2.21-0.17,3.34-0.29c1.13-0.09,2.23-0.21,3.3-0.36c1.07-0.15,2.01-0.3,2.81-0.45v4.15c-0.77,0.15-1.71,0.29-2.81,0.42
		s-2.27,0.25-3.52,0.33c-1.28,0.12-2.59,0.22-3.92,0.31s-2.63,0.13-3.88,0.13c-0.33,0-0.96,0.01-1.9,0.02
		c-0.94,0.02-1.92,0.02-2.96,0.02c-1.01,0-1.93,0-2.76,0c-0.83,0-1.28,0-1.34,0c-0.48,0-0.8-0.09-0.98-0.27
		c-0.18-0.18-0.27-0.5-0.27-0.98V89.8c0-0.45,0.09-0.76,0.27-0.96C84.62,88.65,84.94,88.56,85.42,88.56z M89.52,116.91
		c-0.48,0-0.8-0.09-0.96-0.27c-0.16-0.18-0.25-0.51-0.25-0.98v-10.79h5.08v7.76h22.61v4.28H89.52z M115.2,77.77v29.6h-5.08v-29.6
		H115.2z"/>
	<path class="st1" d="M124.83,79.68h17.12v4.24h-13.38v7.62h12.89v4.24h-12.89v8.25c0.98,0,2.03-0.01,3.14-0.02
		c1.12-0.01,2.58-0.07,4.39-0.16c1.52-0.06,3.14-0.2,4.86-0.42c1.72-0.22,3.28-0.45,4.68-0.69v4.28c-1.22,0.18-2.68,0.38-4.39,0.6
		c-1.71,0.22-3.41,0.38-5.11,0.47c-0.89,0.06-1.74,0.1-2.54,0.13c-0.8,0.03-1.64,0.06-2.5,0.09c-0.89,0-1.85,0-2.88,0
		s-2.18,0-3.46,0c-0.48,0-0.8-0.09-0.96-0.27c-0.16-0.18-0.25-0.5-0.25-0.98V80.93c0-0.45,0.09-0.76,0.27-0.96
		S124.36,79.68,124.83,79.68z M149.13,117.67V95.69h-6.29v-4.5h6.29V77.77h4.99v39.9H149.13z"/>
	<path class="st1" d="M64.73,133.59h21.54v4.19h-8.11v3.48c0,3.95,0.81,7.45,2.43,10.48c1.62,3.03,4.21,5.56,7.78,7.58l-3.57,3.43
		c-2.14-1.37-4.04-2.96-5.71-4.77c-1.67-1.81-2.87-3.69-3.61-5.62c-0.77,2.11-2.04,4.18-3.81,6.2c-1.77,2.02-3.65,3.75-5.64,5.17
		l-4.15-3.34c3.3-1.96,5.94-4.53,7.91-7.71c1.98-3.18,2.96-7.06,2.96-11.64v-3.25h-8.03V133.59z M91.48,171.17v-39.9h5.04v39.9
		H91.48z"/>
	<path class="st1" d="M106.82,133.05h26.62v4.24H110.7v11.68h23.1v4.28h-11.86v9.23h15.83v4.28h-36.83v-4.28h15.78v-9.23h-9.94
		c-0.48,0-0.8-0.09-0.96-0.27c-0.16-0.18-0.25-0.5-0.25-0.98v-17.7c0-0.45,0.09-0.76,0.27-0.96
		C106.02,133.15,106.35,133.05,106.82,133.05z"/>
</g>
</svg>
