<?xml version="1.0" encoding="utf-8"?>
<!-- Generator: Adobe Illustrator 25.2.0, SVG Export Plug-In . SVG Version: 6.00 Build 0)  -->
<svg version="1.1" id="레이어_1" xmlns="http://www.w3.org/2000/svg" xmlns:xlink="http://www.w3.org/1999/xlink" x="0px"
	 y="0px" viewBox="0 0 200 200" style="enable-background:new 0 0 200 200;" xml:space="preserve">
<style type="text/css">
	.st0{fill:#EB76A1;}
	.st1{enable-background:new    ;}
	.st2{fill:#FFFFFF;}
</style>
<path class="st0" d="M154.58,199.68H45.42C20.33,199.68,0,179.35,0,154.27V45.1C0,20.02,20.33-0.32,45.42-0.32h109.16
	C179.67-0.32,200,20.02,200,45.1v109.16C200,179.35,179.67,199.68,154.58,199.68z"/>
<g class="st1">
	<path class="st2" d="M27.55,56.71h12.84v4.19H31.2v19.13l3.66-0.04c0.62,0,1.31-0.04,2.05-0.11c0.74-0.07,1.47-0.16,2.18-0.25
		s1.38-0.18,2.01-0.27s1.13-0.18,1.52-0.27v4.28c-0.45,0.12-1.06,0.24-1.85,0.36c-0.79,0.12-1.64,0.22-2.56,0.31
		c-0.89,0.09-1.81,0.16-2.76,0.22c-0.95,0.06-1.81,0.09-2.59,0.09c-0.3,0.03-0.74,0.04-1.31,0.04s-1.17,0-1.76,0
		c-0.62,0-1.38,0-2.27,0c-0.48,0-0.8-0.09-0.96-0.27c-0.16-0.18-0.25-0.5-0.25-0.98V57.96c0-0.45,0.09-0.76,0.27-0.96
		C26.75,56.81,27.07,56.71,27.55,56.71z M48.68,54.93v12.53h3.97V54.22h4.86v39.95h-4.86V72.41h-3.97v19.88h-4.82V54.93H48.68z"/>
	<path class="st2" d="M63.48,63.94v-3.88H86.8v3.88H63.48z M75.12,78.61c-3.33,0-5.89-0.64-7.69-1.92c-1.8-1.28-2.7-2.81-2.7-4.59
		s0.89-3.31,2.68-4.57c1.78-1.26,4.35-1.89,7.71-1.89c3.33,0,5.89,0.63,7.69,1.89c1.8,1.26,2.7,2.79,2.7,4.57s-0.91,3.31-2.72,4.59
		C80.98,77.97,78.42,78.61,75.12,78.61z M93.71,81.55c0.45,0,0.77,0.1,0.96,0.29s0.29,0.51,0.29,0.96v11.55h-5.22V85.7H67.85v-4.15
		H93.71z M68.83,54.08h12.44v3.79H68.83V54.08z M75.12,69.11c-1.58,0-2.84,0.26-3.79,0.78c-0.95,0.52-1.43,1.24-1.43,2.16
		c0,1.01,0.48,1.75,1.43,2.23c0.95,0.48,2.21,0.71,3.79,0.71c1.55,0,2.8-0.24,3.77-0.71c0.97-0.47,1.45-1.22,1.45-2.23
		c0-0.92-0.48-1.64-1.45-2.16C77.92,69.37,76.67,69.11,75.12,69.11z M94.96,54.26V64.7h5.17v4.5h-5.17v10.75h-5.04V54.26H94.96z"/>
	<path class="st2" d="M99.82,73.61c2.73-1.63,4.84-3.65,6.31-6.04c1.47-2.39,2.21-5.31,2.21-8.76v-3.52h5.26v3.52
		c-0.03,3.15,0.6,5.79,1.89,7.91s3.25,3.93,5.86,5.42l-3.3,3.43c-1.49-0.98-2.87-2.12-4.15-3.41s-2.23-2.62-2.85-3.99
		c-0.62,1.52-1.55,3.03-2.79,4.55c-1.23,1.52-2.71,2.88-4.44,4.1L99.82,73.61z M121.4,78.07c2.08,0,4.01,0.19,5.8,0.58
		s3.33,0.94,4.64,1.65c1.28,0.71,2.29,1.59,3.03,2.63c0.74,1.04,1.12,2.23,1.12,3.57c0,1.37-0.37,2.57-1.12,3.61
		c-0.74,1.04-1.77,1.92-3.08,2.63c-1.28,0.71-2.82,1.25-4.62,1.61c-1.8,0.36-3.74,0.53-5.82,0.53c-2.08,0-4.01-0.18-5.77-0.53
		c-1.77-0.36-3.29-0.89-4.57-1.61c-1.31-0.71-2.32-1.59-3.03-2.63c-0.71-1.04-1.07-2.24-1.07-3.61c0-1.31,0.37-2.48,1.12-3.52
		c0.74-1.04,1.77-1.93,3.08-2.67c1.31-0.71,2.85-1.26,4.62-1.65C117.48,78.26,119.38,78.07,121.4,78.07z M121.36,82.04
		c-2.65,0-4.82,0.39-6.51,1.16c-1.69,0.77-2.54,1.84-2.54,3.21c0,1.4,0.85,2.5,2.56,3.32c1.71,0.82,3.87,1.23,6.49,1.23
		c2.73,0,4.95-0.42,6.64-1.25c1.69-0.83,2.54-1.93,2.54-3.3c0-1.4-0.84-2.47-2.52-3.23S124.12,82.04,121.36,82.04z M127.24,54.89
		v7.98h3.43v-8.6h4.91v24.21h-4.91V67.42h-3.43v9.72h-4.91V54.89H127.24z"/>
	<path class="st2" d="M150.38,71.56c-2.44-0.21-4.28-0.7-5.53-1.47s-1.87-1.74-1.87-2.9c0-1.37,0.87-2.45,2.61-3.25
		c1.74-0.8,4.3-1.2,7.69-1.2c3.36,0,5.91,0.4,7.67,1.2c1.75,0.8,2.63,1.89,2.63,3.25c0,1.16-0.63,2.13-1.89,2.9
		c-1.26,0.77-3.11,1.26-5.55,1.47v2.18c0.45,0,1.08-0.02,1.92-0.07s1.74-0.11,2.72-0.2c0.98-0.09,1.98-0.18,3.01-0.29
		s1.97-0.22,2.83-0.33v3.52c-0.68,0.09-1.56,0.19-2.63,0.29c-1.07,0.1-2.27,0.2-3.61,0.29c-1.34,0.09-2.76,0.16-4.26,0.22
		s-2.98,0.09-4.44,0.09h-11.28v-3.43h9.99V71.56z M142.09,58.59h22.38v3.3h-22.38V58.59z M147.53,85.07h19.8V82.8h-21.04v-3.39
		h25.15c0.45,0,0.76,0.1,0.96,0.29c0.19,0.19,0.29,0.51,0.29,0.96v6.2c0,0.48-0.1,0.8-0.29,0.98c-0.19,0.18-0.51,0.27-0.96,0.27
		h-19.75v2.36h21.94v3.43h-26.08c-0.48,0-0.8-0.09-0.98-0.27c-0.18-0.18-0.27-0.51-0.27-0.98v-6.33c0-0.45,0.09-0.76,0.27-0.96
		C146.72,85.17,147.05,85.07,147.53,85.07z M147.35,53.82h11.82v3.21h-11.82V53.82z M153.28,65.59c-1.43,0-2.56,0.14-3.41,0.42
		c-0.85,0.28-1.27,0.69-1.27,1.23s0.42,0.94,1.27,1.23c0.85,0.28,1.98,0.42,3.41,0.42c1.4,0,2.53-0.14,3.39-0.42
		c0.86-0.28,1.29-0.69,1.29-1.23s-0.42-0.94-1.27-1.23C155.84,65.73,154.71,65.59,153.28,65.59z M177.89,68.04h-5.22v9.94h-4.99
		V54.26h4.99v9.5h5.22V68.04z"/>
</g>
<g class="st1">
	<path class="st2" d="M44.38,141.92v-2.9c1.07-1.01,2.47-2.39,4.21-4.15c1.74-1.75,3.44-3.6,5.1-5.53c1.66-1.96,3.11-3.89,4.32-5.77
		c1.22-1.89,1.83-3.5,1.83-4.84c0-1.75-0.46-3.04-1.38-3.86c-0.92-0.82-2.14-1.23-3.66-1.23c-1.52,0-2.73,0.54-3.63,1.61
		c-0.91,1.07-1.36,2.63-1.36,4.68h-5.17c0-1.61,0.26-3.06,0.78-4.37s1.24-2.41,2.16-3.3c0.92-0.92,2-1.63,3.23-2.12
		c1.23-0.49,2.56-0.74,3.99-0.74c1.4,0,2.72,0.2,3.97,0.6c1.25,0.4,2.33,0.99,3.25,1.76c0.92,0.77,1.65,1.72,2.19,2.83
		c0.53,1.11,0.8,2.39,0.8,3.81c0,1.93-0.57,3.92-1.72,5.95c-1.15,2.04-2.5,3.98-4.08,5.82c-1.55,1.84-3.12,3.53-4.73,5.06
		c-1.6,1.53-2.85,2.74-3.75,3.63h14.98v4.24H45.58c-0.48,0-0.8-0.08-0.96-0.25C44.46,142.71,44.38,142.39,44.38,141.92z"/>
	<path class="st2" d="M80.58,108.79c2.32,0,4.22,0.54,5.71,1.6c1.49,1.07,2.65,2.45,3.48,4.15c0.83,1.69,1.4,3.58,1.72,5.66
		c0.31,2.08,0.47,4.15,0.47,6.2c0,2.08-0.16,4.16-0.47,6.24c-0.31,2.08-0.88,3.97-1.72,5.66c-0.83,1.67-1.99,3.03-3.48,4.08
		s-3.39,1.58-5.71,1.58c-2.32,0-4.21-0.53-5.66-1.58c-1.46-1.05-2.59-2.42-3.39-4.08c-0.8-1.69-1.35-3.58-1.63-5.66
		c-0.28-2.08-0.42-4.16-0.42-6.24c0-2.05,0.14-4.12,0.42-6.2c0.28-2.08,0.82-3.97,1.63-5.66c0.8-1.69,1.92-3.08,3.37-4.15
		C76.34,109.32,78.23,108.79,80.58,108.79z M80.58,113.02c-1.4,0-2.49,0.48-3.28,1.43c-0.79,0.95-1.38,2.11-1.76,3.48
		c-0.42,1.37-0.67,2.82-0.76,4.37c-0.09,1.55-0.13,2.91-0.13,4.1c0,1.22,0.04,2.59,0.13,4.12c0.09,1.53,0.34,2.98,0.76,4.35
		c0.39,1.37,0.97,2.51,1.76,3.43c0.79,0.92,1.88,1.38,3.28,1.38c1.37,0,2.46-0.46,3.28-1.38c0.82-0.92,1.45-2.07,1.9-3.43
		c0.42-1.37,0.69-2.82,0.82-4.35c0.13-1.53,0.2-2.91,0.2-4.12c0-1.19-0.07-2.56-0.2-4.1s-0.41-3-0.82-4.37
		c-0.45-1.37-1.08-2.53-1.9-3.48C83.04,113.5,81.95,113.02,80.58,113.02z"/>
	<path class="st2" d="M105.68,108.79c2.32,0,4.22,0.54,5.71,1.6c1.49,1.07,2.65,2.45,3.48,4.15c0.83,1.69,1.4,3.58,1.72,5.66
		c0.31,2.08,0.47,4.15,0.47,6.2c0,2.08-0.16,4.16-0.47,6.24c-0.31,2.08-0.88,3.97-1.72,5.66c-0.83,1.67-1.99,3.03-3.48,4.08
		s-3.39,1.58-5.71,1.58s-4.21-0.53-5.66-1.58c-1.46-1.05-2.59-2.42-3.39-4.08c-0.8-1.69-1.35-3.58-1.63-5.66
		c-0.28-2.08-0.42-4.16-0.42-6.24c0-2.05,0.14-4.12,0.42-6.2c0.28-2.08,0.82-3.97,1.63-5.66c0.8-1.69,1.92-3.08,3.37-4.15
		C101.44,109.32,103.33,108.79,105.68,108.79z M105.68,113.02c-1.4,0-2.49,0.48-3.28,1.43c-0.79,0.95-1.38,2.11-1.76,3.48
		c-0.42,1.37-0.67,2.82-0.76,4.37c-0.09,1.55-0.13,2.91-0.13,4.1c0,1.22,0.04,2.59,0.13,4.12c0.09,1.53,0.34,2.98,0.76,4.35
		c0.39,1.37,0.97,2.51,1.76,3.43c0.79,0.92,1.88,1.38,3.28,1.38c1.37,0,2.46-0.46,3.28-1.38c0.82-0.92,1.45-2.07,1.89-3.43
		c0.42-1.37,0.69-2.82,0.83-4.35c0.13-1.53,0.2-2.91,0.2-4.12c0-1.19-0.07-2.56-0.2-4.1s-0.41-3-0.83-4.37
		c-0.45-1.37-1.08-2.53-1.89-3.48C108.14,113.5,107.05,113.02,105.68,113.02z"/>
	<path class="st2" d="M127.75,109.68c1.28,0,2.4,0.27,3.37,0.8s1.78,1.23,2.43,2.1c0.65,0.86,1.15,1.84,1.49,2.94
		s0.51,2.23,0.51,3.39s-0.17,2.29-0.51,3.39s-0.84,2.08-1.49,2.94c-0.65,0.86-1.46,1.55-2.43,2.05c-0.97,0.51-2.09,0.76-3.37,0.76
		c-1.31,0-2.45-0.25-3.41-0.76c-0.97-0.5-1.78-1.19-2.43-2.05s-1.14-1.84-1.47-2.94c-0.33-1.1-0.49-2.23-0.49-3.39
		s0.16-2.29,0.49-3.39c0.33-1.1,0.82-2.08,1.47-2.94s1.46-1.56,2.43-2.1C125.31,109.95,126.44,109.68,127.75,109.68z M127.71,113.29
		c-1.16,0-1.96,0.58-2.39,1.74c-0.43,1.16-0.65,2.47-0.65,3.92c0,1.46,0.21,2.74,0.65,3.83c0.43,1.1,1.23,1.65,2.39,1.65
		s1.98-0.56,2.45-1.67c0.47-1.11,0.71-2.39,0.71-3.81s-0.24-2.73-0.71-3.9C129.68,113.88,128.87,113.29,127.71,113.29z
		 M143.71,109.14h4.9l-17.88,33.97h-4.9L143.71,109.14z M146.7,125.02c1.25,0,2.36,0.26,3.32,0.78c0.97,0.52,1.79,1.21,2.47,2.07
		c0.65,0.86,1.16,1.83,1.52,2.92c0.36,1.09,0.54,2.21,0.54,3.37s-0.18,2.3-0.54,3.41c-0.36,1.11-0.86,2.1-1.52,2.96
		c-0.68,0.86-1.51,1.55-2.47,2.07c-0.96,0.52-2.07,0.78-3.32,0.78c-1.28,0-2.4-0.26-3.37-0.78c-0.97-0.52-1.78-1.21-2.43-2.07
		c-0.65-0.86-1.14-1.85-1.47-2.96c-0.33-1.12-0.49-2.25-0.49-3.41s0.16-2.28,0.49-3.37c0.33-1.08,0.82-2.06,1.47-2.92
		c0.65-0.86,1.46-1.55,2.43-2.07C144.3,125.28,145.42,125.02,146.7,125.02z M146.66,128.63c-1.16,0-1.95,0.56-2.36,1.69
		s-0.62,2.42-0.62,3.88s0.21,2.73,0.62,3.83c0.42,1.1,1.2,1.65,2.36,1.65c1.16,0,1.98-0.56,2.47-1.67c0.49-1.11,0.73-2.38,0.73-3.81
		s-0.24-2.71-0.73-3.86S147.82,128.63,146.66,128.63z"/>
</g>
</svg>
