<?xml version="1.0" encoding="utf-8"?>
<!-- Generator: Adobe Illustrator 25.2.0, SVG Export Plug-In . SVG Version: 6.00 Build 0)  -->
<svg version="1.1" id="레이어_1" xmlns="http://www.w3.org/2000/svg" xmlns:xlink="http://www.w3.org/1999/xlink" x="0px"
	 y="0px" viewBox="0 0 200 200" style="enable-background:new 0 0 200 200;" xml:space="preserve">
<style type="text/css">
	.st0{fill:#EB76A1;}
	.st1{enable-background:new    ;}
	.st2{fill:#FFFFFF;}
</style>
<path class="st0" d="M154.58,199.68H45.42C20.33,199.68,0,179.35,0,154.27V45.1C0,20.02,20.33-0.32,45.42-0.32h109.16
	C179.67-0.32,200,20.02,200,45.1v109.16C200,179.35,179.67,199.68,154.58,199.68z"/>
<g class="st1">
	<path class="st2" d="M4.76,61.44h23.27v4.28H4.76V61.44z M16.49,87.21c-1.58,0-3.01-0.24-4.3-0.71c-1.29-0.47-2.39-1.14-3.28-2.01
		c-0.92-0.86-1.64-1.89-2.14-3.08c-0.51-1.19-0.76-2.5-0.76-3.92c0-1.37,0.24-2.65,0.71-3.83c0.48-1.19,1.17-2.21,2.1-3.08
		c0.92-0.86,2.03-1.54,3.32-2.03c1.29-0.49,2.74-0.74,4.35-0.74s3.05,0.25,4.32,0.74c1.28,0.49,2.38,1.17,3.3,2.03
		c0.92,0.86,1.63,1.89,2.12,3.08c0.49,1.19,0.74,2.47,0.74,3.83c0,1.43-0.26,2.73-0.78,3.92c-0.52,1.19-1.23,2.21-2.12,3.08
		c-0.92,0.86-2.03,1.53-3.32,2.01C19.46,86.97,18.04,87.21,16.49,87.21z M10.25,54.8h12.44v4.1H10.25V54.8z M16.49,72.1
		c-1.69,0-3,0.52-3.92,1.56c-0.92,1.04-1.38,2.32-1.38,3.83c0,1.58,0.47,2.88,1.4,3.9c0.94,1.03,2.24,1.54,3.9,1.54
		c1.63,0,2.93-0.51,3.88-1.54c0.95-1.03,1.43-2.33,1.43-3.9c0-1.52-0.48-2.79-1.43-3.83C19.42,72.62,18.12,72.1,16.49,72.1z
		 M31.47,94.12V54.26h4.99v15.87h5.44v4.59h-5.44v19.39H31.47z"/>
	<path class="st2" d="M43.82,65.01c0-1.43,0.26-2.76,0.78-4.01c0.52-1.25,1.24-2.33,2.16-3.25c0.95-0.92,2.07-1.66,3.37-2.21
		s2.71-0.83,4.26-0.83c1.72,0,3.29,0.33,4.7,1c1.41,0.67,2.59,1.55,3.54,2.65h8.74v-4.1h4.99v23.99h-4.99v-6.96h-8.43
		c-0.95,1.25-2.16,2.22-3.61,2.92c-1.46,0.7-3.11,1.05-4.95,1.05c-1.55,0-2.96-0.26-4.26-0.78c-1.29-0.52-2.42-1.24-3.37-2.16
		c-0.92-0.92-1.64-2.01-2.16-3.25C44.08,67.82,43.82,66.46,43.82,65.01z M62.77,78.07c2.02,0,3.91,0.19,5.66,0.58
		c1.75,0.39,3.27,0.94,4.55,1.65c1.28,0.71,2.28,1.59,3.01,2.63c0.73,1.04,1.09,2.23,1.09,3.57c0,1.37-0.36,2.57-1.09,3.61
		c-0.73,1.04-1.73,1.92-3.01,2.63c-1.31,0.71-2.83,1.25-4.57,1.61c-1.74,0.36-3.63,0.53-5.69,0.53c-2.05,0-3.94-0.18-5.66-0.53
		c-1.72-0.36-3.23-0.89-4.5-1.61c-1.28-0.71-2.27-1.59-2.99-2.63c-0.71-1.04-1.07-2.24-1.07-3.61c0-1.31,0.37-2.48,1.11-3.52
		c0.74-1.04,1.75-1.93,3.03-2.67c1.31-0.71,2.82-1.26,4.55-1.65C58.92,78.26,60.78,78.07,62.77,78.07z M54.39,71.03
		c1.69,0,3.04-0.6,4.04-1.81c1-1.2,1.49-2.61,1.49-4.21c0-1.66-0.5-3.08-1.49-4.26c-1-1.17-2.34-1.76-4.04-1.76
		c-1.72,0-3.08,0.58-4.06,1.74c-0.98,1.16-1.47,2.59-1.47,4.28c0,1.6,0.49,3.01,1.47,4.21C51.31,70.42,52.66,71.03,54.39,71.03z
		 M62.77,82.04c-2.59,0-4.71,0.39-6.38,1.16c-1.67,0.77-2.5,1.84-2.5,3.21c0,1.4,0.84,2.5,2.52,3.32c1.68,0.82,3.8,1.23,6.35,1.23
		c2.62,0,4.75-0.42,6.4-1.25c1.65-0.83,2.47-1.93,2.47-3.3c0-1.4-0.82-2.47-2.45-3.23C67.56,82.42,65.42,82.04,62.77,82.04z
		 M64.69,62.47c0.09,0.42,0.16,0.83,0.22,1.25c0.06,0.42,0.09,0.85,0.09,1.29c0,0.39-0.02,0.76-0.07,1.11
		c-0.04,0.36-0.1,0.7-0.16,1.03h6.6v-4.68H64.69z"/>
	<path class="st2" d="M118.37,89.26H81.5v-4.28h36.87V89.26z M87.38,56.09h26.66v4.28H91.26V72.1h23.09v4.24H87.34
		c-0.48,0-0.8-0.09-0.96-0.27c-0.16-0.18-0.25-0.51-0.25-0.98V57.34c0-0.45,0.09-0.76,0.27-0.96
		C86.58,56.19,86.91,56.09,87.38,56.09z"/>
	<path class="st2" d="M140.88,56.18c0.45,0,0.76,0.1,0.96,0.29s0.29,0.51,0.29,0.96v13.78c0,0.48-0.1,0.8-0.29,0.98
		c-0.19,0.18-0.51,0.27-0.96,0.27h-12.26v8.12l6.11-0.04c0.98,0,2.06-0.04,3.23-0.13c1.17-0.09,2.34-0.19,3.5-0.31
		s2.25-0.25,3.28-0.38c1.03-0.13,1.89-0.28,2.61-0.42v4.28c-0.68,0.12-1.55,0.25-2.61,0.38c-1.06,0.13-2.21,0.26-3.46,0.38
		c-1.22,0.12-2.5,0.23-3.86,0.33c-1.35,0.1-2.65,0.16-3.9,0.16c-0.36,0-1,0.01-1.94,0.02c-0.94,0.02-1.89,0.02-2.88,0.02
		c-0.98,0-1.87,0-2.65,0c-0.79,0-1.21,0-1.27,0c-0.48,0-0.8-0.09-0.98-0.27c-0.18-0.18-0.27-0.5-0.27-0.98V69.51
		c0-0.45,0.09-0.76,0.27-0.96c0.18-0.19,0.5-0.29,0.98-0.29h12.39v-7.8h-13.64v-4.28H140.88z M148.87,94.12V54.26h5.08v39.86H148.87
		z"/>
	<path class="st2" d="M163.71,56.63h16.36c0.45,0,0.76,0.1,0.96,0.29c0.19,0.19,0.29,0.51,0.29,0.96v25.24c0,0.48-0.1,0.8-0.29,0.98
		c-0.19,0.18-0.51,0.27-0.96,0.27h-16.41c-0.48,0-0.8-0.08-0.96-0.25c-0.16-0.16-0.25-0.48-0.25-0.96V57.87
		c0-0.45,0.09-0.76,0.27-0.96C162.91,56.72,163.24,56.63,163.71,56.63z M176.33,80.12V60.86h-8.87v19.26H176.33z M187.88,94.17
		v-39.9h5.04v39.9H187.88z"/>
</g>
<g class="st1">
	<path class="st2" d="M37.75,139.37c-1.9-1.31-3.69-2.88-5.35-4.73c-1.67-1.84-2.93-3.75-3.79-5.71c-0.33,0.98-0.8,1.98-1.43,3.01
		s-1.35,2.03-2.18,3.01c-0.83,0.98-1.73,1.93-2.7,2.85c-0.97,0.92-1.95,1.74-2.96,2.45l-4.1-3.3c3.66-2.29,6.35-5.07,8.07-8.36
		c1.72-3.28,2.6-6.89,2.63-10.81v-8.56h5.26v8.83c0,3.92,0.85,7.36,2.54,10.3s4.28,5.48,7.76,7.62L37.75,139.37z M43.73,147.67
		v-39.9h4.99v15.03h5.48v4.5h-5.48v20.38H43.73z"/>
	<path class="st2" d="M92.42,130.72H55.63v-4.24h9.5v-5.17c-1.87-0.62-3.3-1.47-4.28-2.54c-0.98-1.07-1.47-2.32-1.47-3.75
		c0-2.23,1.3-4.04,3.9-5.44c2.6-1.4,6.18-2.1,10.72-2.1c4.55,0,8.12,0.7,10.72,2.1c2.6,1.4,3.9,3.21,3.9,5.44
		c0,1.4-0.49,2.63-1.47,3.7c-0.98,1.07-2.36,1.92-4.15,2.54v5.22h9.41V130.72z M74,133c4.79,0,8.45,0.71,10.99,2.12
		s3.81,3.28,3.81,5.6c0,2.35-1.26,4.22-3.79,5.62c-2.53,1.4-6.2,2.1-11.01,2.1c-4.85,0-8.52-0.7-11.03-2.1
		c-2.51-1.4-3.77-3.27-3.77-5.62c0-2.32,1.26-4.18,3.79-5.6S69.19,133,74,133z M74,111.2c-2.73,0-4.94,0.35-6.62,1.05
		c-1.68,0.7-2.52,1.66-2.52,2.88c0,1.16,0.85,2.07,2.54,2.72c1.69,0.65,3.89,0.98,6.6,0.98c2.68,0,4.87-0.33,6.58-0.98
		c1.71-0.65,2.56-1.56,2.56-2.72c0-1.22-0.85-2.18-2.54-2.88C78.91,111.54,76.71,111.2,74,111.2z M74,136.83
		c-2.82,0-5.05,0.33-6.69,0.98c-1.64,0.65-2.45,1.61-2.45,2.85c0,1.34,0.82,2.31,2.45,2.92c1.63,0.61,3.86,0.91,6.69,0.91
		c2.79,0,5.02-0.3,6.67-0.91c1.65-0.61,2.47-1.58,2.47-2.92c0-1.25-0.82-2.2-2.47-2.85C79.02,137.16,76.8,136.83,74,136.83z
		 M70.08,122.39v4.1h7.98v-4.1c-0.62,0.09-1.28,0.15-1.96,0.18c-0.68,0.03-1.38,0.04-2.1,0.04s-1.4-0.01-2.05-0.04
		C71.3,122.54,70.67,122.48,70.08,122.39z"/>
	<path class="st2" d="M128.53,127.51c0,0.48-0.1,0.8-0.29,0.98c-0.19,0.18-0.51,0.27-0.96,0.27h-16.54c-0.48,0-0.8-0.09-0.96-0.27
		c-0.16-0.18-0.25-0.5-0.25-0.98v-18.55h5.04v5.66h9.05v-5.66h4.9V127.51z M126.7,132.46c2.02,0,3.89,0.18,5.62,0.54
		c1.72,0.36,3.22,0.88,4.5,1.56c1.25,0.68,2.23,1.52,2.94,2.52c0.71,1,1.07,2.12,1.07,3.37c0,1.31-0.36,2.45-1.07,3.43
		c-0.71,0.98-1.69,1.81-2.94,2.5c-1.28,0.65-2.78,1.15-4.5,1.49c-1.72,0.34-3.61,0.51-5.66,0.51s-3.93-0.17-5.64-0.51
		s-3.19-0.84-4.44-1.49c-1.25-0.68-2.22-1.52-2.92-2.5c-0.7-0.98-1.05-2.12-1.05-3.43c0-1.25,0.36-2.36,1.07-3.34
		c0.71-0.98,1.71-1.81,2.99-2.5c1.28-0.68,2.77-1.21,4.48-1.58C122.86,132.65,124.71,132.46,126.7,132.46z M123.63,124.53v-5.66
		h-9.05v5.66H123.63z M126.7,136.43c-2.59,0-4.68,0.36-6.29,1.07c-1.61,0.71-2.41,1.68-2.41,2.9s0.81,2.2,2.43,2.94
		c1.62,0.74,3.71,1.12,6.27,1.12c2.62,0,4.72-0.38,6.31-1.14c1.59-0.76,2.38-1.73,2.38-2.92c0-1.25-0.79-2.22-2.36-2.92
		S129.35,136.43,126.7,136.43z M139.85,107.76v8.69h5.13v4.24h-5.13v11.64h-5.08v-24.57H139.85z"/>
	<path class="st2" d="M149.13,126.53v-17.61h4.99v5.39h8.87v-5.39h4.99v6.46h7.13v-7.62h4.99v21.76h-4.99v-9.85h-7.13v6.87
		c0,0.48-0.1,0.8-0.29,0.98c-0.19,0.18-0.51,0.27-0.96,0.27h-16.41c-0.48,0-0.79-0.09-0.96-0.27
		C149.21,127.34,149.13,127.01,149.13,126.53z M153.18,146.02v-15.07h4.95V135h16.99v-4.06h4.95v15.07c0,0.47-0.1,0.8-0.29,0.98
		s-0.51,0.27-0.96,0.27h-24.39c-0.48,0-0.8-0.09-0.98-0.27C153.27,146.82,153.18,146.49,153.18,146.02z M162.99,123.55v-4.99h-8.87
		v4.99H162.99z M175.12,143.21v-4.15h-16.99v4.15H175.12z"/>
</g>
</svg>
