<?xml version="1.0" encoding="utf-8"?>
<!-- Generator: Adobe Illustrator 25.2.0, SVG Export Plug-In . SVG Version: 6.00 Build 0)  -->
<svg version="1.1" id="레이어_1" xmlns="http://www.w3.org/2000/svg" xmlns:xlink="http://www.w3.org/1999/xlink" x="0px"
	 y="0px" viewBox="0 0 200 200" style="enable-background:new 0 0 200 200;" xml:space="preserve">
<style type="text/css">
	.st0{fill:#EB76A1;}
	.st1{fill:#FFFFFF;}
</style>
<path class="st0" d="M154.58,199.68H45.42C20.33,199.68,0,179.35,0,154.27V45.1C0,20.02,20.33-0.32,45.42-0.32h109.16
	C179.67-0.32,200,20.02,200,45.1v109.16C200,179.35,179.67,199.68,154.58,199.68z"/>
<g>
	<path class="st1" d="M37.58,63.94v-3.88H60.9v3.88H37.58z M49.22,78.61c-3.33,0-5.89-0.64-7.69-1.92c-1.8-1.28-2.7-2.81-2.7-4.59
		c0-1.78,0.89-3.31,2.68-4.57c1.78-1.26,4.35-1.9,7.71-1.9c3.33,0,5.89,0.63,7.69,1.9c1.8,1.26,2.7,2.79,2.7,4.57
		c0,1.78-0.91,3.31-2.72,4.59C55.07,77.97,52.52,78.61,49.22,78.61z M67.81,81.55c0.45,0,0.77,0.1,0.96,0.29
		c0.19,0.19,0.29,0.51,0.29,0.96v11.55h-5.22V85.7H41.95v-4.15H67.81z M42.93,54.08h12.44v3.79H42.93V54.08z M49.22,69.11
		c-1.58,0-2.84,0.26-3.79,0.78C44.48,70.41,44,71.13,44,72.05c0,1.01,0.48,1.75,1.43,2.23c0.95,0.48,2.21,0.71,3.79,0.71
		c1.55,0,2.8-0.24,3.77-0.71c0.97-0.48,1.45-1.22,1.45-2.23c0-0.92-0.48-1.64-1.45-2.16C52.02,69.37,50.76,69.11,49.22,69.11z
		 M69.06,54.26V64.7h5.17v4.5h-5.17v10.75h-5.04V54.26H69.06z"/>
	<path class="st1" d="M97.55,71.34v14.13h14.36v4.28H75.03v-4.28h8.03V71.34h5.08v14.13h4.28V71.34H97.55z M106.69,56.45
		c0.45,0,0.76,0.1,0.96,0.29c0.19,0.19,0.29,0.51,0.29,0.96c-0.12,1.66-0.25,3.45-0.38,5.35c-0.13,1.9-0.29,3.85-0.47,5.84
		c-0.18,1.99-0.39,3.96-0.62,5.91s-0.51,3.78-0.8,5.51h-4.99c0.56-3.15,1-6.43,1.29-9.83c0.3-3.4,0.49-6.67,0.58-9.79H78.91v-4.24
		H106.69z"/>
	<path class="st1" d="M131.3,84.4c-0.48,0-0.79-0.09-0.96-0.27c-0.16-0.18-0.25-0.51-0.25-0.98V56.09h5.08V79.9l3.43-0.09
		c0.42,0,0.96-0.03,1.63-0.09c0.67-0.06,1.36-0.12,2.07-0.18c0.71-0.09,1.41-0.19,2.1-0.29c0.68-0.1,1.25-0.2,1.69-0.29v4.33
		c-0.39,0.09-0.94,0.19-1.65,0.31c-0.71,0.12-1.52,0.24-2.41,0.36c-0.86,0.09-1.75,0.17-2.67,0.25c-0.92,0.07-1.77,0.11-2.54,0.11
		c-0.27,0.03-0.7,0.05-1.29,0.07c-0.6,0.02-1.2,0.02-1.83,0.02c-0.62,0.03-1.17,0.04-1.65,0.04
		C131.58,84.45,131.33,84.43,131.3,84.4z M147.53,92.25V54.93h4.86v12.71h3.92V54.22h4.86v39.95h-4.86V72.54h-3.92v19.71H147.53z"/>
	<path class="st1" d="M37.67,133.09c3.98,0.27,7.02,1.08,9.12,2.43c2.1,1.35,3.14,3.08,3.14,5.19c0,2.35-1.26,4.22-3.79,5.62
		c-2.53,1.4-6.2,2.1-11.01,2.1c-4.85,0-8.52-0.7-11.03-2.1c-2.51-1.4-3.77-3.27-3.77-5.62c0-2.11,1.03-3.84,3.1-5.19
		c2.07-1.35,5.06-2.16,8.98-2.43v-3.92H16.76v-4.19h36.78v4.19H37.67V133.09z M20.99,108.79h28.27v4.24H38.07
		c0.3,1.04,0.89,1.92,1.78,2.63c0.89,0.71,1.98,1.31,3.25,1.78c1.25,0.51,2.62,0.91,4.12,1.2c1.5,0.3,3.01,0.54,4.53,0.71
		l-3.03,3.66c-1.31-0.21-2.64-0.46-3.99-0.76c-1.35-0.3-2.64-0.68-3.86-1.16c-1.25-0.45-2.38-0.99-3.39-1.63
		c-1.01-0.64-1.83-1.39-2.45-2.25c-0.71,0.86-1.57,1.6-2.56,2.23c-1,0.62-2.1,1.17-3.32,1.65c-1.19,0.48-2.45,0.87-3.77,1.18
		c-1.32,0.31-2.64,0.56-3.95,0.74l-3.08-3.61c1.78-0.3,3.46-0.62,5.02-0.98c1.56-0.36,2.95-0.77,4.17-1.25
		c1.19-0.5,2.19-1.09,2.99-1.76c0.8-0.67,1.34-1.46,1.61-2.39H20.99V108.79z M35.13,136.83c-2.82,0-5.05,0.33-6.69,0.98
		c-1.64,0.65-2.45,1.61-2.45,2.85c0,1.34,0.82,2.31,2.45,2.92c1.63,0.61,3.86,0.91,6.69,0.91c2.79,0,5.02-0.3,6.67-0.91
		c1.65-0.61,2.47-1.58,2.47-2.92c0-1.25-0.82-2.2-2.47-2.85C40.14,137.16,37.92,136.83,35.13,136.83z"/>
	<path class="st1" d="M69.24,131.04v7.94h9.72v-7.94h5.04v7.94h8.43v4.28H55.59v-4.28h8.52v-7.94H69.24z M74.05,130.59
		c-2.29,0-4.32-0.27-6.09-0.83c-1.77-0.55-3.26-1.32-4.48-2.3c-1.25-0.98-2.18-2.14-2.81-3.48c-0.62-1.34-0.94-2.79-0.94-4.37
		c0-1.54,0.31-2.99,0.94-4.35c0.62-1.35,1.55-2.52,2.76-3.5c1.22-1.01,2.72-1.8,4.5-2.36c1.78-0.56,3.82-0.85,6.11-0.85
		c2.26,0,4.28,0.28,6.06,0.85c1.78,0.57,3.27,1.35,4.46,2.36c1.22,0.98,2.15,2.15,2.79,3.5s0.96,2.8,0.96,4.35
		c0,1.58-0.32,3.03-0.96,4.37c-0.64,1.34-1.57,2.5-2.79,3.48c-1.22,0.98-2.71,1.75-4.48,2.3C78.32,130.32,76.31,130.59,74.05,130.59
		z M74.05,112.8c-2.59,0-4.72,0.6-6.4,1.81s-2.52,2.88-2.52,5.02c0,2.14,0.84,3.8,2.52,4.97c1.68,1.17,3.81,1.76,6.4,1.76
		c2.56,0,4.68-0.59,6.38-1.76c1.69-1.17,2.54-2.83,2.54-4.97c0-2.14-0.85-3.81-2.54-5.02C78.73,113.41,76.61,112.8,74.05,112.8z"/>
	<path class="st1" d="M129.07,139.38c-1.84-1.25-3.6-2.78-5.28-4.59c-1.68-1.81-2.98-3.75-3.9-5.8c-0.24,0.8-0.65,1.7-1.25,2.7
		c-0.59,1-1.32,2-2.18,3.01c-0.83,1.04-1.76,2.04-2.79,3.01c-1.03,0.97-2.04,1.82-3.05,2.56l-4.19-3.3
		c3.75-2.29,6.47-5.07,8.18-8.36c1.71-3.28,2.56-6.89,2.56-10.81v-8.56h5.31v8.83c-0.03,3.66,0.81,7.05,2.52,10.19
		c1.71,3.14,4.3,5.71,7.78,7.74L129.07,139.38z M136.34,147.67v-39.9h5.04v39.9H136.34z"/>
	<path class="st1" d="M145.61,124.98c3.03-1.34,5.51-3.13,7.42-5.37c1.92-2.24,2.89-4.7,2.92-7.38v-3.75h5.31v3.66
		c-0.03,1.25,0.22,2.46,0.76,3.63c0.54,1.17,1.26,2.27,2.19,3.28c0.89,1.01,1.92,1.92,3.1,2.72c1.17,0.8,2.41,1.43,3.72,1.87
		l-3.12,3.52c-1.93-0.89-3.72-1.98-5.35-3.25c-1.63-1.28-2.94-2.72-3.92-4.32c-0.89,1.78-2.08,3.37-3.57,4.75s-3.3,2.7-5.44,3.95
		L145.61,124.98z M154.62,147.4c-0.48,0-0.8-0.09-0.98-0.27s-0.27-0.51-0.27-0.98v-7.89c0-0.45,0.09-0.76,0.27-0.96
		s0.5-0.29,0.98-0.29h20.24v-2.85h-21.49v-3.92h25.55c0.45,0,0.76,0.1,0.96,0.29c0.19,0.19,0.29,0.51,0.29,0.96v7.8
		c0,0.48-0.1,0.8-0.29,0.98c-0.19,0.18-0.51,0.27-0.96,0.27h-20.15v2.94h22.29v3.92H154.62z M167.19,113.47h8.03v-5.71h5.04v20.91
		h-5.04V117.8h-8.03V113.47z"/>
</g>
</svg>
