<?xml version="1.0" encoding="utf-8"?>
<!-- Generator: Adobe Illustrator 25.2.0, SVG Export Plug-In . SVG Version: 6.00 Build 0)  -->
<svg version="1.1" id="레이어_1" xmlns="http://www.w3.org/2000/svg" xmlns:xlink="http://www.w3.org/1999/xlink" x="0px"
	 y="0px" viewBox="0 0 200 200" style="enable-background:new 0 0 200 200;" xml:space="preserve">
<style type="text/css">
	.st0{fill:#EB76A1;}
	.st1{fill:#FFFFFF;}
</style>
<path class="st0" d="M154.58,199.68H45.42C20.33,199.68,0,179.35,0,154.27V45.1C0,20.02,20.33-0.32,45.42-0.32h109.16
	C179.67-0.32,200,20.02,200,45.1v109.16C200,179.35,179.67,199.68,154.58,199.68z"/>
<g>
	<path class="st1" d="M77.84,77.4c-3.72-0.45-6.55-1.7-8.49-3.77c-1.95-2.07-2.92-4.51-2.92-7.33c0-1.55,0.3-3,0.91-4.37
		c0.61-1.37,1.51-2.56,2.7-3.57c1.19-1.01,2.66-1.81,4.41-2.41c1.75-0.59,3.77-0.89,6.06-0.89c2.26,0,4.26,0.3,6.02,0.89
		c1.75,0.6,3.22,1.4,4.41,2.41c1.19,1.01,2.1,2.2,2.72,3.57c0.62,1.37,0.94,2.82,0.94,4.37c0,2.85-0.99,5.31-2.96,7.38
		c-1.98,2.07-4.84,3.31-8.58,3.72v8.07h15.87v4.28H62.01v-4.28h15.83V77.4z M80.52,59.3c-2.59,0-4.7,0.63-6.33,1.9
		c-1.63,1.26-2.45,2.96-2.45,5.1s0.82,3.84,2.45,5.1c1.63,1.26,3.75,1.9,6.33,1.9c2.56,0,4.66-0.63,6.31-1.9
		c1.65-1.26,2.47-2.96,2.47-5.1s-0.82-3.84-2.47-5.1C85.17,59.93,83.07,59.3,80.52,59.3z"/>
	<path class="st1" d="M100.98,68.62h36.78v4.06h-36.78V68.62z M106.73,65.59c-0.48,0-0.8-0.09-0.96-0.27
		c-0.16-0.18-0.25-0.51-0.25-0.98V54.17h5.17v7.4h23.01v4.01H106.73z M131.92,76.02c0.45,0,0.76,0.1,0.96,0.29
		c0.19,0.19,0.29,0.51,0.29,0.96v8.2c0,0.48-0.1,0.8-0.29,0.98s-0.51,0.27-0.96,0.27h-20.69v3.34h22.79v3.83h-27.24
		c-0.48,0-0.8-0.09-0.98-0.27c-0.18-0.18-0.27-0.51-0.27-0.98V84.4c0-0.45,0.09-0.76,0.27-0.96c0.18-0.19,0.51-0.29,0.98-0.29h20.69
		V79.9h-21.94v-3.88H131.92z"/>
	<path class="st1" d="M35.71,146.87V132.6h-9.23v-4.28c1.13,0,2.34,0,3.63,0s2.5,0,3.63,0c1.16,0,2.18,0,3.05,0
		c0.88,0,1.49-0.01,1.85-0.04c1.16-0.03,2.45-0.08,3.88-0.16s2.82-0.16,4.19-0.25c1.37-0.09,2.63-0.19,3.79-0.29
		c1.16-0.1,2.08-0.22,2.76-0.33v4.33c-0.8,0.15-1.78,0.28-2.92,0.4c-1.14,0.12-2.31,0.22-3.5,0.31c-1.22,0.09-2.37,0.16-3.46,0.2
		c-1.09,0.04-1.97,0.07-2.65,0.07v14.31H35.71z M30.71,109.28h17.48c0.45,0,0.76,0.1,0.96,0.29c0.19,0.19,0.29,0.51,0.29,0.96v12.53
		c0,0.48-0.1,0.8-0.29,0.98c-0.19,0.18-0.51,0.27-0.96,0.27H30.67c-0.48,0-0.8-0.08-0.96-0.25c-0.16-0.16-0.25-0.48-0.25-0.96
		v-12.57c0-0.45,0.09-0.76,0.27-0.96C29.91,109.38,30.24,109.28,30.71,109.28z M44.45,120.16v-6.73H34.41v6.73H44.45z M54.52,147.67
		v-7.62h-8.96v-4.28h8.96v-28h4.99v39.9H54.52z"/>
	<path class="st1" d="M81.23,109.37h16.23c0.45,0,0.76,0.1,0.96,0.29c0.19,0.19,0.29,0.51,0.29,0.96v5.84h7.18v-8.69h5.04v23.85
		h-5.04v-10.79h-7.18v6.69c0,0.48-0.1,0.8-0.29,0.98c-0.19,0.18-0.51,0.27-0.96,0.27H81.18c-0.48,0-0.8-0.08-0.96-0.25
		c-0.16-0.16-0.25-0.48-0.25-0.96v-16.94c0-0.45,0.09-0.77,0.27-0.96C80.43,109.47,80.75,109.37,81.23,109.37z M109.67,133.18
		c0.45,0,0.76,0.1,0.96,0.29c0.19,0.19,0.29,0.51,0.29,0.96v13.42h-5.04v-10.48H83.23v-4.19H109.67z M93.76,124.53v-10.92h-8.87
		v10.92H93.76z"/>
	<path class="st1" d="M118.68,110.08h21.54v4.19h-8.11v3.48c0,3.95,0.81,7.45,2.43,10.48c1.62,3.03,4.21,5.56,7.78,7.58l-3.57,3.43
		c-2.14-1.37-4.04-2.96-5.71-4.77c-1.67-1.81-2.87-3.69-3.61-5.62c-0.77,2.11-2.04,4.18-3.81,6.2c-1.77,2.02-3.65,3.75-5.64,5.17
		l-4.15-3.34c3.3-1.96,5.94-4.53,7.91-7.71s2.96-7.06,2.96-11.64v-3.25h-8.03V110.08z M145.43,147.67v-39.9h5.04v39.9H145.43z"/>
	<path class="st1" d="M165.18,108.21c1.37,0,2.59,0.23,3.68,0.69s2,1.09,2.74,1.89c0.74,0.77,1.32,1.69,1.72,2.74
		c0.4,1.06,0.6,2.18,0.6,3.37c0,1.78-0.51,3.43-1.52,4.93c-1.01,1.5-2.11,2.74-3.3,3.72c-1.01,0.8-1.8,1.7-2.36,2.7
		s-0.85,2.38-0.85,4.17v2.85h-4.77c-0.09-0.89-0.16-1.7-0.2-2.43c-0.04-0.73-0.07-1.43-0.07-2.12c0-1.61,0.39-2.96,1.16-4.06
		c0.77-1.1,1.69-2.11,2.76-3.03c1.1-0.92,2.02-1.91,2.76-2.96c0.74-1.05,1.11-2.24,1.11-3.54c0-1.49-0.36-2.63-1.07-3.43
		c-0.71-0.8-1.78-1.2-3.21-1.2c-1.07,0-2.17,0.27-3.3,0.8c-1.13,0.54-2.18,1.28-3.17,2.23l-2.36-3.39c1.25-1.28,2.65-2.25,4.21-2.92
		C161.33,108.55,163.13,108.21,165.18,108.21z M160.73,138.93h5.75v5.4h-5.75V138.93z"/>
</g>
</svg>
