<?xml version="1.0" encoding="utf-8"?>
<!-- Generator: Adobe Illustrator 25.2.0, SVG Export Plug-In . SVG Version: 6.00 Build 0)  -->
<svg version="1.1" id="레이어_1" xmlns="http://www.w3.org/2000/svg" xmlns:xlink="http://www.w3.org/1999/xlink" x="0px"
	 y="0px" viewBox="0 0 200 200" style="enable-background:new 0 0 200 200;" xml:space="preserve">
<style type="text/css">
	.st0{fill:#EB76A1;}
	.st1{fill:#FFFFFF;}
</style>
<path class="st0" d="M154.58,199.68H45.42C20.33,199.68,0,179.35,0,154.27V45.1C0,20.02,20.33-0.32,45.42-0.32h109.16
	C179.67-0.32,200,20.02,200,45.1v109.16C200,179.35,179.67,199.68,154.58,199.68z"/>
<g>
	<path class="st1" d="M63.53,56.54c0.45,0,0.77,0.1,0.96,0.29c0.19,0.19,0.29,0.51,0.29,0.96c-0.36,6.15-1.9,11.67-4.61,16.54
		c-2.72,4.88-6.78,9.01-12.19,12.4l-4.24-3.34c4.82-2.59,8.51-5.77,11.08-9.54c2.57-3.77,4.02-8.11,4.35-13.02H45.92v-4.28H63.53z
		 M76.64,54.26v39.9H71.6v-39.9H76.64z"/>
	<path class="st1" d="M81.54,72.19h36.78v4.24h-15.92v4.59h10.08c0.45,0,0.76,0.1,0.96,0.29c0.19,0.19,0.29,0.51,0.29,0.96v12.13
		h-5.17v-9.14H85.64v-4.24h11.55v-4.59H81.54V72.19z M83.01,66.48c1.96-0.45,3.8-1.02,5.53-1.72c1.72-0.7,3.22-1.49,4.5-2.39
		c1.28-0.89,2.29-1.89,3.03-3.01c0.74-1.11,1.11-2.33,1.11-3.63v-1.52h5.53v1.52c-0.03,1.43,0.4,2.73,1.29,3.92
		c0.89,1.19,2.02,2.23,3.39,3.12c1.4,0.92,2.92,1.69,4.57,2.32c1.65,0.62,3.25,1.09,4.79,1.38l-3.12,3.57
		c-1.34-0.33-2.7-0.76-4.08-1.29c-1.38-0.54-2.68-1.16-3.9-1.87c-1.25-0.71-2.37-1.49-3.37-2.32c-1-0.83-1.78-1.72-2.34-2.68
		c-0.62,0.95-1.43,1.85-2.41,2.7s-2.08,1.63-3.3,2.34c-1.19,0.68-2.47,1.29-3.86,1.83c-1.38,0.54-2.79,0.97-4.21,1.29L83.01,66.48z"
		/>
	<path class="st1" d="M141.42,85.87c-1.9-1.31-3.69-2.88-5.35-4.73c-1.67-1.84-2.93-3.75-3.79-5.71c-0.33,0.98-0.8,1.98-1.43,3.01
		s-1.35,2.03-2.18,3.01c-0.83,0.98-1.73,1.93-2.7,2.85c-0.97,0.92-1.96,1.74-2.97,2.45l-4.1-3.3c3.66-2.29,6.35-5.08,8.07-8.36
		c1.72-3.28,2.6-6.89,2.63-10.81v-8.56h5.26v8.83c0,3.92,0.85,7.36,2.54,10.3c1.69,2.94,4.28,5.48,7.76,7.62L141.42,85.87z
		 M147.39,94.17v-39.9h4.99v15.03h5.48v4.5h-5.48v20.38H147.39z"/>
	<path class="st1" d="M15.6,127.12c2.73-1.63,4.84-3.65,6.31-6.04c1.47-2.39,2.21-5.31,2.21-8.76v-3.52h5.26v3.52
		c-0.03,3.15,0.6,5.79,1.9,7.91s3.25,3.93,5.86,5.42l-3.3,3.43c-1.49-0.98-2.87-2.12-4.15-3.41c-1.28-1.29-2.23-2.62-2.85-3.99
		c-0.62,1.52-1.55,3.03-2.79,4.55c-1.23,1.52-2.71,2.88-4.44,4.1L15.6,127.12z M37.18,131.57c2.08,0,4.01,0.19,5.8,0.58
		c1.78,0.39,3.33,0.94,4.64,1.65c1.28,0.71,2.29,1.59,3.03,2.63c0.74,1.04,1.11,2.23,1.11,3.57c0,1.37-0.37,2.57-1.11,3.61
		c-0.74,1.04-1.77,1.92-3.08,2.63c-1.28,0.71-2.82,1.25-4.61,1.61c-1.8,0.36-3.74,0.53-5.82,0.53s-4.01-0.18-5.77-0.53
		c-1.77-0.36-3.29-0.89-4.57-1.61c-1.31-0.71-2.32-1.59-3.03-2.63c-0.71-1.04-1.07-2.24-1.07-3.61c0-1.31,0.37-2.48,1.11-3.52
		c0.74-1.04,1.77-1.93,3.08-2.67c1.31-0.71,2.85-1.26,4.61-1.65C33.26,131.77,35.16,131.57,37.18,131.57z M37.13,135.54
		c-2.65,0-4.81,0.39-6.51,1.16c-1.69,0.77-2.54,1.84-2.54,3.21c0,1.4,0.85,2.5,2.56,3.32c1.71,0.82,3.87,1.23,6.49,1.23
		c2.73,0,4.95-0.42,6.64-1.25s2.54-1.93,2.54-3.3c0-1.4-0.84-2.47-2.52-3.23C42.12,135.92,39.9,135.54,37.13,135.54z M43.02,108.39
		v7.98h3.43v-8.6h4.9v24.21h-4.9v-11.06h-3.43v9.72h-4.9v-22.25H43.02z"/>
	<path class="st1" d="M66.16,125.06c-2.44-0.21-4.28-0.7-5.53-1.47s-1.87-1.74-1.87-2.9c0-1.37,0.87-2.45,2.61-3.25
		c1.74-0.8,4.3-1.2,7.69-1.2c3.36,0,5.91,0.4,7.67,1.2s2.63,1.89,2.63,3.25c0,1.16-0.63,2.13-1.9,2.9
		c-1.26,0.77-3.11,1.26-5.55,1.47v2.18c0.45,0,1.08-0.02,1.92-0.07c0.83-0.04,1.74-0.11,2.72-0.2c0.98-0.09,1.98-0.19,3.01-0.29
		s1.97-0.22,2.83-0.33v3.52c-0.68,0.09-1.56,0.19-2.63,0.29c-1.07,0.1-2.27,0.2-3.61,0.29c-1.34,0.09-2.76,0.16-4.26,0.22
		c-1.5,0.06-2.98,0.09-4.44,0.09H56.17v-3.43h9.99V125.06z M57.87,112.09h22.38v3.3H57.87V112.09z M63.31,138.57h19.8v-2.27H62.06
		v-3.39H87.2c0.45,0,0.76,0.1,0.96,0.29c0.19,0.19,0.29,0.51,0.29,0.96v6.2c0,0.48-0.1,0.8-0.29,0.98
		c-0.19,0.18-0.51,0.27-0.96,0.27H67.45v2.36h21.94v3.43H63.31c-0.48,0-0.8-0.09-0.98-0.27c-0.18-0.18-0.27-0.51-0.27-0.98v-6.33
		c0-0.45,0.09-0.76,0.27-0.96C62.5,138.67,62.83,138.57,63.31,138.57z M63.13,107.32h11.82v3.21H63.13V107.32z M69.06,119.09
		c-1.43,0-2.56,0.14-3.41,0.42c-0.85,0.28-1.27,0.69-1.27,1.23s0.42,0.94,1.27,1.23c0.85,0.28,1.98,0.42,3.41,0.42
		c1.4,0,2.53-0.14,3.39-0.42c0.86-0.28,1.29-0.69,1.29-1.23s-0.42-0.94-1.27-1.23C71.62,119.23,70.48,119.09,69.06,119.09z
		 M93.67,121.54h-5.22v9.94h-4.99v-23.72h4.99v9.5h5.22V121.54z"/>
	<path class="st1" d="M119.04,129.57c-1.67,0-3.16-0.28-4.48-0.85c-1.32-0.56-2.45-1.34-3.37-2.32c-0.92-0.95-1.62-2.07-2.1-3.37
		c-0.48-1.29-0.71-2.67-0.71-4.12s0.24-2.82,0.71-4.1c0.47-1.28,1.17-2.41,2.1-3.39c0.92-0.95,2.04-1.71,3.34-2.27
		c1.31-0.56,2.81-0.85,4.5-0.85c1.66,0,3.16,0.28,4.48,0.85c1.32,0.57,2.43,1.32,3.32,2.27c0.92,0.98,1.63,2.11,2.12,3.39
		c0.49,1.28,0.74,2.65,0.74,4.1s-0.25,2.83-0.74,4.12c-0.49,1.29-1.2,2.42-2.12,3.37c-0.92,0.98-2.04,1.75-3.37,2.32
		C122.15,129.29,120.67,129.57,119.04,129.57z M119.04,112.58c-1.81,0-3.2,0.61-4.17,1.83c-0.97,1.22-1.45,2.72-1.45,4.5
		c0,1.75,0.49,3.25,1.47,4.5s2.36,1.87,4.15,1.87s3.17-0.62,4.15-1.87s1.47-2.75,1.47-4.5c0-1.78-0.49-3.28-1.47-4.5
		C122.2,113.19,120.82,112.58,119.04,112.58z M114.98,146.91c-0.48,0-0.79-0.09-0.96-0.27c-0.16-0.18-0.25-0.51-0.25-0.98v-12.08
		h5.17v9.05h22.07v4.28H114.98z M139.82,107.77v9.9h5.17v4.41h-5.17v14.89h-4.99v-29.2H139.82z"/>
	<path class="st1" d="M150.74,137.91c-0.48,0-0.79-0.09-0.96-0.27c-0.16-0.18-0.25-0.5-0.25-0.98v-27.06h5.08v23.81l3.43-0.09
		c0.42,0,0.96-0.03,1.63-0.09c0.67-0.06,1.36-0.12,2.07-0.18c0.71-0.09,1.41-0.19,2.1-0.29c0.68-0.1,1.25-0.2,1.69-0.29v4.33
		c-0.39,0.09-0.94,0.19-1.65,0.31c-0.71,0.12-1.52,0.24-2.41,0.36c-0.86,0.09-1.75,0.17-2.67,0.25c-0.92,0.07-1.77,0.11-2.54,0.11
		c-0.27,0.03-0.7,0.05-1.29,0.07c-0.6,0.02-1.2,0.02-1.83,0.02c-0.62,0.03-1.17,0.04-1.65,0.04
		C151.02,137.95,150.77,137.94,150.74,137.91z M166.97,145.75v-37.32h4.86v12.71h3.92v-13.42h4.86v39.95h-4.86v-21.62h-3.92v19.71
		H166.97z"/>
</g>
</svg>
