<?xml version="1.0" encoding="utf-8"?>
<!-- Generator: Adobe Illustrator 25.2.0, SVG Export Plug-In . SVG Version: 6.00 Build 0)  -->
<svg version="1.1" id="레이어_1" xmlns="http://www.w3.org/2000/svg" xmlns:xlink="http://www.w3.org/1999/xlink" x="0px"
	 y="0px" viewBox="0 0 200 200" style="enable-background:new 0 0 200 200;" xml:space="preserve">
<style type="text/css">
	.st0{fill:#EB76A1;}
	.st1{enable-background:new    ;}
	.st2{fill:#FFFFFF;}
</style>
<path class="st0" d="M154.58,199.68H45.42C20.33,199.68,0,179.35,0,154.27V45.1C0,20.02,20.33-0.32,45.42-0.32h109.16
	C179.67-0.32,200,20.02,200,45.1v109.16C200,179.35,179.67,199.68,154.58,199.68z"/>
<g class="st1">
	<path class="st2" d="M44.96,51.67h-4.35v3.04c0,3.01,0.44,5.45,1.31,7.33c0.87,1.88,2.34,3.46,4.38,4.74l-2.4,2.43
		c-1.19-0.79-2.25-1.73-3.17-2.82c-0.92-1.09-1.6-2.18-2.05-3.26c-0.38,1.22-1.07,2.44-2.06,3.66c-0.99,1.23-2.1,2.34-3.31,3.34
		l-2.98-2.24c2.24-1.43,3.88-3.23,4.93-5.41c1.04-2.18,1.57-4.8,1.57-7.87v-2.94h-4.35v-3.04h12.48V51.67z M43.04,55.77h4.1v-8.45
		h3.52v26.82h-3.52V59.13h-4.1V55.77z M56.29,46.84v28.64H52.8V46.84H56.29z"/>
	<path class="st2" d="M85.25,65.85H73.98v9.63H70.3v-9.63H58.85v-3.04h26.4V65.85z M61.79,47.74h20.45v3.04h-8.16
		c0.19,0.9,0.59,1.71,1.2,2.45c0.61,0.74,1.37,1.39,2.29,1.97c0.9,0.58,1.91,1.08,3.06,1.5c1.14,0.43,2.33,0.77,3.57,1.02
		l-2.24,2.56c-0.9-0.21-1.82-0.49-2.78-0.83c-0.96-0.34-1.88-0.76-2.75-1.25c-0.9-0.47-1.72-1.02-2.48-1.65
		c-0.76-0.63-1.39-1.33-1.9-2.1c-0.9,1.32-2.17,2.48-3.81,3.47c-1.64,0.99-3.65,1.78-6.02,2.35l-2.46-2.62
		c1.28-0.28,2.49-0.62,3.63-1.02c1.14-0.41,2.16-0.89,3.06-1.44c0.92-0.58,1.68-1.23,2.29-1.95c0.61-0.72,1.02-1.55,1.23-2.46h-8.16
		V47.74z"/>
	<path class="st2" d="M89.86,48.6h9.22v3.01h-6.59v13.73l2.62-0.03c0.45,0,0.94-0.03,1.47-0.08s1.06-0.11,1.57-0.18
		c0.51-0.06,0.99-0.13,1.44-0.19c0.45-0.06,0.81-0.13,1.09-0.19v3.07c-0.32,0.09-0.76,0.17-1.33,0.26
		c-0.57,0.09-1.18,0.16-1.84,0.22c-0.64,0.06-1.3,0.12-1.98,0.16c-0.68,0.04-1.3,0.06-1.86,0.06c-0.21,0.02-0.53,0.03-0.94,0.03
		s-0.84,0-1.26,0c-0.45,0-0.99,0-1.63,0c-0.34,0-0.57-0.06-0.69-0.19s-0.18-0.36-0.18-0.7V49.5c0-0.32,0.06-0.55,0.19-0.69
		S89.51,48.6,89.86,48.6z M105.02,47.32v8.99h2.85v-9.5h3.49v28.67h-3.49V59.86h-2.85v14.27h-3.46V47.32H105.02z"/>
	<path class="st2" d="M115.65,53.78V51h16.74v2.78H115.65z M124,64.31c-2.39,0-4.23-0.46-5.52-1.38c-1.29-0.92-1.94-2.02-1.94-3.3
		c0-1.28,0.64-2.37,1.92-3.28c1.28-0.91,3.12-1.36,5.54-1.36c2.39,0,4.23,0.45,5.52,1.36c1.29,0.91,1.94,2,1.94,3.28
		c0,1.28-0.65,2.38-1.95,3.3C128.2,63.85,126.37,64.31,124,64.31z M137.34,66.42c0.32,0,0.55,0.07,0.69,0.21s0.21,0.37,0.21,0.69
		v8.29h-3.74V69.4h-15.71v-2.98H137.34z M119.49,46.71h8.93v2.72h-8.93V46.71z M124,57.5c-1.13,0-2.04,0.19-2.72,0.56
		s-1.02,0.89-1.02,1.55c0,0.73,0.34,1.26,1.02,1.6c0.68,0.34,1.59,0.51,2.72,0.51c1.11,0,2.01-0.17,2.7-0.51
		c0.69-0.34,1.04-0.87,1.04-1.6c0-0.66-0.35-1.18-1.04-1.55S125.11,57.5,124,57.5z M138.24,46.84v7.49h3.71v3.23h-3.71v7.71h-3.62
		V46.84H138.24z"/>
	<path class="st2" d="M158.69,59.1v10.14h10.3v3.07h-26.46v-3.07h5.76V59.1h3.65v10.14h3.07V59.1H158.69z M165.25,48.41
		c0.32,0,0.55,0.07,0.69,0.21c0.14,0.14,0.21,0.37,0.21,0.69c-0.09,1.19-0.18,2.47-0.27,3.84c-0.1,1.37-0.21,2.76-0.34,4.19
		c-0.13,1.43-0.28,2.84-0.45,4.24c-0.17,1.4-0.36,2.71-0.58,3.95h-3.58c0.4-2.26,0.71-4.61,0.93-7.06c0.21-2.44,0.35-4.78,0.42-7.02
		h-16.96v-3.04H165.25z"/>
</g>
<g class="st1">
	<path class="st2" d="M56.09,99.29c-2.37-0.13-4.21-0.5-5.54-1.1c-1.32-0.61-1.98-1.42-1.98-2.45c0-1.15,0.84-2.04,2.53-2.67
		c1.69-0.63,4.02-0.94,7.01-0.94c2.96,0,5.3,0.31,6.99,0.94c1.7,0.63,2.54,1.52,2.54,2.67c0,1.02-0.68,1.84-2.03,2.45
		c-1.35,0.61-3.22,0.98-5.58,1.1v1.63h11.26v2.82h-26.4v-2.82h11.2V99.29z M46.94,88.73h22.24v2.53H46.94V88.73z M49.09,105.46H67.1
		c0.32,0,0.55,0.07,0.69,0.21c0.14,0.14,0.21,0.37,0.21,0.69v6.27c0,0.34-0.07,0.58-0.21,0.7c-0.14,0.13-0.37,0.19-0.69,0.19H49.09
		c-0.34,0-0.58-0.06-0.7-0.19s-0.19-0.36-0.19-0.7v-6.27c0-0.32,0.06-0.55,0.19-0.69S48.75,105.46,49.09,105.46z M64.38,110.97
		v-2.94H51.81v2.94H64.38z M52.32,84.82h11.39v2.46H52.32V84.82z M58.11,94.3c-1.69,0-2.98,0.13-3.87,0.4
		c-0.9,0.27-1.34,0.62-1.34,1.07s0.44,0.79,1.31,1.04c0.87,0.25,2.18,0.37,3.9,0.37s3.03-0.12,3.9-0.37
		c0.87-0.25,1.31-0.59,1.31-1.04s-0.45-0.8-1.36-1.07C61.06,94.43,59.77,94.3,58.11,94.3z"/>
	<path class="st2" d="M87.01,90.1c-0.24,0-0.44,0-0.61,0c-0.17,0-0.34,0-0.51,0c-0.15,0-0.29,0-0.42,0s-0.26,0-0.38,0l-0.13,13.35
		c0.45-0.02,0.93-0.05,1.44-0.1c0.51-0.04,0.96-0.1,1.34-0.16v3.07c-0.7,0.09-1.52,0.16-2.43,0.21c-0.92,0.05-1.89,0.1-2.91,0.14
		c-1.02,0.04-2.06,0.07-3.12,0.08c-1.06,0.01-2.05,0.02-2.99,0.02h-2.85v-3.1h2.4l-0.13-13.5c-0.15,0-0.29,0-0.43,0
		c-0.14,0-0.28,0-0.43,0c-0.15,0-0.31,0-0.5,0s-0.38,0-0.59,0V87h13.25V90.1z M79.13,90.07l0.13,13.54h0.42c0.26,0,0.55,0,0.88,0
		c0.33,0,0.67-0.01,1.01-0.03l0.1-13.5H79.13z M89.02,112.54v-14.5h-3.07v-3.36h3.07v-8.96h3.46v26.82H89.02z M94.33,113.88V85.24
		h3.46v28.64H94.33z"/>
	<path class="st2" d="M116.89,96.95c-0.02,3.78-0.72,6.55-2.1,8.32c-1.38,1.77-3.15,2.66-5.33,2.66s-3.96-0.88-5.34-2.66
		c-1.39-1.77-2.08-4.54-2.08-8.32c0-3.78,0.69-6.55,2.08-8.32s3.17-2.66,5.34-2.66s3.96,0.89,5.34,2.66S116.89,93.18,116.89,96.95z
		 M105.66,96.92c0,1.11,0.07,2.14,0.22,3.09c0.15,0.95,0.38,1.78,0.7,2.48c0.3,0.68,0.69,1.22,1.17,1.62
		c0.48,0.4,1.05,0.59,1.71,0.59c0.64,0,1.2-0.2,1.68-0.59c0.48-0.39,0.87-0.93,1.17-1.62c0.32-0.7,0.56-1.53,0.72-2.48
		c0.16-0.95,0.24-1.98,0.24-3.09c0-1.09-0.08-2.11-0.24-3.06s-0.4-1.77-0.72-2.45c-0.3-0.68-0.69-1.22-1.17-1.62
		c-0.48-0.39-1.04-0.59-1.68-0.59c-0.66,0-1.23,0.2-1.71,0.59s-0.87,0.93-1.17,1.62c-0.32,0.68-0.55,1.5-0.7,2.45
		S105.66,95.83,105.66,96.92z M121.31,113.88V85.24h3.62v28.64H121.31z"/>
	<path class="st2" d="M130.49,86.9h15.46v3.01h-5.82v2.5c0,2.84,0.58,5.34,1.74,7.52c1.16,2.18,3.02,3.99,5.58,5.44l-2.56,2.46
		c-1.54-0.98-2.9-2.12-4.1-3.42c-1.2-1.3-2.06-2.65-2.59-4.03c-0.56,1.51-1.47,3-2.74,4.45c-1.27,1.45-2.62,2.69-4.05,3.71
		l-2.98-2.4c2.37-1.41,4.26-3.25,5.68-5.54c1.42-2.28,2.13-5.07,2.13-8.35v-2.34h-5.76V86.9z M149.69,113.88V85.24h3.62v28.64
		H149.69z"/>
</g>
<g class="st1">
	<path class="st2" d="M56.45,135.35c-0.02,3.78-0.72,6.55-2.1,8.32c-1.38,1.77-3.15,2.66-5.33,2.66c-2.18,0-3.96-0.88-5.34-2.66
		c-1.39-1.77-2.08-4.54-2.08-8.32c0-3.78,0.69-6.55,2.08-8.32s3.17-2.66,5.34-2.66c2.18,0,3.96,0.89,5.34,2.66
		S56.45,131.58,56.45,135.35z M45.21,135.32c0,1.11,0.07,2.14,0.22,3.09c0.15,0.95,0.38,1.78,0.7,2.48c0.3,0.68,0.69,1.22,1.17,1.62
		c0.48,0.4,1.05,0.59,1.71,0.59c0.64,0,1.2-0.2,1.68-0.59c0.48-0.39,0.87-0.93,1.17-1.62c0.32-0.7,0.56-1.53,0.72-2.48
		s0.24-1.98,0.24-3.09c0-1.09-0.08-2.11-0.24-3.06s-0.4-1.77-0.72-2.45c-0.3-0.68-0.69-1.22-1.17-1.62s-1.04-0.59-1.68-0.59
		c-0.66,0-1.23,0.2-1.71,0.59c-0.48,0.39-0.87,0.93-1.17,1.62c-0.32,0.68-0.55,1.5-0.7,2.45C45.29,133.21,45.21,134.23,45.21,135.32
		z M60.86,152.28v-28.64h3.62v28.64H60.86z"/>
	<path class="st2" d="M94.56,140.12h-26.4v-3.04h6.82v-3.71c-1.34-0.45-2.37-1.06-3.07-1.82c-0.7-0.77-1.06-1.66-1.06-2.69
		c0-1.6,0.93-2.9,2.8-3.9s4.43-1.5,7.7-1.5c3.26,0,5.83,0.5,7.7,1.5c1.87,1,2.8,2.3,2.8,3.9c0,1-0.35,1.89-1.06,2.66
		c-0.7,0.77-1.7,1.38-2.98,1.82v3.74h6.75V140.12z M81.34,141.75c3.43,0,6.06,0.51,7.89,1.52c1.82,1.01,2.74,2.35,2.74,4.02
		c0,1.69-0.91,3.03-2.72,4.03c-1.81,1-4.45,1.5-7.9,1.5c-3.48,0-6.12-0.5-7.92-1.5c-1.8-1-2.7-2.35-2.7-4.03
		c0-1.66,0.91-3,2.72-4.02C75.25,142.26,77.89,141.75,81.34,141.75z M81.34,126.1c-1.96,0-3.55,0.25-4.75,0.75
		c-1.21,0.5-1.81,1.19-1.81,2.06c0,0.83,0.61,1.48,1.82,1.95c1.22,0.47,2.79,0.7,4.74,0.7c1.92,0,3.49-0.23,4.72-0.7
		c1.23-0.47,1.84-1.12,1.84-1.95c0-0.87-0.61-1.56-1.82-2.06S83.28,126.1,81.34,126.1z M81.34,144.5c-2.03,0-3.63,0.24-4.8,0.7
		c-1.17,0.47-1.76,1.15-1.76,2.05c0,0.96,0.59,1.66,1.76,2.1c1.17,0.44,2.77,0.66,4.8,0.66c2,0,3.6-0.22,4.78-0.66
		c1.18-0.44,1.78-1.14,1.78-2.1c0-0.9-0.59-1.58-1.78-2.05C84.94,144.74,83.35,144.5,81.34,144.5z M78.53,134.14v2.94h5.73v-2.94
		c-0.45,0.06-0.92,0.11-1.41,0.13c-0.49,0.02-0.99,0.03-1.5,0.03c-0.51,0-1-0.01-1.47-0.03C79.4,134.24,78.95,134.2,78.53,134.14z"
		/>
	<path class="st2" d="M120.48,137.82c0,0.34-0.07,0.58-0.21,0.7s-0.37,0.19-0.69,0.19h-11.87c-0.34,0-0.57-0.06-0.69-0.19
		s-0.18-0.36-0.18-0.7V124.5h3.62v4.06h6.5v-4.06h3.52V137.82z M119.17,141.37c1.45,0,2.79,0.13,4.03,0.38s2.31,0.63,3.23,1.12
		c0.9,0.49,1.6,1.09,2.11,1.81c0.51,0.71,0.77,1.52,0.77,2.42c0,0.94-0.26,1.76-0.77,2.46c-0.51,0.7-1.22,1.3-2.11,1.79
		c-0.92,0.47-2,0.83-3.23,1.07s-2.59,0.37-4.06,0.37c-1.47,0-2.82-0.12-4.05-0.37c-1.23-0.25-2.29-0.6-3.18-1.07
		c-0.9-0.49-1.59-1.09-2.1-1.79c-0.5-0.7-0.75-1.53-0.75-2.46c0-0.9,0.26-1.7,0.77-2.4s1.23-1.3,2.14-1.79
		c0.92-0.49,1.99-0.87,3.22-1.14C116.41,141.5,117.74,141.37,119.17,141.37z M116.96,135.67v-4.06h-6.5v4.06H116.96z M119.17,144.22
		c-1.86,0-3.36,0.26-4.51,0.77s-1.73,1.21-1.73,2.08s0.58,1.58,1.74,2.11c1.16,0.53,2.66,0.8,4.5,0.8c1.88,0,3.39-0.27,4.53-0.82
		c1.14-0.54,1.71-1.24,1.71-2.1c0-0.9-0.57-1.59-1.7-2.1C122.58,144.47,121.06,144.22,119.17,144.22z M128.61,123.64v6.24h3.68v3.04
		h-3.68v8.35h-3.65v-17.63H128.61z"/>
	<path class="st2" d="M135.26,137.11v-12.64h3.58v3.87h6.37v-3.87h3.58v4.64h5.12v-5.47h3.58v15.62h-3.58v-7.07h-5.12v4.93
		c0,0.34-0.07,0.58-0.21,0.7s-0.37,0.19-0.69,0.19h-11.78c-0.34,0-0.57-0.06-0.69-0.19C135.32,137.69,135.26,137.45,135.26,137.11z
		 M138.17,151.1v-10.82h3.55v2.91h12.19v-2.91h3.55v10.82c0,0.34-0.07,0.58-0.21,0.7s-0.37,0.19-0.69,0.19h-17.5
		c-0.34,0-0.58-0.06-0.7-0.19S138.17,151.44,138.17,151.1z M145.21,134.97v-3.58h-6.37v3.58H145.21z M153.92,149.08v-2.98h-12.19
		v2.98H153.92z"/>
</g>
</svg>
