<?xml version="1.0" encoding="utf-8"?>
<!-- Generator: Adobe Illustrator 25.2.0, SVG Export Plug-In . SVG Version: 6.00 Build 0)  -->
<svg version="1.1" id="레이어_1" xmlns="http://www.w3.org/2000/svg" xmlns:xlink="http://www.w3.org/1999/xlink" x="0px"
	 y="0px" viewBox="0 0 200 200" style="enable-background:new 0 0 200 200;" xml:space="preserve">
<style type="text/css">
	.st0{fill:#EB76A1;}
	.st1{enable-background:new    ;}
	.st2{fill:#FFFFFF;}
</style>
<path class="st0" d="M154.58,199.68H45.42C20.33,199.68,0,179.35,0,154.27V45.1C0,20.02,20.33-0.32,45.42-0.32h109.16
	C179.67-0.32,200,20.02,200,45.1v109.16C200,179.35,179.67,199.68,154.58,199.68z"/>
<g class="st1">
	<path class="st2" d="M60.01,80.12H44.27v14.04h-5.13V80.12H23.22v-4.24h36.78V80.12z M55.41,71.92c-3.6-1.04-6.51-2.21-8.74-3.5
		s-3.92-2.89-5.08-4.79c-1.19,1.87-2.92,3.5-5.19,4.88s-5.11,2.53-8.49,3.46l-3.34-3.7c2.11-0.5,4.04-1.09,5.77-1.76
		s3.23-1.46,4.48-2.38c1.25-0.89,2.22-1.91,2.92-3.05c0.7-1.14,1.06-2.46,1.09-3.95v-2.05h5.57v2.01c-0.03,2.79,1.23,5.11,3.79,6.93
		c2.56,1.83,5.97,3.26,10.25,4.3L55.41,71.92z"/>
	<path class="st2" d="M82.52,55.87c0.45,0,0.76,0.1,0.96,0.29c0.19,0.19,0.29,0.51,0.29,0.96c-0.54,4.9-2.27,9.1-5.22,12.6
		c-2.94,3.49-7.16,6.15-12.66,7.96l-3.12-3.66c4.28-1.16,7.7-2.93,10.25-5.31c2.56-2.38,4.24-5.23,5.04-8.56H64.96v-4.28H82.52z
		 M81.59,78.07c2.02,0,3.89,0.19,5.62,0.58c1.72,0.39,3.22,0.94,4.5,1.65c1.25,0.71,2.23,1.59,2.94,2.63s1.07,2.23,1.07,3.57
		c0,1.37-0.36,2.57-1.07,3.61c-0.71,1.04-1.69,1.92-2.94,2.63c-1.28,0.71-2.78,1.25-4.5,1.61c-1.72,0.36-3.61,0.53-5.66,0.53
		s-3.93-0.18-5.64-0.53c-1.71-0.36-3.19-0.89-4.44-1.61c-1.25-0.71-2.22-1.59-2.92-2.63c-0.7-1.04-1.05-2.24-1.05-3.61
		c0-1.31,0.36-2.48,1.07-3.52c0.71-1.04,1.71-1.93,2.99-2.67c1.28-0.71,2.77-1.26,4.48-1.65C77.74,78.26,79.59,78.07,81.59,78.07z
		 M81.59,82.04c-2.59,0-4.68,0.39-6.29,1.16c-1.6,0.77-2.41,1.84-2.41,3.21c0,1.4,0.81,2.5,2.43,3.32c1.62,0.82,3.71,1.23,6.26,1.23
		c2.62,0,4.72-0.42,6.31-1.25c1.59-0.83,2.39-1.93,2.39-3.3c0-1.4-0.79-2.47-2.36-3.23C86.34,82.42,84.23,82.04,81.59,82.04z
		 M89.75,77.85V54.22h5.04v9.14h5.17v4.24h-5.17v10.25H89.75z"/>
	<path class="st2" d="M116.1,55.11v5.44c0,1.34,0.25,2.65,0.74,3.92c0.49,1.28,1.17,2.47,2.03,3.57c0.86,1.1,1.89,2.08,3.08,2.94
		c1.19,0.86,2.5,1.53,3.92,2.01l-3.21,3.79c-1.93-0.98-3.75-2.18-5.44-3.59s-2.96-2.88-3.79-4.39c-0.27,0.77-0.7,1.57-1.29,2.38
		c-0.59,0.82-1.31,1.63-2.14,2.43c-0.8,0.77-1.69,1.52-2.68,2.25c-0.98,0.73-1.98,1.38-2.99,1.94l-3.97-3.39
		c3.27-1.6,5.81-3.59,7.62-5.95c1.81-2.36,2.73-4.97,2.76-7.82v-5.53H116.1z M109.41,93.41c-0.48,0-0.79-0.09-0.96-0.27
		c-0.16-0.18-0.25-0.51-0.25-0.98V80.52h5.08v8.61h22.56v4.28H109.41z M134.91,54.26V83.6h-4.99V54.26H134.91z"/>
	<path class="st2" d="M142.44,60.5h20.64v4.01h-7.71c0.15,1.13,0.54,2.18,1.18,3.14c0.64,0.97,1.42,1.82,2.34,2.56
		c0.92,0.77,1.93,1.43,3.03,1.96c1.1,0.54,2.2,0.94,3.3,1.2l-2.94,3.52c-1.93-0.68-3.76-1.63-5.48-2.85
		c-1.72-1.22-3.03-2.56-3.92-4.01c-0.86,1.78-2.18,3.4-3.95,4.86c-1.77,1.46-3.69,2.65-5.77,3.57l-3.52-3.61
		c1.25-0.36,2.45-0.86,3.61-1.52c1.16-0.65,2.21-1.43,3.17-2.32c0.95-0.89,1.75-1.89,2.38-2.99c0.64-1.1,1.06-2.27,1.27-3.52h-7.62
		V60.5z M160.55,79.41c4.64,0,8.17,0.73,10.61,2.18c2.44,1.46,3.66,3.3,3.66,5.53s-1.22,4.07-3.66,5.53
		c-2.44,1.46-5.97,2.18-10.61,2.18s-8.17-0.73-10.61-2.18c-2.44-1.46-3.66-3.3-3.66-5.53s1.22-4.07,3.66-5.53
		C152.37,80.14,155.91,79.41,160.55,79.41z M146.77,54.08h12.22v3.83h-12.22V54.08z M160.55,83.24c-2.65,0-4.78,0.33-6.4,1
		c-1.62,0.67-2.43,1.63-2.43,2.88c0,1.28,0.81,2.24,2.43,2.9c1.62,0.65,3.75,0.98,6.4,0.98c2.67,0,4.81-0.32,6.4-0.96
		c1.59-0.64,2.39-1.61,2.39-2.92c0-1.28-0.8-2.24-2.39-2.9C165.35,83.57,163.22,83.24,160.55,83.24z M163.22,65.72h6.06v-11.5h5.08
		v24.97h-5.08v-9.41h-6.06V65.72z"/>
</g>
<g class="st1">
	<path class="st2" d="M37.85,127.51c0,0.48-0.1,0.8-0.29,0.98c-0.19,0.18-0.51,0.27-0.96,0.27H20.06c-0.48,0-0.8-0.09-0.96-0.27
		c-0.16-0.18-0.25-0.5-0.25-0.98v-18.55h5.04v5.66h9.05v-5.66h4.9V127.51z M36.02,132.46c2.02,0,3.89,0.18,5.62,0.54
		c1.72,0.36,3.22,0.88,4.5,1.56c1.25,0.68,2.23,1.52,2.94,2.52s1.07,2.12,1.07,3.37c0,1.31-0.36,2.45-1.07,3.43
		c-0.71,0.98-1.69,1.81-2.94,2.5c-1.28,0.65-2.78,1.15-4.5,1.49c-1.72,0.34-3.61,0.51-5.66,0.51c-2.05,0-3.93-0.17-5.64-0.51
		c-1.71-0.34-3.19-0.84-4.44-1.49c-1.25-0.68-2.22-1.52-2.92-2.5c-0.7-0.98-1.05-2.12-1.05-3.43c0-1.25,0.36-2.36,1.07-3.34
		c0.71-0.98,1.71-1.81,2.99-2.5c1.28-0.68,2.77-1.21,4.48-1.58C32.18,132.65,34.03,132.46,36.02,132.46z M32.95,124.53v-5.66H23.9
		v5.66H32.95z M36.02,136.43c-2.59,0-4.68,0.36-6.29,1.07c-1.61,0.71-2.41,1.68-2.41,2.9s0.81,2.2,2.43,2.94s3.71,1.12,6.26,1.12
		c2.62,0,4.72-0.38,6.31-1.14c1.59-0.76,2.39-1.73,2.39-2.92c0-1.25-0.79-2.22-2.36-2.92C40.78,136.78,38.67,136.43,36.02,136.43z
		 M49.18,107.76v8.69h5.13v4.24h-5.13v11.64h-5.08v-24.57H49.18z"/>
	<path class="st2" d="M58.45,126.53v-17.61h4.99v5.39h8.87v-5.39h4.99v6.46h7.13v-7.62h4.99v21.76h-4.99v-9.85h-7.13v6.87
		c0,0.48-0.1,0.8-0.29,0.98c-0.19,0.18-0.51,0.27-0.96,0.27H59.65c-0.48,0-0.8-0.09-0.96-0.27
		C58.53,127.34,58.45,127.01,58.45,126.53z M62.51,146.02v-15.07h4.95V135h16.99v-4.06h4.95v15.07c0,0.47-0.1,0.8-0.29,0.98
		c-0.19,0.18-0.51,0.27-0.96,0.27H63.76c-0.48,0-0.8-0.09-0.98-0.27S62.51,146.49,62.51,146.02z M72.32,123.55v-4.99h-8.87v4.99
		H72.32z M84.44,143.21v-4.15H67.46v4.15H84.44z"/>
	<path class="st2" d="M119.04,129.57c-1.66,0-3.16-0.28-4.48-0.85c-1.32-0.56-2.45-1.34-3.37-2.32c-0.92-0.95-1.62-2.07-2.1-3.37
		c-0.48-1.29-0.71-2.67-0.71-4.12s0.24-2.82,0.71-4.1c0.47-1.28,1.17-2.41,2.1-3.39c0.92-0.95,2.04-1.71,3.34-2.27
		c1.31-0.56,2.81-0.85,4.5-0.85c1.66,0,3.16,0.28,4.48,0.85c1.32,0.57,2.43,1.32,3.32,2.27c0.92,0.98,1.63,2.11,2.12,3.39
		c0.49,1.28,0.74,2.65,0.74,4.1s-0.24,2.83-0.74,4.12c-0.49,1.29-1.2,2.42-2.12,3.37c-0.92,0.98-2.04,1.75-3.37,2.32
		C122.16,129.28,120.68,129.57,119.04,129.57z M119.04,112.58c-1.81,0-3.2,0.61-4.17,1.83c-0.97,1.22-1.45,2.72-1.45,4.5
		c0,1.75,0.49,3.25,1.47,4.5c0.98,1.25,2.36,1.87,4.15,1.87s3.17-0.62,4.15-1.87s1.47-2.75,1.47-4.5c0-1.78-0.49-3.28-1.47-4.5
		C122.21,113.19,120.83,112.58,119.04,112.58z M114.99,146.91c-0.48,0-0.8-0.09-0.96-0.27c-0.16-0.18-0.25-0.51-0.25-0.98v-12.08
		h5.17v9.05h22.07v4.28H114.99z M139.82,107.76v9.9h5.17v4.41h-5.17v14.89h-4.99v-29.2H139.82z"/>
	<path class="st2" d="M150.74,137.9c-0.48,0-0.79-0.09-0.96-0.27c-0.16-0.18-0.25-0.5-0.25-0.98v-27.06h5.08v23.81l3.43-0.09
		c0.42,0,0.96-0.03,1.63-0.09c0.67-0.06,1.36-0.12,2.07-0.18c0.71-0.09,1.41-0.19,2.1-0.29c0.68-0.1,1.25-0.2,1.69-0.29v4.33
		c-0.39,0.09-0.94,0.19-1.65,0.31c-0.71,0.12-1.52,0.24-2.41,0.36c-0.86,0.09-1.75,0.17-2.67,0.25c-0.92,0.07-1.77,0.11-2.54,0.11
		c-0.27,0.03-0.7,0.05-1.29,0.07c-0.6,0.02-1.2,0.02-1.83,0.02c-0.62,0.03-1.17,0.04-1.65,0.04
		C151.02,137.95,150.77,137.93,150.74,137.9z M166.97,145.75v-37.32h4.86v12.71h3.92v-13.42h4.86v39.95h-4.86v-21.62h-3.92v19.71
		H166.97z"/>
</g>
</svg>
