<?xml version="1.0" encoding="utf-8"?>
<!-- Generator: Adobe Illustrator 25.2.0, SVG Export Plug-In . SVG Version: 6.00 Build 0)  -->
<svg version="1.1" id="레이어_1" xmlns="http://www.w3.org/2000/svg" xmlns:xlink="http://www.w3.org/1999/xlink" x="0px"
	 y="0px" viewBox="0 0 200 200" style="enable-background:new 0 0 200 200;" xml:space="preserve">
<style type="text/css">
	.st0{fill:#EB76A1;}
	.st1{fill:#FFFFFF;}
</style>
<path class="st0" d="M154.58,199.68H45.42C20.33,199.68,0,179.35,0,154.27V45.1C0,20.02,20.33-0.32,45.42-0.32h109.16
	C179.67-0.32,200,20.02,200,45.1v109.16C200,179.35,179.67,199.68,154.58,199.68z"/>
<g>
	<path class="st1" d="M39.23,71.34v14.13h14.36v4.28H16.71v-4.28h8.03V71.34h5.08v14.13h4.28V71.34H39.23z M48.37,56.45
		c0.45,0,0.77,0.1,0.96,0.29c0.19,0.19,0.29,0.51,0.29,0.96c-0.12,1.66-0.25,3.45-0.38,5.35c-0.13,1.9-0.29,3.85-0.47,5.84
		c-0.18,1.99-0.39,3.96-0.62,5.91c-0.24,1.95-0.51,3.78-0.8,5.51h-4.99c0.56-3.15,1-6.43,1.29-9.83c0.3-3.4,0.49-6.67,0.58-9.79
		H20.59v-4.24H48.37z"/>
	<path class="st1" d="M60.05,84.4c-0.48,0-0.8-0.09-0.96-0.27c-0.16-0.18-0.25-0.51-0.25-0.98V56.09h5.08V79.9l3.43-0.09
		c0.42,0,0.96-0.03,1.63-0.09s1.36-0.12,2.07-0.18c0.71-0.09,1.41-0.19,2.1-0.29c0.68-0.1,1.25-0.2,1.69-0.29v4.33
		c-0.39,0.09-0.94,0.19-1.65,0.31c-0.71,0.12-1.52,0.24-2.41,0.36c-0.86,0.09-1.75,0.17-2.68,0.25c-0.92,0.07-1.77,0.11-2.54,0.11
		c-0.27,0.03-0.7,0.05-1.29,0.07c-0.59,0.02-1.2,0.02-1.83,0.02c-0.62,0.03-1.17,0.04-1.65,0.04C60.33,84.45,60.08,84.43,60.05,84.4
		z M76.28,92.25V54.93h4.86v12.71h3.92V54.22h4.86v39.95h-4.86V72.54h-3.92v19.71H76.28z"/>
	<path class="st1" d="M144.23,77.89h-15.2v8.2h-5.17v-8.2h-16.41v-4.24h36.78V77.89z M128.62,54.22v2.1
		c-0.03,1.34,0.35,2.59,1.14,3.77c0.79,1.17,1.83,2.22,3.14,3.14c1.31,0.95,2.81,1.78,4.5,2.47c1.69,0.7,3.45,1.24,5.26,1.63
		l-3.12,3.52c-1.34-0.27-2.72-0.7-4.15-1.29c-1.43-0.59-2.78-1.28-4.06-2.05c-1.28-0.74-2.41-1.54-3.39-2.41
		c-0.98-0.86-1.68-1.71-2.1-2.54c-1.07,1.84-2.85,3.51-5.35,4.99c-2.5,1.49-5.31,2.59-8.43,3.3l-3.12-3.52
		c1.99-0.45,3.85-1.03,5.57-1.76c1.72-0.73,3.22-1.55,4.5-2.47c1.25-0.95,2.24-1.99,2.96-3.12c0.73-1.13,1.09-2.35,1.09-3.66v-2.1
		H128.62z M113.24,93.41c-0.48,0-0.8-0.09-0.96-0.27c-0.16-0.18-0.25-0.51-0.25-0.98V81.37h5.08v7.76h23.85v4.28H113.24z"/>
	<path class="st1" d="M157.11,74.95c-2.41-0.27-4.24-0.86-5.51-1.78c-1.26-0.92-1.9-2.08-1.9-3.48c0-1.52,0.88-2.8,2.63-3.86
		c1.75-1.05,4.28-1.58,7.58-1.58c3.27,0,5.79,0.53,7.56,1.58c1.77,1.06,2.65,2.34,2.65,3.86c0,1.4-0.65,2.56-1.94,3.48
		c-1.29,0.92-3.14,1.52-5.55,1.78v2.68c0.47,0,1.13-0.02,1.96-0.07s1.74-0.11,2.72-0.2c0.98-0.09,1.98-0.19,2.99-0.29
		c1.01-0.1,1.93-0.22,2.76-0.33v3.83c-0.71,0.09-1.67,0.19-2.85,0.31c-1.19,0.12-2.51,0.22-3.97,0.31
		c-1.46,0.12-2.98,0.21-4.57,0.27c-1.59,0.06-3.11,0.09-4.57,0.09h-10.25v-3.88h10.25V74.95z M148.6,59.17h22.38v3.66H148.6V59.17z
		 M153.99,93.45c-0.48,0-0.79-0.09-0.96-0.27c-0.16-0.18-0.25-0.51-0.25-0.98v-8.96h5.35v6.02h22.25v4.19H153.99z M153.81,53.95
		h11.82v3.52h-11.82V53.95z M159.92,67.5c-1.52,0-2.69,0.18-3.52,0.54c-0.83,0.36-1.25,0.89-1.25,1.6c0,0.74,0.42,1.3,1.27,1.67
		c0.85,0.37,2.01,0.56,3.5,0.56c1.46,0,2.62-0.19,3.48-0.56c0.86-0.37,1.29-0.93,1.29-1.67c0-0.71-0.42-1.25-1.27-1.6
		C162.58,67.68,161.41,67.5,159.92,67.5z M184.4,71.25h-5.26V85.7h-5.04V54.26h5.04v12.53h5.26V71.25z"/>
	<path class="st1" d="M19.92,136.88v-27.2h4.95v9.59h8.83v-9.59h4.99v11.33h6.69v-13.24h5.08v39.9h-5.08v-22.2h-6.69v11.41
		c0,0.48-0.1,0.8-0.29,0.98c-0.19,0.18-0.51,0.27-0.96,0.27H21.13c-0.48,0-0.8-0.09-0.96-0.27
		C20.01,137.68,19.92,137.36,19.92,136.88z M33.7,133.89v-10.3h-8.83v10.3H33.7z"/>
	<path class="st1" d="M92.47,142.77H55.59v-4.28h36.87V142.77z M87.78,131.53c-1.43-0.45-2.85-1.06-4.28-1.85
		c-1.43-0.79-2.76-1.67-4.01-2.65c-1.25-0.98-2.36-2.02-3.32-3.12c-0.97-1.1-1.7-2.18-2.21-3.25c-1.25,2.38-3.02,4.5-5.31,6.38
		c-2.29,1.87-5.07,3.39-8.34,4.55l-3.52-3.79c2.05-0.59,3.96-1.39,5.73-2.38c1.77-1,3.29-2.13,4.57-3.41
		c1.31-1.31,2.33-2.73,3.08-4.28c0.74-1.54,1.11-3.18,1.11-4.9v-3.7h5.44v3.7c-0.03,1.72,0.36,3.38,1.18,4.97
		c0.82,1.59,1.9,3.05,3.23,4.39c1.34,1.34,2.87,2.5,4.59,3.5c1.72,1,3.49,1.73,5.31,2.21L87.78,131.53z"/>
	<path class="st1" d="M119.04,129.57c-1.67,0-3.16-0.28-4.48-0.85c-1.32-0.56-2.45-1.34-3.37-2.32c-0.92-0.95-1.62-2.07-2.1-3.37
		c-0.48-1.29-0.71-2.67-0.71-4.12s0.24-2.82,0.71-4.1c0.47-1.28,1.17-2.41,2.1-3.39c0.92-0.95,2.04-1.71,3.34-2.27
		c1.31-0.56,2.81-0.85,4.5-0.85c1.66,0,3.16,0.28,4.48,0.85c1.32,0.57,2.43,1.32,3.32,2.27c0.92,0.98,1.63,2.11,2.12,3.39
		c0.49,1.28,0.74,2.65,0.74,4.1s-0.25,2.83-0.74,4.12c-0.49,1.29-1.2,2.42-2.12,3.37c-0.92,0.98-2.04,1.75-3.37,2.32
		C122.15,129.29,120.67,129.57,119.04,129.57z M119.04,112.58c-1.81,0-3.2,0.61-4.17,1.83c-0.97,1.22-1.45,2.72-1.45,4.5
		c0,1.75,0.49,3.25,1.47,4.5s2.36,1.87,4.15,1.87s3.17-0.62,4.15-1.87s1.47-2.75,1.47-4.5c0-1.78-0.49-3.28-1.47-4.5
		C122.2,113.19,120.82,112.58,119.04,112.58z M114.98,146.91c-0.48,0-0.79-0.09-0.96-0.27c-0.16-0.18-0.25-0.51-0.25-0.98v-12.08
		h5.17v9.05h22.07v4.28H114.98z M139.82,107.77v9.9h5.17v4.41h-5.17v14.89h-4.99v-29.2H139.82z"/>
	<path class="st1" d="M150.74,137.91c-0.48,0-0.79-0.09-0.96-0.27c-0.16-0.18-0.25-0.5-0.25-0.98v-27.06h5.08v23.81l3.43-0.09
		c0.42,0,0.96-0.03,1.63-0.09c0.67-0.06,1.36-0.12,2.07-0.18c0.71-0.09,1.41-0.19,2.1-0.29c0.68-0.1,1.25-0.2,1.69-0.29v4.33
		c-0.39,0.09-0.94,0.19-1.65,0.31c-0.71,0.12-1.52,0.24-2.41,0.36c-0.86,0.09-1.75,0.17-2.67,0.25c-0.92,0.07-1.77,0.11-2.54,0.11
		c-0.27,0.03-0.7,0.05-1.29,0.07c-0.6,0.02-1.2,0.02-1.83,0.02c-0.62,0.03-1.17,0.04-1.65,0.04
		C151.02,137.95,150.77,137.94,150.74,137.91z M166.97,145.75v-37.32h4.86v12.71h3.92v-13.42h4.86v39.95h-4.86v-21.62h-3.92v19.71
		H166.97z"/>
</g>
</svg>
