<?xml version="1.0" encoding="utf-8"?>
<!-- Generator: Adobe Illustrator 25.2.0, SVG Export Plug-In . SVG Version: 6.00 Build 0)  -->
<svg version="1.1" id="레이어_1" xmlns="http://www.w3.org/2000/svg" xmlns:xlink="http://www.w3.org/1999/xlink" x="0px"
	 y="0px" viewBox="0 0 200 200" style="enable-background:new 0 0 200 200;" xml:space="preserve">
<style type="text/css">
	.st0{fill:#EB76A1;}
	.st1{fill:#FFFFFF;}
</style>
<path class="st0" d="M154.58,199.68H45.42C20.33,199.68,0,179.35,0,154.27V45.1C0,20.02,20.33-0.32,45.42-0.32h109.16
	C179.67-0.32,200,20.02,200,45.1v109.16C200,179.35,179.67,199.68,154.58,199.68z"/>
<g>
	<path class="st1" d="M64.06,36.01v7.45h14.98v4.24H42.26v-4.24H58.8v-7.45H64.06z M57.69,26.29c0.45,0,0.76,0.1,0.96,0.29
		c0.19,0.19,0.29,0.51,0.29,0.96c-0.09,1.07-0.23,2.21-0.42,3.41c-0.19,1.2-0.44,2.39-0.74,3.54c-0.27,1.19-0.58,2.33-0.94,3.41
		c-0.36,1.09-0.73,2.04-1.11,2.88h-5.44c0.71-1.46,1.35-3.08,1.92-4.86c0.56-1.78,0.94-3.57,1.11-5.35h-7.89v-4.28H57.69z
		 M73.2,51.39c0.45,0,0.77,0.1,0.96,0.29c0.19,0.19,0.29,0.51,0.29,0.96v12.75h-5.13v-9.67H46.36v-4.33H73.2z M74.05,26.29
		c0.45,0,0.77,0.1,0.96,0.29c0.19,0.19,0.29,0.51,0.29,0.96c-0.09,2.5-0.25,4.82-0.49,6.96c-0.24,2.14-0.54,4.24-0.89,6.29h-4.99
		c0.3-1.63,0.56-3.35,0.78-5.15c0.22-1.8,0.35-3.5,0.38-5.11h-9.85v-4.24H74.05z"/>
	<path class="st1" d="M89.61,62.31h-6.02v-5.66h6.02V62.31z M88.9,54.2h-4.59l-0.67-28.45h5.89L88.9,54.2z"/>
	<path class="st1" d="M129.25,36.01v7.45h14.98v4.24h-36.78v-4.24h16.54v-7.45H129.25z M122.87,26.29c0.45,0,0.77,0.1,0.96,0.29
		c0.19,0.19,0.29,0.51,0.29,0.96c-0.09,1.07-0.23,2.21-0.42,3.41c-0.19,1.2-0.44,2.39-0.74,3.54c-0.27,1.19-0.58,2.33-0.94,3.41
		c-0.36,1.09-0.73,2.04-1.11,2.88h-5.44c0.71-1.46,1.35-3.08,1.92-4.86c0.56-1.78,0.94-3.57,1.11-5.35h-7.89v-4.28H122.87z
		 M138.39,51.39c0.45,0,0.76,0.1,0.96,0.29c0.19,0.19,0.29,0.51,0.29,0.96v12.75h-5.13v-9.67h-22.96v-4.33H138.39z M139.24,26.29
		c0.45,0,0.76,0.1,0.96,0.29c0.19,0.19,0.29,0.51,0.29,0.96c-0.09,2.5-0.25,4.82-0.49,6.96s-0.54,4.24-0.89,6.29h-4.99
		c0.3-1.63,0.56-3.35,0.78-5.15c0.22-1.8,0.35-3.5,0.38-5.11h-9.85v-4.24H139.24z"/>
	<path class="st1" d="M154.79,62.31h-6.02v-5.66h6.02V62.31z M154.08,54.2h-4.59l-0.67-28.45h5.89L154.08,54.2z"/>
	<path class="st1" d="M44.94,85.45h17.03v3.97h-5.75c0.09,1.78,0.75,3.41,1.98,4.88c1.23,1.47,3.01,2.65,5.33,3.54l-2.76,3.57
		c-1.52-0.62-2.87-1.43-4.06-2.43c-1.19-1-2.23-2.1-3.12-3.32c-0.77,1.28-1.76,2.52-2.96,3.72c-1.2,1.2-2.65,2.28-4.35,3.23
		l-3.75-3.34c2.7-1.31,4.74-2.81,6.11-4.5c1.37-1.69,2.08-3.48,2.14-5.35h-5.84V85.45z M48.33,79.17h10.17v3.75H48.33V79.17z
		 M63.44,103.6c2.05,0,3.96,0.18,5.73,0.54c1.77,0.36,3.29,0.88,4.57,1.56c1.28,0.65,2.28,1.47,3.01,2.45
		c0.73,0.98,1.09,2.1,1.09,3.34c0,1.31-0.36,2.45-1.09,3.43c-0.73,0.98-1.73,1.8-3.01,2.45c-1.31,0.68-2.84,1.19-4.59,1.52
		c-1.75,0.33-3.67,0.49-5.75,0.49c-2.08,0-4-0.17-5.75-0.51c-1.75-0.34-3.27-0.84-4.55-1.49c-1.25-0.68-2.23-1.52-2.94-2.5
		c-0.71-0.98-1.07-2.11-1.07-3.39c0-1.25,0.36-2.36,1.09-3.32c0.73-0.97,1.75-1.79,3.05-2.47c1.28-0.68,2.79-1.2,4.55-1.56
		C59.53,103.78,61.42,103.6,63.44,103.6z M63.44,107.52c-2.62,0-4.76,0.36-6.42,1.07c-1.67,0.71-2.5,1.67-2.5,2.85
		s0.84,2.15,2.52,2.9c1.68,0.74,3.81,1.12,6.4,1.12c2.68,0,4.83-0.38,6.47-1.14c1.63-0.76,2.45-1.72,2.45-2.88
		c0-1.22-0.82-2.18-2.45-2.88C68.27,107.87,66.11,107.52,63.44,107.52z M69.46,79.39v8.47h3.39v-9.1h4.9v24.75h-4.9v-11.1h-3.39
		v9.85h-4.9V79.39H69.46z"/>
	<path class="st1" d="M102.41,81.04c0.45,0,0.77,0.1,0.96,0.29s0.29,0.51,0.29,0.96c-0.36,6.15-1.9,11.67-4.61,16.54
		c-2.72,4.88-6.78,9.01-12.19,12.39l-4.24-3.34c4.82-2.59,8.51-5.77,11.08-9.54c2.57-3.77,4.02-8.12,4.35-13.02H84.8v-4.28H102.41z
		 M115.52,78.77v39.9h-5.04v-39.9H115.52z"/>
	<path class="st1" d="M120.42,97.89h36.78v4.28h-36.78V97.89z M126.22,93.08c-0.48,0-0.8-0.09-0.96-0.27
		c-0.16-0.18-0.25-0.5-0.25-0.98V78.85h5.13v9.99h23.05v4.24H126.22z M126.22,117.91c-0.48,0-0.8-0.09-0.96-0.27
		c-0.16-0.18-0.25-0.51-0.25-0.98v-11.37h5.08v8.34h23.85v4.28H126.22z"/>
	<path class="st1" d="M42.35,151.98c3.24-1.28,5.77-2.99,7.58-5.13c1.81-2.14,2.72-4.55,2.72-7.22v-1.47h-7.18v-4.19h19.84v4.19
		h-7.27v1.56c0,2.47,0.79,4.65,2.39,6.55c1.59,1.9,3.95,3.37,7.07,4.41l-3.12,3.61c-0.83-0.36-1.7-0.81-2.61-1.36
		c-0.91-0.55-1.78-1.14-2.61-1.76c-0.83-0.62-1.58-1.29-2.25-1.98c-0.67-0.7-1.18-1.39-1.54-2.07c-0.71,1.61-1.92,3.11-3.63,4.5
		c-1.71,1.4-3.59,2.63-5.64,3.7L42.35,151.98z M62.64,156.66c2.05,0,3.94,0.19,5.66,0.56c1.72,0.37,3.23,0.9,4.5,1.58
		c1.28,0.71,2.27,1.58,2.99,2.59c0.71,1.01,1.07,2.16,1.07,3.43c0,1.31-0.36,2.47-1.07,3.48c-0.71,1.01-1.71,1.86-2.99,2.54
		c-1.28,0.68-2.79,1.2-4.53,1.54c-1.74,0.34-3.63,0.51-5.69,0.51c-2.02,0-3.89-0.17-5.62-0.51c-1.72-0.34-3.21-0.87-4.46-1.58
		c-1.28-0.68-2.27-1.52-2.96-2.52c-0.7-1-1.05-2.15-1.05-3.46c0-1.28,0.36-2.42,1.09-3.43c0.73-1.01,1.73-1.86,3.01-2.54
		c1.28-0.71,2.78-1.26,4.5-1.63C58.83,156.84,60.68,156.66,62.64,156.66z M62.59,160.49c-2.59,0-4.7,0.37-6.35,1.11
		c-1.65,0.74-2.47,1.78-2.47,3.12c0,1.34,0.83,2.4,2.5,3.19c1.66,0.79,3.77,1.18,6.33,1.18c2.68,0,4.84-0.39,6.49-1.18
		c1.65-0.79,2.47-1.85,2.47-3.19c0-1.34-0.82-2.38-2.47-3.12C67.43,160.86,65.27,160.49,62.59,160.49z M75.79,132.27v8.83h5.08v4.24
		h-5.08v11.19h-5.08v-24.25H75.79z"/>
	<path class="st1" d="M82.92,141.94v-3.88h23.32v3.88H82.92z M94.56,156.61c-3.33,0-5.89-0.64-7.69-1.92
		c-1.8-1.28-2.7-2.81-2.7-4.59s0.89-3.31,2.68-4.57c1.78-1.26,4.35-1.89,7.71-1.89c3.33,0,5.89,0.63,7.69,1.89
		c1.8,1.26,2.7,2.79,2.7,4.57s-0.91,3.31-2.72,4.59C100.42,155.97,97.86,156.61,94.56,156.61z M113.15,159.56
		c0.45,0,0.76,0.1,0.96,0.29s0.29,0.51,0.29,0.96v11.55h-5.22v-8.65H87.29v-4.15H113.15z M88.27,132.09h12.44v3.79H88.27V132.09z
		 M94.56,147.12c-1.58,0-2.84,0.26-3.79,0.78c-0.95,0.52-1.43,1.24-1.43,2.16c0,1.01,0.48,1.75,1.43,2.23
		c0.95,0.48,2.21,0.71,3.79,0.71c1.55,0,2.8-0.24,3.77-0.71c0.97-0.47,1.45-1.22,1.45-2.23c0-0.92-0.48-1.64-1.45-2.16
		C97.36,147.38,96.11,147.12,94.56,147.12z M114.4,132.27v10.43h5.17v4.5h-5.17v10.75h-5.04v-25.68H114.4z"/>
	<path class="st1" d="M152.17,133.29c0.45,0,0.76,0.1,0.96,0.29s0.29,0.51,0.29,0.96c-0.06,0.92-0.16,1.94-0.29,3.05
		c-0.13,1.11-0.29,2.25-0.47,3.41c-0.18,1.16-0.38,2.32-0.6,3.48c-0.22,1.16-0.44,2.23-0.65,3.21h5.8v4.28h-36.78v-4.28h26.13
		c0.18-0.8,0.36-1.67,0.56-2.61c0.19-0.94,0.35-1.87,0.47-2.79c0.15-0.95,0.27-1.83,0.36-2.65c0.09-0.82,0.13-1.52,0.13-2.12h-23.67
		v-4.24H152.17z M126.35,156.17h24.88c0.45,0,0.76,0.1,0.96,0.29c0.19,0.19,0.29,0.51,0.29,0.96v13.02c0,0.48-0.1,0.8-0.29,0.98
		c-0.19,0.18-0.51,0.27-0.96,0.27h-24.88c-0.48,0-0.8-0.09-0.98-0.27c-0.18-0.18-0.27-0.51-0.27-0.98v-13.02
		c0-0.45,0.09-0.77,0.27-0.96C125.55,156.26,125.87,156.17,126.35,156.17z M147.48,167.45v-7.09h-17.34v7.09H147.48z"/>
</g>
</svg>
