<?xml version="1.0" encoding="utf-8"?>
<!-- Generator: Adobe Illustrator 25.2.0, SVG Export Plug-In . SVG Version: 6.00 Build 0)  -->
<svg version="1.1" id="레이어_1" xmlns="http://www.w3.org/2000/svg" xmlns:xlink="http://www.w3.org/1999/xlink" x="0px"
	 y="0px" viewBox="0 0 400 100" style="enable-background:new 0 0 400 100;" xml:space="preserve">
<style type="text/css">
	.st0{fill:#29ABE2;}
	.st1{fill:#0071BC;}
	.st2{fill:#FFFFFF;}
</style>
<g>
	<path class="st0" d="M17.35,98.5C8.61,98.5,1.5,91.39,1.5,82.65V17.35C1.5,8.61,8.61,1.5,17.35,1.5h365.31
		c8.74,0,15.85,7.11,15.85,15.85v65.31c0,8.74-7.11,15.85-15.85,15.85H17.35z"/>
	<path class="st1" d="M382.65,3C390.56,3,397,9.44,397,17.35v65.31c0,7.91-6.44,14.35-14.35,14.35H17.35C9.44,97,3,90.56,3,82.65
		V17.35C3,9.44,9.44,3,17.35,3H382.65 M382.65,0H17.35C7.77,0,0,7.77,0,17.35v65.31C0,92.23,7.77,100,17.35,100h365.31
		c9.58,0,17.35-7.77,17.35-17.35V17.35C400,7.77,392.23,0,382.65,0L382.65,0z"/>
</g>
<g>
	<path class="st2" d="M13.54,49.37h20.36v2.25h-8.74v1.63h5.5c0.25,0,0.42,0.05,0.53,0.16c0.11,0.11,0.16,0.28,0.16,0.53v4.2
		c0,0.26-0.05,0.44-0.16,0.54c-0.11,0.1-0.28,0.15-0.53,0.15H19.22v1.51h12.64v2.12H16.75c-0.26,0-0.44-0.05-0.54-0.15
		c-0.1-0.1-0.15-0.28-0.15-0.54v-4.22c0-0.25,0.05-0.42,0.15-0.53c0.1-0.11,0.28-0.16,0.54-0.16H28.2V55.4H16.06v-2.15h6.24v-1.63
		h-8.76V49.37z M16.7,41.01h14.02c0.25,0,0.42,0.05,0.53,0.16c0.11,0.11,0.16,0.28,0.16,0.53v5.48c0,0.26-0.05,0.44-0.16,0.54
		c-0.11,0.1-0.28,0.15-0.53,0.15H16.68c-0.26,0-0.44-0.04-0.53-0.14c-0.09-0.09-0.14-0.27-0.14-0.53v-5.5
		c0-0.25,0.05-0.42,0.15-0.53C16.26,41.06,16.44,41.01,16.7,41.01z M28.67,45.72v-2.57h-9.9v2.57H28.67z"/>
	<path class="st2" d="M46.42,41.4c0.25,0,0.42,0.05,0.53,0.16c0.11,0.11,0.16,0.28,0.16,0.53c-0.3,2.34-1.23,4.37-2.79,6.1
		c-1.56,1.73-3.92,3.09-7.08,4.1l-1.7-2c2.37-0.59,4.25-1.44,5.64-2.53s2.28-2.44,2.68-4.04h-7.03V41.4H46.42z M39.73,62.46
		c-0.26,0-0.44-0.05-0.54-0.15c-0.1-0.1-0.15-0.28-0.15-0.54v-4.42c0-0.25,0.05-0.42,0.15-0.53s0.28-0.16,0.54-0.16h11.23v-1.53
		H39.04v-2.17h14.17c0.25,0,0.42,0.05,0.53,0.16c0.11,0.11,0.16,0.28,0.16,0.53v4.27c0,0.26-0.05,0.44-0.16,0.54
		s-0.28,0.15-0.53,0.15H42.03v1.68h12.37v2.17H39.73z M53.95,40.49v11.58h-2.76V49.7h-4.27v-2.22h4.27v-2.05h-3.85V43.2h3.85v-2.71
		H53.95z"/>
	<path class="st2" d="M75.4,49.67v2.29h8.71v2.25H63.75v-2.25h8.69v-2.29H75.4z M65.87,45.7v-2.05h16.04v2.05h-6.12
		c0.51,0.72,1.37,1.32,2.59,1.78s2.81,0.79,4.76,0.99l-1.65,2.12c-1.99-0.35-3.62-0.78-4.87-1.31c-1.26-0.53-2.15-1.14-2.68-1.83
		c-0.49,0.64-1.37,1.23-2.64,1.76c-1.27,0.54-2.93,1-4.99,1.39l-1.7-2.12c2.06-0.25,3.7-0.6,4.92-1.06
		c1.23-0.46,2.05-1.04,2.48-1.73H65.87z M73.92,63.02c-2.68,0-4.72-0.35-6.11-1.04c-1.39-0.69-2.09-1.62-2.09-2.79
		c0-1.15,0.7-2.08,2.1-2.78c1.4-0.7,3.43-1.05,6.1-1.05c2.65,0,4.68,0.35,6.08,1.05c1.41,0.7,2.11,1.63,2.11,2.78
		c0,1.17-0.7,2.1-2.1,2.79S76.58,63.02,73.92,63.02z M73.92,57.42c-1.56,0-2.8,0.17-3.7,0.49c-0.91,0.33-1.36,0.76-1.36,1.31
		c0,0.58,0.45,1,1.36,1.27c0.9,0.27,2.14,0.41,3.7,0.41c1.55,0,2.78-0.14,3.69-0.41s1.37-0.7,1.37-1.27c0-0.54-0.46-0.98-1.37-1.31
		S75.46,57.42,73.92,57.42z M69.55,40.19h8.69v2.15h-8.69V40.19z"/>
	<path class="st2" d="M86.04,45.87v-2.15h12.91v2.15H86.04z M92.48,53.99c-1.84,0-3.26-0.35-4.26-1.06c-1-0.71-1.49-1.55-1.49-2.54
		c0-0.99,0.49-1.83,1.48-2.53c0.99-0.7,2.41-1.05,4.27-1.05c1.84,0,3.26,0.35,4.26,1.05c1,0.7,1.49,1.54,1.49,2.53
		c0,0.99-0.5,1.84-1.51,2.54C95.72,53.64,94.3,53.99,92.48,53.99z M102.77,55.62c0.25,0,0.42,0.05,0.53,0.16
		c0.11,0.11,0.16,0.28,0.16,0.53v6.39h-2.89v-4.79H88.45v-2.3H102.77z M89,40.41h6.89v2.1H89V40.41z M92.48,48.73
		c-0.87,0-1.57,0.14-2.1,0.43c-0.53,0.29-0.79,0.69-0.79,1.2c0,0.56,0.26,0.97,0.79,1.23c0.53,0.26,1.23,0.4,2.1,0.4
		c0.86,0,1.55-0.13,2.09-0.4c0.53-0.26,0.8-0.67,0.8-1.23c0-0.51-0.27-0.91-0.8-1.2C94.03,48.88,93.33,48.73,92.48,48.73z
		 M103.46,40.51v5.78h2.86v2.49h-2.86v5.95h-2.79V40.51H103.46z"/>
	<path class="st2" d="M106.15,51.23c1.51-0.9,2.68-2.02,3.49-3.34c0.81-1.32,1.22-2.94,1.22-4.85v-1.95h2.91v1.95
		c-0.02,1.74,0.33,3.2,1.05,4.38c0.72,1.18,1.8,2.18,3.25,3l-1.83,1.9c-0.82-0.54-1.59-1.17-2.3-1.89
		c-0.71-0.72-1.23-1.45-1.58-2.21c-0.35,0.84-0.86,1.68-1.54,2.52c-0.68,0.84-1.5,1.6-2.46,2.27L106.15,51.23z M118.1,53.69
		c1.15,0,2.22,0.11,3.21,0.32s1.84,0.52,2.57,0.91c0.71,0.4,1.27,0.88,1.68,1.46c0.41,0.58,0.62,1.23,0.62,1.97
		c0,0.76-0.21,1.42-0.62,2c-0.41,0.58-0.98,1.06-1.7,1.46c-0.71,0.39-1.56,0.69-2.55,0.89s-2.07,0.3-3.22,0.3s-2.22-0.1-3.2-0.3
		s-1.82-0.49-2.53-0.89c-0.72-0.39-1.28-0.88-1.68-1.46c-0.39-0.58-0.59-1.24-0.59-2c0-0.72,0.21-1.37,0.62-1.95
		c0.41-0.58,0.98-1.07,1.7-1.48c0.72-0.39,1.58-0.7,2.55-0.91C115.93,53.8,116.98,53.69,118.1,53.69z M118.07,55.89
		c-1.46,0-2.67,0.21-3.6,0.64c-0.94,0.43-1.41,1.02-1.41,1.78c0,0.77,0.47,1.39,1.42,1.84c0.95,0.45,2.14,0.68,3.59,0.68
		c1.51,0,2.74-0.23,3.68-0.69s1.41-1.07,1.41-1.83c0-0.77-0.47-1.37-1.39-1.79C120.83,56.1,119.6,55.89,118.07,55.89z M121.33,40.86
		v4.42h1.9v-4.76h2.72v13.4h-2.72v-6.12h-1.9v5.38h-2.71V40.86H121.33z"/>
	<path class="st2" d="M134.98,54.36c-1.23-0.16-2.22-0.55-2.95-1.16c-0.73-0.61-1.1-1.37-1.1-2.27c0-1.05,0.5-1.9,1.49-2.54
		c1-0.64,2.32-0.96,3.99-0.96c1.65,0,2.97,0.32,3.97,0.96c1,0.64,1.51,1.49,1.51,2.54c0,0.89-0.36,1.63-1.09,2.23
		s-1.68,0.99-2.86,1.17v1.8c0.46-0.02,0.96-0.04,1.51-0.06c0.54-0.03,1.09-0.05,1.63-0.09c0.56-0.05,1.09-0.09,1.6-0.14
		c0.51-0.04,0.98-0.09,1.41-0.16v2.34c-1.51,0.2-3.35,0.34-5.52,0.43c-2.16,0.09-4.46,0.14-6.9,0.14h-2.54v-2.39l5.85-0.03V54.36z
		 M130.12,44.34h12.49v2.2h-12.49V44.34z M132.88,40.83h6.94v2.15h-6.94V40.83z M136.41,49.42c-0.9,0-1.57,0.14-2,0.43
		c-0.43,0.29-0.64,0.65-0.64,1.07c0,0.44,0.22,0.81,0.65,1.09c0.44,0.28,1.1,0.42,1.99,0.42c0.89,0,1.55-0.14,1.99-0.42
		c0.44-0.28,0.65-0.64,0.65-1.09c0-0.43-0.22-0.79-0.65-1.07C137.96,49.57,137.3,49.42,136.41,49.42z M144.66,62.6V40.51h2.79V62.6
		H144.66z"/>
	<path class="st2" d="M164.35,49.65c-0.59,0.15-1.21,0.24-1.86,0.28c-0.65,0.04-1.3,0.06-1.96,0.06h-2.59v-2.2h3.63
		c0.69,0,1.32-0.02,1.9-0.05c0.58-0.03,1.17-0.12,1.78-0.25c0.16-0.54,0.3-1.1,0.41-1.67c0.11-0.57,0.19-1.16,0.23-1.76h-7.21V41.8
		h9.58c0.25,0,0.42,0.05,0.53,0.16c0.11,0.11,0.16,0.28,0.16,0.53c-0.18,3.26-1.02,6.23-2.52,8.91c-1.5,2.68-3.77,5.05-6.81,7.11
		l-2.32-1.88c1.51-0.81,2.88-1.8,4.1-2.99S163.6,51.13,164.35,49.65z M174.79,40.49v8.47h2.99v2.49h-2.99V62.6H172V40.49H174.79z"/>
	<path class="st2" d="M185.88,49.65c-0.59,0.15-1.21,0.24-1.86,0.28c-0.65,0.04-1.3,0.06-1.96,0.06h-2.59v-2.2h3.63
		c0.69,0,1.32-0.02,1.9-0.05c0.58-0.03,1.17-0.12,1.78-0.25c0.16-0.54,0.3-1.1,0.41-1.67c0.11-0.57,0.19-1.16,0.23-1.76h-7.21V41.8
		h9.58c0.25,0,0.42,0.05,0.53,0.16c0.11,0.11,0.16,0.28,0.16,0.53c-0.18,3.26-1.02,6.23-2.52,8.91c-1.5,2.68-3.77,5.05-6.81,7.11
		l-2.32-1.88c1.51-0.81,2.88-1.8,4.1-2.99S185.12,51.13,185.88,49.65z M196.32,40.49v8.47h2.99v2.49h-2.99V62.6h-2.79V40.49H196.32z
		"/>
	<path class="st2" d="M208.76,53.32c-2.06-0.25-3.62-0.94-4.7-2.08s-1.62-2.5-1.62-4.06c0-0.86,0.17-1.66,0.51-2.42
		c0.34-0.76,0.83-1.42,1.49-1.97c0.66-0.56,1.47-1,2.44-1.33c0.97-0.33,2.09-0.49,3.36-0.49c1.25,0,2.36,0.17,3.33,0.49
		c0.97,0.33,1.79,0.77,2.44,1.33c0.66,0.56,1.16,1.22,1.51,1.97c0.35,0.76,0.52,1.56,0.52,2.42c0,1.58-0.55,2.94-1.64,4.08
		c-1.09,1.14-2.68,1.83-4.75,2.06v4.47h8.79v2.37h-20.44v-2.37h8.76V53.32z M210.24,43.3c-1.43,0-2.6,0.35-3.5,1.05
		c-0.91,0.7-1.36,1.64-1.36,2.83s0.45,2.13,1.36,2.83c0.9,0.7,2.07,1.05,3.5,1.05c1.42,0,2.58-0.35,3.49-1.05
		c0.91-0.7,1.37-1.64,1.37-2.83s-0.46-2.13-1.37-2.83C212.82,43.65,211.65,43.3,210.24,43.3z"/>
	<path class="st2" d="M224.8,40.93h14.59v2h-12.44v1.7h12.34v1.95h-12.34v1.73h12.66v2.02h-6.49v1.7h8.81v2.27h-20.36v-2.27h8.52
		v-1.7h-5.31c-0.26,0-0.44-0.05-0.53-0.15c-0.09-0.1-0.14-0.28-0.14-0.54v-8.02c0-0.25,0.05-0.42,0.15-0.53
		C224.36,40.99,224.54,40.93,224.8,40.93z M238.7,55.69c0.25,0,0.42,0.05,0.53,0.16c0.11,0.11,0.16,0.28,0.16,0.53v6.34h-2.86v-4.76
		h-12.69v-2.27H238.7z"/>
	<path class="st2" d="M251.01,45.1h10.19v2.37h-3.58v1.09c-0.02,1.68,0.39,3.15,1.22,4.42c0.83,1.27,1.89,2.29,3.17,3.06l-1.9,1.8
		c-0.94-0.64-1.74-1.34-2.39-2.1c-0.66-0.76-1.18-1.54-1.55-2.34c-0.39,0.92-0.93,1.81-1.6,2.68c-0.67,0.86-1.5,1.68-2.47,2.46
		l-2.32-1.73c1.42-0.92,2.58-2.07,3.5-3.46c0.92-1.38,1.38-3,1.38-4.84v-1.04h-3.65V45.1z M253.13,41.01h6.05v2.3h-6.05V41.01z
		 M269.8,40.51V62.6h-2.67V51.15h-1.9v10.42h-2.71V40.88h2.71v7.55h1.9v-7.92H269.8z"/>
	<path class="st2" d="M273.84,50.56c-0.26,0-0.44-0.05-0.53-0.15c-0.09-0.1-0.14-0.28-0.14-0.54v-8.86h2.76v7.11H279
		c0.51,0,1.08-0.02,1.7-0.06c0.62-0.04,1.23-0.09,1.83-0.16c0.61-0.07,1.18-0.14,1.72-0.23c0.53-0.09,0.99-0.18,1.37-0.26v2.37
		c-0.31,0.08-0.72,0.16-1.22,0.25c-0.5,0.08-1.06,0.16-1.67,0.25c-0.62,0.07-1.28,0.12-1.95,0.17c-0.67,0.05-1.33,0.07-1.97,0.07
		c-0.18,0.02-0.53,0.03-1.06,0.04c-0.53,0.01-1.07,0.01-1.63,0.01c-0.58,0-1.09,0-1.55,0S273.86,50.56,273.84,50.56z M276.11,62.46
		c-0.26,0-0.44-0.05-0.54-0.15c-0.1-0.1-0.15-0.28-0.15-0.54v-4.59c0-0.25,0.05-0.42,0.15-0.53c0.1-0.11,0.28-0.16,0.54-0.16h11.13
		v-1.78h-11.82v-2.17h14.07c0.25,0,0.42,0.05,0.53,0.16c0.11,0.11,0.16,0.28,0.16,0.53v4.52c0,0.26-0.05,0.44-0.16,0.54
		c-0.11,0.1-0.28,0.15-0.53,0.15h-11.08v1.85h12.27v2.17H276.11z M290.26,40.51v11.16h-2.79v-6.02h-5.78v-2.37h5.78v-2.76H290.26z"
		/>
	<path class="st2" d="M312.27,56.63c0,0.26-0.05,0.44-0.16,0.54c-0.11,0.1-0.28,0.15-0.53,0.15h-9.11c-0.26,0-0.44-0.05-0.53-0.15
		s-0.14-0.28-0.14-0.54V41.62h2.76v5.28h4.94v-5.28h2.76V56.63z M309.51,54.98V49.3h-4.94v5.68H309.51z M318.25,40.51v8.07h3.01
		v2.49h-3.01V62.6h-2.79V40.51H318.25z"/>
	<path class="st2" d="M338.91,49.1h-11.55v2.99h12.79v2.34h-6.59v3.41h8.81v2.34h-20.39v-2.34h8.66v-3.41h-5.33
		c-0.26,0-0.44-0.05-0.54-0.15s-0.15-0.28-0.15-0.54v-6.27c0-0.25,0.05-0.42,0.15-0.53s0.28-0.16,0.54-0.16h11.58v-3.01h-12.29
		v-2.34h14.32c0.25,0,0.42,0.05,0.53,0.16c0.11,0.11,0.16,0.28,0.16,0.53v6.29c0,0.26-0.05,0.44-0.16,0.54
		C339.33,49.05,339.15,49.1,338.91,49.1z"/>
	<path class="st2" d="M354.7,41.77c0.25,0,0.42,0.05,0.53,0.16c0.11,0.11,0.16,0.28,0.16,0.53c-0.2,3.47-1.07,6.54-2.6,9.21
		c-1.54,2.67-3.78,4.94-6.73,6.81l-2.32-1.85c2.68-1.48,4.74-3.26,6.17-5.34c1.43-2.08,2.22-4.46,2.37-7.15h-7.31v-2.37H354.7z
		 M358.5,62.6V40.49h2.76v8.61h3.01v2.49h-3.01V62.6H358.5z"/>
	<path class="st2" d="M376.57,41.77c0.25,0,0.42,0.05,0.53,0.16c0.11,0.11,0.16,0.28,0.16,0.53c-0.2,3.41-1.05,6.46-2.55,9.16
		c-1.5,2.7-3.76,4.99-6.75,6.86l-2.34-1.85c2.67-1.43,4.71-3.19,6.13-5.28c1.42-2.09,2.23-4.49,2.41-7.21h-7.33v-2.37H376.57z
		 M383.83,40.51V62.6h-2.79V40.51H383.83z"/>
</g>
</svg>
