<?xml version="1.0" encoding="utf-8"?>
<!-- Generator: Adobe Illustrator 25.2.0, SVG Export Plug-In . SVG Version: 6.00 Build 0)  -->
<svg version="1.1" id="레이어_1" xmlns="http://www.w3.org/2000/svg" xmlns:xlink="http://www.w3.org/1999/xlink" x="0px"
	 y="0px" viewBox="0 0 400 200" style="enable-background:new 0 0 400 200;" xml:space="preserve">
<style type="text/css">
	.st0{fill:#FFFFFF;stroke:#CD6D8D;stroke-width:3;stroke-miterlimit:10;}
	.st1{fill:#418FCD;}
</style>
<path class="st0" d="M371.7,198.2H28.6c-14.4,0-26.1-11.7-26.1-26.1V28.2c0-14.4,11.7-26.1,26.1-26.1h343.1
	c14.4,0,26.1,11.7,26.1,26.1v143.9C397.8,186.5,386.1,198.2,371.7,198.2z"/>
<g>
	<path class="st1" d="M46.7,44.2h-9.1v6.3c0,6.3,0.9,11.4,2.7,15.3c1.8,3.9,4.9,7.2,9.1,9.9l-5,5.1c-2.5-1.6-4.7-3.6-6.6-5.9
		c-1.9-2.3-3.3-4.5-4.3-6.8c-0.8,2.5-2.2,5.1-4.3,7.6c-2.1,2.6-4.4,4.9-6.9,7L16.3,78c4.7-3,8.1-6.7,10.3-11.3
		c2.2-4.5,3.3-10,3.3-16.4v-6.1h-9.1v-6.3h26V44.2z M42.7,52.7h8.5V35.1h7.3V91h-7.3V59.7h-8.5V52.7z M70.3,34.1v59.7h-7.3V34.1
		H70.3z"/>
	<path class="st1" d="M82.1,37.8h19.2V44H87.6v28.6l5.5-0.1c0.9,0,2-0.1,3.1-0.2c1.1-0.1,2.2-0.2,3.3-0.4c1.1-0.1,2.1-0.3,3-0.4
		c0.9-0.1,1.7-0.3,2.3-0.4v6.4c-0.7,0.2-1.6,0.4-2.8,0.5c-1.2,0.2-2.5,0.3-3.8,0.5c-1.3,0.1-2.7,0.2-4.1,0.3
		c-1.4,0.1-2.7,0.1-3.9,0.1c-0.4,0-1.1,0.1-2,0.1s-1.7,0-2.6,0c-0.9,0-2.1,0-3.4,0c-0.7,0-1.2-0.1-1.4-0.4c-0.2-0.3-0.4-0.8-0.4-1.5
		V39.6c0-0.7,0.1-1.1,0.4-1.4C80.9,37.9,81.4,37.8,82.1,37.8z M113.7,35.1v18.7h5.9V34h7.3v59.7h-7.3V61.2h-5.9V91h-7.2V35.1H113.7z
		"/>
	<path class="st1" d="M179.5,57.3h-31.2v8.1h34.5v6.3h-17.8v9.2h23.8v6.3h-55.1v-6.3h23.4v-9.2h-14.4c-0.7,0-1.2-0.1-1.5-0.4
		s-0.4-0.8-0.4-1.5V52.9c0-0.7,0.1-1.1,0.4-1.4c0.3-0.3,0.8-0.4,1.5-0.4h31.3v-8.1h-33.2v-6.3h38.7c0.7,0,1.1,0.1,1.4,0.4
		c0.3,0.3,0.4,0.8,0.4,1.4v17c0,0.7-0.1,1.2-0.4,1.5C180.7,57.2,180.2,57.3,179.5,57.3z"/>
	<path class="st1" d="M266.3,63.7h-55v-6h55V63.7z M217.6,35.3H260V41h-16.5c0.5,1.1,1.4,2.1,2.6,3c1.3,0.9,2.8,1.7,4.6,2.4
		c1.8,0.7,3.8,1.3,6,1.8c2.2,0.5,4.6,0.8,7.1,0.9l-4,5.7c-2-0.3-4.1-0.6-6.3-1.1c-2.2-0.5-4.2-1.1-6.2-1.8c-2-0.7-3.7-1.5-5.2-2.5
		c-1.5-0.9-2.7-2-3.4-3.1c-1.7,2-4.5,3.8-8.3,5.4c-3.8,1.5-8.1,2.6-12.8,3.2l-4.1-5.7c2.3-0.2,4.6-0.5,6.8-0.9
		c2.2-0.4,4.2-1,6.1-1.6c1.8-0.7,3.4-1.5,4.7-2.4c1.3-0.9,2.3-2,2.8-3.2h-16.3V35.3z M257.6,83.4h-30.9v4.4h34.1v5.6H220
		c-0.7,0-1.2-0.1-1.5-0.4c-0.3-0.3-0.4-0.8-0.4-1.5V80.1c0-0.7,0.1-1.1,0.4-1.4s0.8-0.4,1.5-0.4h30.9V74h-32.8v-5.7h39.5
		c0.7,0,1.1,0.1,1.4,0.4c0.3,0.3,0.4,0.8,0.4,1.4v11.3c0,0.7-0.1,1.2-0.4,1.5C258.7,83.2,258.2,83.4,257.6,83.4z"/>
	<path class="st1" d="M300.6,37.5c0.7,0,1.1,0.1,1.4,0.4c0.3,0.3,0.4,0.8,0.4,1.4c-0.5,9.2-2.8,17.4-6.9,24.7
		c-4.1,7.3-10.1,13.5-18.2,18.5l-6.3-5c7.2-3.9,12.7-8.6,16.6-14.3c3.8-5.6,6-12.1,6.5-19.5h-19.8v-6.4H300.6z M320.2,34.1v59.7
		h-7.5V34.1H320.2z"/>
	<path class="st1" d="M327.6,62.7h55v6.4h-55V62.7z M336.2,55.5c-0.7,0-1.2-0.1-1.4-0.4c-0.2-0.3-0.4-0.8-0.4-1.5V34.2h7.7v14.9
		h34.5v6.3H336.2z M336.2,92.7c-0.7,0-1.2-0.1-1.4-0.4c-0.2-0.3-0.4-0.8-0.4-1.5v-17h7.6v12.5h35.7v6.4H336.2z"/>
	<path class="st1" d="M62.8,117.8H82v6.3H68.3v28.6l5.5-0.1c0.9,0,2-0.1,3.1-0.2c1.1-0.1,2.2-0.2,3.3-0.4c1.1-0.1,2.1-0.3,3-0.4
		c0.9-0.1,1.7-0.3,2.3-0.4v6.4c-0.7,0.2-1.6,0.4-2.8,0.5c-1.2,0.2-2.5,0.3-3.8,0.5c-1.3,0.1-2.7,0.2-4.1,0.3
		c-1.4,0.1-2.7,0.1-3.9,0.1c-0.4,0-1.1,0.1-2,0.1s-1.7,0-2.6,0c-0.9,0-2.1,0-3.4,0c-0.7,0-1.2-0.1-1.4-0.4c-0.2-0.3-0.4-0.8-0.4-1.5
		v-37.7c0-0.7,0.1-1.1,0.4-1.4C61.6,117.9,62.1,117.8,62.8,117.8z M94.4,115.1v18.7h5.9v-19.8h7.3v59.7h-7.3v-32.5h-5.9V171h-7.2
		v-55.9H94.4z"/>
	<path class="st1" d="M135.9,128.6v-5.8h34.9v5.8H135.9z M153.3,150.5c-5,0-8.8-1-11.5-2.9c-2.7-1.9-4-4.2-4-6.9s1.3-4.9,4-6.8
		c2.7-1.9,6.5-2.8,11.5-2.8c5,0,8.8,0.9,11.5,2.8c2.7,1.9,4,4.2,4,6.8s-1.4,5-4.1,6.9C162,149.6,158.2,150.5,153.3,150.5z
		 M181.1,154.9c0.7,0,1.1,0.1,1.4,0.4c0.3,0.3,0.4,0.8,0.4,1.4v17.3h-7.8v-12.9h-32.7v-6.2H181.1z M143.9,113.9h18.6v5.7h-18.6
		V113.9z M153.3,136.3c-2.4,0-4.2,0.4-5.7,1.2c-1.4,0.8-2.1,1.9-2.1,3.2c0,1.5,0.7,2.6,2.1,3.3c1.4,0.7,3.3,1.1,5.7,1.1
		c2.3,0,4.2-0.4,5.6-1.1c1.4-0.7,2.2-1.8,2.2-3.3c0-1.4-0.7-2.5-2.2-3.2C157.5,136.7,155.6,136.3,153.3,136.3z M182.9,114.1v15.6
		h7.7v6.7h-7.7v16.1h-7.5v-38.4H182.9z"/>
	<path class="st1" d="M209.5,143.1c4.1-2.4,7.2-5.5,9.4-9c2.2-3.6,3.3-7.9,3.3-13.1v-5.3h7.9v5.3c0,4.7,0.9,8.7,2.8,11.8
		c1.9,3.2,4.9,5.9,8.8,8.1l-4.9,5.1c-2.2-1.5-4.3-3.2-6.2-5.1c-1.9-1.9-3.3-3.9-4.3-6c-0.9,2.3-2.3,4.5-4.2,6.8
		c-1.8,2.3-4.1,4.3-6.6,6.1L209.5,143.1z M241.8,149.7c3.1,0,6,0.3,8.7,0.9c2.7,0.6,5,1.4,6.9,2.5c1.9,1.1,3.4,2.4,4.5,3.9
		c1.1,1.6,1.7,3.3,1.7,5.3c0,2-0.6,3.8-1.7,5.4c-1.1,1.6-2.6,2.9-4.6,3.9c-1.9,1.1-4.2,1.9-6.9,2.4c-2.7,0.5-5.6,0.8-8.7,0.8
		c-3.1,0-6-0.3-8.6-0.8c-2.6-0.5-4.9-1.3-6.8-2.4c-2-1.1-3.5-2.4-4.5-3.9c-1.1-1.6-1.6-3.4-1.6-5.4c0-2,0.6-3.7,1.7-5.3
		c1.1-1.6,2.6-2.9,4.6-4c2-1.1,4.3-1.9,6.9-2.5C236,150,238.8,149.7,241.8,149.7z M241.8,155.7c-4,0-7.2,0.6-9.7,1.7
		c-2.5,1.2-3.8,2.8-3.8,4.8c0,2.1,1.3,3.7,3.8,5c2.6,1.2,5.8,1.8,9.7,1.8c4.1,0,7.4-0.6,9.9-1.9c2.5-1.2,3.8-2.9,3.8-4.9
		c0-2.1-1.3-3.7-3.8-4.8C249.2,156.2,245.9,155.7,241.8,155.7z M250.6,115.1V127h5.1v-12.9h7.3v36.2h-7.3v-16.5h-5.1v14.5h-7.3
		v-33.3H250.6z"/>
	<path class="st1" d="M304.5,140c-3.6-0.3-6.4-1-8.3-2.2c-1.9-1.2-2.8-2.6-2.8-4.3c0-2,1.3-3.7,3.9-4.9c2.6-1.2,6.4-1.8,11.5-1.8
		c5,0,8.8,0.6,11.5,1.8c2.6,1.2,3.9,2.8,3.9,4.9c0,1.7-0.9,3.2-2.8,4.3c-1.9,1.2-4.7,1.9-8.3,2.2v3.3c0.7,0,1.6,0,2.9-0.1
		c1.2-0.1,2.6-0.2,4.1-0.3c1.5-0.1,3-0.3,4.5-0.4c1.5-0.2,2.9-0.3,4.2-0.5v5.3c-1,0.1-2.3,0.3-3.9,0.4c-1.6,0.2-3.4,0.3-5.4,0.4
		c-2,0.1-4.1,0.2-6.4,0.3c-2.2,0.1-4.5,0.1-6.6,0.1h-16.9v-5.1h14.9V140z M292.1,120.6h33.5v4.9h-33.5V120.6z M300.2,160.2h29.6
		v-3.4h-31.5v-5.1H336c0.7,0,1.1,0.1,1.4,0.4s0.4,0.8,0.4,1.4v9.3c0,0.7-0.1,1.2-0.4,1.5s-0.8,0.4-1.4,0.4h-29.5v3.5h32.8v5.1h-39
		c-0.7,0-1.2-0.1-1.5-0.4c-0.3-0.3-0.4-0.8-0.4-1.5v-9.5c0-0.7,0.1-1.1,0.4-1.4S299.5,160.2,300.2,160.2z M300,113.5h17.7v4.8H300
		V113.5z M308.8,131.1c-2.1,0-3.8,0.2-5.1,0.6c-1.3,0.4-1.9,1-1.9,1.8s0.6,1.4,1.9,1.8c1.3,0.4,3,0.6,5.1,0.6c2.1,0,3.8-0.2,5.1-0.6
		c1.3-0.4,1.9-1,1.9-1.8s-0.6-1.4-1.9-1.8C312.7,131.3,311,131.1,308.8,131.1z M345.6,134.7h-7.8v14.9h-7.5v-35.5h7.5v14.2h7.8
		V134.7z"/>
</g>
</svg>
