<?xml version="1.0" encoding="utf-8"?>
<!-- Generator: Adobe Illustrator 25.2.0, SVG Export Plug-In . SVG Version: 6.00 Build 0)  -->
<svg version="1.1" id="레이어_1" xmlns="http://www.w3.org/2000/svg" xmlns:xlink="http://www.w3.org/1999/xlink" x="0px"
	 y="0px" viewBox="0 0 400 200" style="enable-background:new 0 0 400 200;" xml:space="preserve">
<style type="text/css">
	.st0{fill:#FFFFFF;stroke:#CD6D8D;stroke-width:3;stroke-miterlimit:10;}
	.st1{fill:#418FCD;}
</style>
<path class="st0" d="M371.7,198.2H28.6c-14.4,0-26.1-11.7-26.1-26.1V28.2c0-14.4,11.7-26.1,26.1-26.1h343.1
	c14.4,0,26.1,11.7,26.1,26.1v143.9C397.8,186.5,386.1,198.2,371.7,198.2z"/>
<g>
	<path class="st1" d="M143.3,80c-2.9-2-5.7-4.4-8.4-7.3c-2.7-2.9-4.7-6-6.2-9.2c-0.4,1.3-1,2.7-2,4.3c-0.9,1.6-2.1,3.2-3.5,4.8
		c-1.3,1.7-2.8,3.3-4.4,4.8c-1.6,1.5-3.3,2.9-4.9,4.1l-6.7-5.3c6-3.6,10.3-8.1,13-13.3c2.7-5.2,4.1-11,4.1-17.2V32h8.4v14.1
		c0,5.8,1.3,11.2,4,16.2c2.7,5,6.9,9.1,12.4,12.3L143.3,80z M162.9,29.7v63.5h-8V55.6h-12.7v-7.2h12.7V29.7H162.9z"/>
	<path class="st1" d="M175.8,76V32.8h7.9V48h14.3V32.8h8V76c0,0.8-0.2,1.3-0.5,1.6c-0.3,0.3-0.8,0.4-1.5,0.4h-26.2
		c-0.8,0-1.3-0.1-1.5-0.4C175.9,77.2,175.8,76.7,175.8,76z M197.9,71.2V54.9h-14.3v16.3H197.9z M216.4,93.2V29.7h8v63.5H216.4z"/>
	<path class="st1" d="M291.3,85.4h-58.7v-6.8h58.7V85.4z M283.9,67.5c-2.3-0.7-4.5-1.7-6.8-2.9c-2.3-1.3-4.4-2.7-6.4-4.2
		c-2-1.6-3.8-3.2-5.3-5c-1.5-1.8-2.7-3.5-3.5-5.2c-2,3.8-4.8,7.2-8.4,10.2c-3.6,3-8.1,5.4-13.3,7.2l-5.6-6c3.3-0.9,6.3-2.2,9.1-3.8
		c2.8-1.6,5.2-3.4,7.3-5.4c2.1-2.1,3.7-4.4,4.9-6.8c1.2-2.5,1.8-5.1,1.8-7.8v-5.9h8.7v5.9c0,2.7,0.6,5.4,1.9,7.9
		c1.3,2.5,3,4.9,5.1,7c2.1,2.1,4.6,4,7.3,5.6c2.7,1.6,5.6,2.8,8.4,3.5L283.9,67.5z"/>
	<path class="st1" d="M111.9,161.2c0,0.8-0.2,1.3-0.5,1.6c-0.3,0.3-0.8,0.4-1.5,0.4H83.7c-0.8,0-1.3-0.1-1.5-0.4
		c-0.3-0.3-0.4-0.8-0.4-1.6v-43.2h8v15.2h14.2v-15.2h8V161.2z M103.9,156.5v-16.3H89.7v16.3H103.9z M129.1,114.9v23.2h8.7v7.2h-8.7
		v33.2h-8v-63.5H129.1z"/>
	<path class="st1" d="M188.5,139.6h-33.2v8.6h36.8v6.7h-19v9.8h25.3v6.7h-58.6v-6.7h24.9v-9.8h-15.3c-0.8,0-1.3-0.1-1.6-0.4
		s-0.4-0.8-0.4-1.6v-18c0-0.7,0.1-1.2,0.4-1.5c0.3-0.3,0.8-0.5,1.6-0.5h33.3v-8.7h-35.4v-6.7h41.2c0.7,0,1.2,0.2,1.5,0.5
		c0.3,0.3,0.5,0.8,0.5,1.5v18.1c0,0.8-0.2,1.3-0.5,1.6C189.7,139.4,189.2,139.6,188.5,139.6z"/>
	<path class="st1" d="M233.9,118.5c0.7,0,1.2,0.2,1.5,0.5c0.3,0.3,0.5,0.8,0.5,1.5c-0.6,10-3.1,18.8-7.5,26.5
		c-4.4,7.7-10.9,14.2-19.3,19.6l-6.7-5.3c7.7-4.3,13.6-9.4,17.8-15.4c4.1-6,6.4-12.8,6.8-20.6h-21v-6.8H233.9z M244.9,178.4v-63.6h8
		v24.8h8.7v7.2h-8.7v31.7H244.9z"/>
	<path class="st1" d="M296.9,118.5c0.7,0,1.2,0.2,1.5,0.5c0.3,0.3,0.5,0.8,0.5,1.5c-0.6,9.8-3,18.6-7.3,26.3
		c-4.3,7.8-10.8,14.3-19.4,19.7l-6.7-5.3c7.7-4.1,13.5-9.2,17.6-15.2c4.1-6,6.4-12.9,6.9-20.7h-21.1v-6.8H296.9z M317.7,114.9v63.5
		h-8v-63.5H317.7z"/>
</g>
</svg>
