<?xml version="1.0" encoding="utf-8"?>
<!-- Generator: Adobe Illustrator 25.2.0, SVG Export Plug-In . SVG Version: 6.00 Build 0)  -->
<svg version="1.1" id="레이어_1" xmlns="http://www.w3.org/2000/svg" xmlns:xlink="http://www.w3.org/1999/xlink" x="0px"
	 y="0px" viewBox="0 0 400 200" style="enable-background:new 0 0 400 200;" xml:space="preserve">
<style type="text/css">
	.st0{fill:#FFFFFF;stroke:#CD6D8D;stroke-width:3;stroke-miterlimit:10;}
	.st1{fill:#418FCD;}
</style>
<path class="st0" d="M371.7,198.2H28.6c-14.4,0-26.1-11.7-26.1-26.1V28.2c0-14.4,11.7-26.1,26.1-26.1h343.1
	c14.4,0,26.1,11.7,26.1,26.1v143.9C397.8,186.5,386.1,198.2,371.7,198.2z"/>
<g>
	<path class="st1" d="M86.8,85.2v-4.3c1.6-1.5,3.7-3.6,6.3-6.2c2.6-2.6,5.1-5.4,7.6-8.3c2.5-2.9,4.6-5.8,6.5-8.6
		c1.8-2.8,2.7-5.2,2.7-7.2c0-2.6-0.7-4.5-2.1-5.8c-1.4-1.2-3.2-1.8-5.5-1.8s-4.1,0.8-5.4,2.4c-1.4,1.6-2,3.9-2,7h-7.7
		c0-2.4,0.4-4.6,1.2-6.5c0.8-2,1.9-3.6,3.2-4.9c1.4-1.4,3-2.4,4.8-3.2c1.8-0.7,3.8-1.1,6-1.1c2.1,0,4.1,0.3,5.9,0.9
		c1.9,0.6,3.5,1.5,4.9,2.6c1.4,1.2,2.5,2.6,3.3,4.2c0.8,1.7,1.2,3.6,1.2,5.7c0,2.9-0.9,5.9-2.6,8.9c-1.7,3-3.7,5.9-6.1,8.7
		c-2.3,2.8-4.7,5.3-7.1,7.6c-2.4,2.3-4.3,4.1-5.6,5.4h22.4V87H88.6c-0.7,0-1.2-0.1-1.4-0.4C86.9,86.4,86.8,85.9,86.8,85.2z"/>
	<path class="st1" d="M154.7,37.5c0.7,0,1.1,0.1,1.4,0.4c0.3,0.3,0.4,0.8,0.4,1.4c-0.5,9.2-2.8,17.4-6.9,24.7
		c-4.1,7.3-10.1,13.5-18.2,18.5l-6.3-5c7.2-3.9,12.7-8.6,16.6-14.3c3.8-5.6,6-12.1,6.5-19.5h-19.8v-6.4H154.7z M166.8,93.8V62.3
		h-12.3v-6.7h12.3V34.1h7.5v59.7H166.8z"/>
	<path class="st1" d="M256,64.4h-23.8v4.4h15.1c0.7,0,1.1,0.1,1.4,0.4c0.3,0.3,0.4,0.8,0.4,1.4v11c0,0.7-0.1,1.2-0.4,1.5
		s-0.8,0.4-1.4,0.4h-30.9v4.2h34.1v5.6h-40.7c-0.7,0-1.2-0.1-1.5-0.4c-0.3-0.3-0.4-0.8-0.4-1.5V80.3c0-0.7,0.1-1.1,0.4-1.4
		c0.3-0.3,0.8-0.4,1.5-0.4h30.9v-3.9h-32.8v-5.7h16.6v-4.4H201v-5.8h55V64.4z M206.9,35.4h43V41h-6.7l-0.1,8h7.9v5.7h-45.3V49h7.7
		l-0.1-8h-6.6V35.4z M221.1,41l0.1,8h14.6l0.1-8H221.1z"/>
	<path class="st1" d="M265.2,36.5h24.3c0.7,0,1.1,0.1,1.4,0.4c0.3,0.3,0.4,0.8,0.4,1.4v3.4h10.7v-7.7h7.6V77h-7.6V60.4h-10.7v4.1
		c0,0.7-0.1,1.2-0.4,1.5c-0.3,0.3-0.8,0.4-1.4,0.4h-24.3c-0.7,0-1.2-0.1-1.4-0.4c-0.2-0.2-0.4-0.7-0.4-1.4V38.4
		c0-0.7,0.1-1.1,0.4-1.4C264,36.7,264.5,36.5,265.2,36.5z M271.3,92.7c-0.7,0-1.2-0.1-1.4-0.4c-0.2-0.3-0.4-0.8-0.4-1.5V72.4h7.6
		v13.9h33.8v6.4H271.3z M283.9,60V42.8h-13.3V60H283.9z M291.3,48v6.2h10.7V48H291.3z"/>
	<path class="st1" d="M98.7,119.5V167h-7.5v-39.9c-0.2,0.2-1.1,0.8-2.9,1.8c-1.8,1-4.2,2.3-7.2,3.9v-7c2.1-0.9,4.1-2.1,5.8-3.4
		c1.7-1.3,3.4-2.9,5.1-4.6h4.9c0.7,0,1.1,0.1,1.4,0.4S98.7,118.9,98.7,119.5z"/>
	<path class="st1" d="M118.5,116.5h24.7c0.7,0,1.1,0.1,1.4,0.4c0.3,0.3,0.4,0.8,0.4,1.4v25.4c0,0.7-0.1,1.2-0.4,1.5
		c-0.3,0.3-0.8,0.4-1.4,0.4h-24.8c-0.7,0-1.2-0.1-1.4-0.4c-0.2-0.3-0.4-0.8-0.4-1.5v-25.4c0-0.7,0.1-1.1,0.4-1.4
		C117.3,116.7,117.8,116.5,118.5,116.5z M124.8,172.7c-0.7,0-1.2-0.1-1.4-0.4c-0.2-0.3-0.4-0.8-0.4-1.5v-18.4h7.7v13.9h33v6.4H124.8
		z M137.7,139.3v-16.5h-13.6v16.5H137.7z M169.7,135.5H162v22h-7.5v-43.3h7.5v14.9h7.7V135.5z"/>
	<path class="st1" d="M223.9,138.5c0,7.9-1.5,13.6-4.4,17.3c-2.9,3.7-6.6,5.5-11.1,5.5s-8.2-1.8-11.1-5.5c-2.9-3.7-4.3-9.5-4.3-17.3
		c0-7.9,1.4-13.6,4.3-17.3c2.9-3.7,6.6-5.5,11.1-5.5s8.2,1.8,11.1,5.5C222.5,124.9,223.9,130.7,223.9,138.5z M200.5,138.5
		c0,2.3,0.2,4.5,0.5,6.4c0.3,2,0.8,3.7,1.5,5.2c0.6,1.4,1.4,2.5,2.4,3.4c1,0.8,2.2,1.2,3.6,1.2c1.3,0,2.5-0.4,3.5-1.2
		c1-0.8,1.8-1.9,2.4-3.4c0.7-1.5,1.2-3.2,1.5-5.2c0.3-2,0.5-4.1,0.5-6.4c0-2.3-0.2-4.4-0.5-6.4c-0.3-2-0.8-3.7-1.5-5.1
		c-0.6-1.4-1.4-2.5-2.4-3.4c-1-0.8-2.2-1.2-3.5-1.2c-1.4,0-2.6,0.4-3.6,1.2c-1,0.8-1.8,1.9-2.4,3.4c-0.7,1.4-1.2,3.1-1.5,5.1
		C200.7,134.1,200.5,136.2,200.5,138.5z M239.1,114.1v20.3h8.1v6.9h-8.1v32.5h-7.5v-59.7H239.1z"/>
	<path class="st1" d="M252.7,158v-21.1c0-0.7,0.1-1.1,0.4-1.4c0.3-0.3,0.8-0.4,1.5-0.4h17.5v-11.7h-19.4V117h25
		c0.7,0,1.1,0.1,1.4,0.4c0.3,0.3,0.4,0.8,0.4,1.4v20.7c0,0.7-0.1,1.2-0.4,1.5c-0.3,0.3-0.8,0.4-1.4,0.4h-17.5v12h7.7
		c1.2,0,2.7-0.1,4.5-0.2c1.8-0.1,3.6-0.3,5.5-0.5c1.8-0.2,3.6-0.4,5.3-0.6c1.7-0.2,3-0.4,4.1-0.7v6.4c-1,0.2-2.3,0.4-4,0.6
		c-1.6,0.2-3.4,0.4-5.3,0.6c-2,0.2-4,0.4-6,0.5c-2.1,0.1-4,0.2-5.9,0.2c-0.4,0-1.1,0-2,0c-0.9,0-2,0-3.1,0c-1.2,0-2.3,0-3.4,0
		c-1.1,0-2.1,0-2.9,0c-0.7,0-1.2-0.1-1.5-0.4S252.7,158.7,252.7,158z M289.5,173.7v-59.6h7.5v20.9h8.2v6.9H297v31.8H289.5z"/>
	<path class="st1" d="M319.9,169.5h-9v-8.5h9V169.5z M318.9,157.4H312l-1-42.5h8.8L318.9,157.4z"/>
</g>
</svg>
