<?xml version="1.0" encoding="utf-8"?>
<!-- Generator: Adobe Illustrator 25.2.0, SVG Export Plug-In . SVG Version: 6.00 Build 0)  -->
<svg version="1.1" id="레이어_1" xmlns="http://www.w3.org/2000/svg" xmlns:xlink="http://www.w3.org/1999/xlink" x="0px"
	 y="0px" viewBox="0 0 400 200" style="enable-background:new 0 0 400 200;" xml:space="preserve">
<style type="text/css">
	.st0{fill:#FFFFFF;stroke:#CD6D8D;stroke-width:3;stroke-miterlimit:10;}
	.st1{fill:#418FCD;}
</style>
<path class="st0" d="M371.7,198.2H28.6c-14.4,0-26.1-11.7-26.1-26.1V28.2c0-14.4,11.7-26.1,26.1-26.1h343.1
	c14.4,0,26.1,11.7,26.1,26.1v143.9C397.8,186.5,386.1,198.2,371.7,198.2z"/>
<g>
	<path class="st1" d="M45.2,48.6v-5.8h34.9v5.8H45.2z M62.6,70.5c-5,0-8.8-1-11.5-2.9c-2.7-1.9-4-4.2-4-6.9s1.3-4.9,4-6.8
		c2.7-1.9,6.5-2.8,11.5-2.8c5,0,8.8,0.9,11.5,2.8c2.7,1.9,4,4.2,4,6.8s-1.4,5-4.1,6.9C71.4,69.6,67.5,70.5,62.6,70.5z M90.4,74.9
		c0.7,0,1.1,0.1,1.4,0.4c0.3,0.3,0.4,0.8,0.4,1.4v17.3h-7.8V81.1H51.7v-6.2H90.4z M53.2,33.8h18.6v5.7H53.2V33.8z M62.6,56.3
		c-2.4,0-4.2,0.4-5.7,1.2c-1.4,0.8-2.1,1.9-2.1,3.2c0,1.5,0.7,2.6,2.1,3.3c1.4,0.7,3.3,1.1,5.7,1.1c2.3,0,4.2-0.4,5.6-1.1
		c1.4-0.7,2.2-1.8,2.2-3.3c0-1.4-0.7-2.5-2.2-3.2C66.8,56.7,64.9,56.3,62.6,56.3z M92.3,34.1v15.6h7.7v6.7h-7.7v16.1h-7.5V34.1H92.3
		z"/>
	<path class="st1" d="M132.7,81.4c-2.8-2-5.5-4.3-8-7.1c-2.5-2.8-4.4-5.6-5.7-8.5c-0.5,1.5-1.2,3-2.1,4.5c-0.9,1.5-2,3-3.3,4.5
		c-1.2,1.5-2.6,2.9-4,4.3c-1.4,1.4-2.9,2.6-4.4,3.7L99,77.8c5.5-3.4,9.5-7.6,12.1-12.5c2.6-4.9,3.9-10.3,3.9-16.2V36.3h7.9v13.2
		c0,5.9,1.3,11,3.8,15.4c2.5,4.4,6.4,8.2,11.6,11.4L132.7,81.4z M141.6,93.8V34.1h7.5v22.5h8.2v6.7h-8.2v30.5H141.6z"/>
	<path class="st1" d="M209,37.5c0.7,0,1.1,0.1,1.4,0.4c0.3,0.3,0.4,0.8,0.4,1.4c-0.5,9.4-2.9,17.7-7,24.9
		c-4.2,7.2-10.2,13.3-18.2,18.4l-6.3-5c7.2-4,12.8-8.8,16.7-14.4c3.9-5.6,6-12.1,6.4-19.3h-19.7v-6.4H209z M219.3,93.8V34h7.5v23.3
		h8.1V64h-8.1v29.7H219.3z"/>
	<path class="st1" d="M270.6,58.5c0,7.9-1.5,13.6-4.4,17.3c-2.9,3.7-6.6,5.5-11.1,5.5s-8.2-1.8-11.1-5.5c-2.9-3.7-4.3-9.5-4.3-17.3
		c0-7.9,1.4-13.6,4.3-17.3c2.9-3.7,6.6-5.5,11.1-5.5s8.2,1.8,11.1,5.5C269.2,44.9,270.6,50.6,270.6,58.5z M247.2,58.4
		c0,2.3,0.2,4.5,0.5,6.4c0.3,2,0.8,3.7,1.5,5.2c0.6,1.4,1.4,2.5,2.4,3.4c1,0.8,2.2,1.2,3.6,1.2c1.3,0,2.5-0.4,3.5-1.2
		c1-0.8,1.8-1.9,2.4-3.4c0.7-1.5,1.2-3.2,1.5-5.2c0.3-2,0.5-4.1,0.5-6.4c0-2.3-0.2-4.4-0.5-6.4c-0.3-2-0.8-3.7-1.5-5.1
		c-0.6-1.4-1.4-2.5-2.4-3.4c-1-0.8-2.2-1.2-3.5-1.2c-1.4,0-2.6,0.4-3.6,1.2c-1,0.8-1.8,1.9-2.4,3.4c-0.7,1.4-1.2,3.1-1.5,5.1
		C247.4,54.1,247.2,56.2,247.2,58.4z M279.8,93.8V34.1h7.5v59.7H279.8z"/>
	<path class="st1" d="M350.1,86.5H295V80h55.1V86.5z M303.8,36.8h39.9v6.4h-34.1v17.5h34.5v6.3h-40.4c-0.7,0-1.2-0.1-1.4-0.4
		c-0.2-0.3-0.4-0.8-0.4-1.5V38.7c0-0.7,0.1-1.1,0.4-1.4C302.6,37,303.1,36.8,303.8,36.8z"/>
	<path class="st1" d="M58.8,159.3c-0.7,0-1.2-0.1-1.4-0.4s-0.4-0.8-0.4-1.5v-37.9c0-0.7,0.1-1.1,0.4-1.4c0.3-0.3,0.8-0.4,1.5-0.4
		h25.5v6.3H64.5v28.9h7.4c1.6,0,3.4-0.1,5.5-0.3c2.1-0.2,4-0.4,5.9-0.6c1.9-0.2,3.5-0.5,4.9-0.7c1.4-0.2,2.3-0.4,2.7-0.5v6.4
		c-0.5,0.1-1.5,0.2-2.9,0.5c-1.4,0.2-3.2,0.5-5.2,0.7c-2,0.3-4.3,0.5-6.7,0.7c-2.4,0.2-4.8,0.3-7.2,0.3H58.8z M93.4,173.7v-59.6h7.5
		v20.4h8.1v6.7h-8.1v32.5H93.4z"/>
	<path class="st1" d="M185.4,150h-22.7v12.1H155V150h-24.6v-6.3h55V150z M157.8,139c-6.8,0-12.2-1.2-16.1-3.5
		c-3.9-2.3-5.8-5.4-5.8-9.2c0-3.7,1.9-6.7,5.8-9.1c3.9-2.4,9.2-3.5,16-3.5s12.1,1.2,16,3.5c3.9,2.4,5.8,5.4,5.8,9.1
		c0,3.8-1.9,6.9-5.8,9.2C170,137.8,164.6,139,157.8,139z M139,172.7c-0.7,0-1.2-0.1-1.4-0.4c-0.2-0.3-0.4-0.8-0.4-1.5v-16.1h7.6
		v11.6h35.7v6.4H139z M157.8,119.6c-4.1,0-7.4,0.6-9.9,1.8c-2.5,1.2-3.8,2.9-3.8,5c0,2.1,1.3,3.7,3.8,4.9c2.5,1.2,5.8,1.8,9.9,1.8
		c4,0,7.3-0.6,9.8-1.8c2.6-1.2,3.8-2.8,3.8-4.9c0-2.1-1.3-3.8-3.8-5C165.2,120.2,161.9,119.6,157.8,119.6z"/>
	<path class="st1" d="M253.6,137.3h-31.2v8.1h34.5v6.3h-17.8v9.2h23.8v6.3h-55.1v-6.3h23.4v-9.2h-14.4c-0.7,0-1.2-0.1-1.5-0.4
		s-0.4-0.8-0.4-1.5v-16.9c0-0.7,0.1-1.1,0.4-1.4s0.8-0.4,1.5-0.4h31.3v-8.1h-33.2v-6.3h38.7c0.7,0,1.1,0.1,1.4,0.4
		c0.3,0.3,0.4,0.8,0.4,1.4v17c0,0.7-0.1,1.2-0.4,1.5S254.2,137.3,253.6,137.3z"/>
	<path class="st1" d="M340.4,166.5h-55.1v-6.4h55.1V166.5z M294,116.9h39.9v6.4h-34.1v17.5h34.5v6.3H294c-0.7,0-1.2-0.1-1.4-0.4
		c-0.2-0.3-0.4-0.8-0.4-1.5v-26.5c0-0.7,0.1-1.1,0.4-1.4C292.8,117,293.3,116.9,294,116.9z"/>
</g>
</svg>
