<?xml version="1.0" encoding="utf-8"?>
<!-- Generator: Adobe Illustrator 25.2.0, SVG Export Plug-In . SVG Version: 6.00 Build 0)  -->
<svg version="1.1" id="레이어_1" xmlns="http://www.w3.org/2000/svg" xmlns:xlink="http://www.w3.org/1999/xlink" x="0px"
	 y="0px" viewBox="0 0 500 500" style="enable-background:new 0 0 500 500;" xml:space="preserve">
<style type="text/css">
	.st0{fill:#EFEA3A;}
	.st1{opacity:0.8;}
	.st2{clip-path:url(#SVGID_2_);fill:#040000;}
	.st3{fill:#636463;}
	.st4{fill:#5B3921;}
	.st5{opacity:0.3;fill:#878788;}
</style>
<rect class="st0" width="500" height="500"/>
<g>
	<path d="M72.9,261.6c-2.1-1.4-4-3.1-5.9-5.1c-1.9-2-3.3-4.2-4.4-6.5c-0.3,0.9-0.7,1.9-1.4,3c-0.7,1.1-1.5,2.2-2.4,3.4
		c-0.9,1.2-2,2.3-3.1,3.4c-1.2,1.1-2.3,2-3.4,2.9l-4.7-3.7c4.2-2.6,7.3-5.7,9.2-9.4c1.9-3.7,2.9-7.7,2.9-12.1v-9.6h6v9.9
		c0,4.1,0.9,7.9,2.8,11.4c1.9,3.5,4.8,6.4,8.7,8.7L72.9,261.6z M86.7,226.2v44.7H81v-26.5h-9v-5.1h9v-13.1H86.7z"/>
	<path d="M95.8,258.8v-30.5h5.6v10.8h9.9v-10.8h5.6V241h7.5v-14.8h5.7v44.7h-5.7V246h-7.5v12.8c0,0.5-0.1,0.9-0.3,1.1
		c-0.2,0.2-0.6,0.3-1.1,0.3H97.1c-0.5,0-0.9-0.1-1.1-0.3C95.9,259.7,95.8,259.4,95.8,258.8z M111.2,255.5v-11.6h-9.9v11.6H111.2z"/>
	<path d="M174.7,250.9c-2.1-1-4-2.2-5.9-3.6c-1.9-1.4-3.3-2.9-4.2-4.5c-0.4,0.9-0.9,1.7-1.6,2.5c-0.7,0.8-1.5,1.6-2.5,2.5
		c-0.9,0.8-1.9,1.6-3,2.3c-1.1,0.7-2.2,1.4-3.3,1.9l-4.1-3.8c3.7-1.5,6.5-3.4,8.5-5.9c2-2.5,3-5.2,3-8.1v-1.4h-8v-4.8h22.2v4.8h-8.1
		v1.5c0,2.5,0.9,4.9,2.6,7.2c1.7,2.3,4.4,4.1,8,5.2L174.7,250.9z M186.1,255c0.5,0,0.9,0.1,1.1,0.3s0.3,0.6,0.3,1.1v14.8h-5.8v-11.4
		h-24.5V255H186.1z M193.3,241.1h-5.8v12h-5.7v-27h5.7v10h5.8V241.1z"/>
	<path d="M195.4,237.7c0-1.5,0.3-3,0.8-4.3c0.6-1.4,1.3-2.5,2.4-3.5c1-1,2.2-1.8,3.7-2.4c1.4-0.6,3-0.9,4.8-0.9
		c3.1,0,5.7,0.9,7.7,2.6c2,1.7,3.3,3.8,3.8,6.4h7.6v-9.3h5.6V250H226v-9.8h-7.7c-0.5,2.5-1.8,4.6-3.8,6.2c-2,1.6-4.5,2.4-7.5,2.4
		c-1.7,0-3.3-0.3-4.8-0.9c-1.4-0.6-2.7-1.4-3.7-2.4c-1-1-1.8-2.2-2.4-3.5C195.7,240.7,195.4,239.3,195.4,237.7z M207,244.1
		c1.9,0,3.4-0.6,4.4-1.9c1-1.3,1.5-2.8,1.5-4.5c0-1.8-0.5-3.3-1.5-4.5c-1-1.2-2.5-1.9-4.4-1.9c-1.9,0-3.4,0.6-4.4,1.9
		c-1,1.2-1.5,2.8-1.5,4.6c0,1.7,0.5,3.2,1.5,4.5C203.6,243.5,205.1,244.1,207,244.1z M201.6,269.1v-17.3h5.6v4.8H226v-4.8h5.5v17.3
		c0,0.5-0.1,0.9-0.3,1.1c-0.2,0.2-0.6,0.3-1.1,0.3H203c-0.5,0-0.9-0.1-1.1-0.3C201.7,270,201.6,269.6,201.6,269.1z M226,265.9V261
		h-18.9v4.9H226z"/>
	<path d="M275.5,254.6c4.5,0.3,7.9,1.2,10.2,2.7c2.4,1.5,3.5,3.5,3.5,5.8c0,2.6-1.4,4.7-4.2,6.3c-2.8,1.6-6.9,2.3-12.3,2.3
		c-5.4,0-9.6-0.8-12.4-2.3s-4.2-3.7-4.2-6.3c0-2.4,1.2-4.3,3.5-5.8c2.3-1.5,5.7-2.4,10.1-2.7v-4.4H252v-4.7h41.2v4.7h-17.8V254.6z
		 M256.8,227.3h31.7v4.8h-12.5c0.3,1.2,1,2.1,2,2.9c1,0.8,2.2,1.5,3.6,2c1.4,0.6,2.9,1,4.6,1.4c1.7,0.3,3.4,0.6,5.1,0.8l-3.4,4.1
		c-1.5-0.2-3-0.5-4.5-0.8c-1.5-0.3-3-0.8-4.3-1.3c-1.4-0.5-2.7-1.1-3.8-1.8c-1.1-0.7-2.1-1.6-2.8-2.5c-0.8,1-1.8,1.8-2.9,2.5
		c-1.1,0.7-2.4,1.3-3.7,1.9c-1.3,0.5-2.7,1-4.2,1.3s-3,0.6-4.4,0.8l-3.5-4c2-0.3,3.9-0.7,5.6-1.1s3.3-0.9,4.7-1.4
		c1.3-0.6,2.5-1.2,3.3-2c0.9-0.8,1.5-1.6,1.8-2.7h-12.5V227.3z M272.6,258.8c-3.2,0-5.7,0.4-7.5,1.1c-1.8,0.7-2.8,1.8-2.8,3.2
		c0,1.5,0.9,2.6,2.8,3.3c1.8,0.7,4.3,1,7.5,1c3.1,0,5.6-0.3,7.5-1c1.9-0.7,2.8-1.8,2.8-3.3c0-1.4-0.9-2.5-2.8-3.2
		C278.2,259.1,275.8,258.8,272.6,258.8z"/>
	<path d="M297.4,237.5c0-1.5,0.3-2.9,0.9-4.2c0.6-1.3,1.4-2.5,2.4-3.5c1-1,2.3-1.7,3.7-2.3c1.5-0.6,3-0.9,4.7-0.9
		c1.7,0,3.3,0.3,4.8,0.9c1.5,0.6,2.7,1.4,3.7,2.3c1,1,1.8,2.2,2.4,3.5c0.6,1.3,0.9,2.8,0.9,4.2c0,1.6-0.3,3.1-0.9,4.4
		s-1.4,2.5-2.4,3.5c-1,1-2.3,1.8-3.7,2.3c-1.5,0.6-3,0.8-4.8,0.8c-1.7,0-3.3-0.3-4.7-0.8c-1.5-0.5-2.7-1.3-3.7-2.3
		c-1-1-1.8-2.1-2.4-3.5S297.4,239.1,297.4,237.5z M309.1,243.8c1.8,0,3.3-0.6,4.4-1.8c1.1-1.2,1.7-2.7,1.7-4.4
		c0-1.8-0.6-3.2-1.7-4.4c-1.1-1.2-2.6-1.8-4.4-1.8c-1.9,0-3.3,0.6-4.4,1.8c-1.1,1.2-1.6,2.7-1.6,4.4c0,1.7,0.5,3.2,1.6,4.4
		C305.8,243.2,307.3,243.8,309.1,243.8z M303.4,269.1v-17.3h5.5v4.8h19v-4.8h5.5v17.3c0,0.5-0.1,0.9-0.3,1.1
		c-0.2,0.2-0.6,0.3-1.1,0.3h-27.2c-0.5,0-0.9-0.1-1.1-0.3C303.5,270,303.4,269.6,303.4,269.1z M327.9,265.9V261h-19v4.9H327.9z
		 M333.5,226.1V250h-5.7v-23.9H333.5z"/>
	<path d="M344.2,260c-0.5,0-0.9-0.1-1.1-0.3c-0.2-0.2-0.3-0.6-0.3-1.1V228h5.6v27.1l6.5,0c1,0,2.2-0.1,3.5-0.2s2.5-0.2,3.8-0.4
		c1.3-0.1,2.5-0.3,3.7-0.5c1.2-0.2,2.3-0.4,3.2-0.6v4.8c-0.7,0.2-1.6,0.3-2.6,0.5c-1.1,0.2-2.2,0.4-3.5,0.6c-1.3,0.2-2.6,0.3-4,0.4
		c-1.4,0.1-2.8,0.2-4.2,0.2L344.2,260z M371,270.9v-44.7h5.6v44.7H371z"/>
	<path d="M387.3,260.1c-0.5,0-0.9-0.1-1.1-0.3c-0.2-0.2-0.3-0.6-0.3-1.1v-28.4c0-0.5,0.1-0.9,0.3-1.1c0.2-0.2,0.6-0.3,1.1-0.3h19.2
		v4.8h-15v21.7h5.5c1.2,0,2.6-0.1,4.1-0.2c1.6-0.1,3-0.3,4.4-0.4c1.4-0.2,2.6-0.3,3.7-0.5c1.1-0.2,1.8-0.3,2.1-0.4v4.8
		c-0.4,0.1-1.1,0.2-2.2,0.3c-1.1,0.2-2.4,0.3-3.9,0.5s-3.2,0.4-5,0.5c-1.8,0.1-3.6,0.2-5.4,0.2H387.3z M413.2,270.9v-44.7h5.6v15.3
		h6v5h-6v24.4H413.2z"/>
	<path d="M435.7,267.5H429v-6.3h6.8V267.5z"/>
	<path d="M152.5,384.5v-3.2c1.2-1.1,2.8-2.7,4.7-4.7c2-2,3.9-4,5.7-6.2c1.9-2.2,3.5-4.4,4.9-6.5c1.4-2.1,2-3.9,2-5.4
		c0-2-0.5-3.4-1.5-4.3c-1-0.9-2.4-1.4-4.1-1.4c-1.7,0-3.1,0.6-4.1,1.8c-1,1.2-1.5,3-1.5,5.2h-5.8c0-1.8,0.3-3.4,0.9-4.9
		c0.6-1.5,1.4-2.7,2.4-3.7c1-1,2.2-1.8,3.6-2.4c1.4-0.5,2.9-0.8,4.5-0.8c1.6,0,3.1,0.2,4.5,0.7c1.4,0.5,2.6,1.1,3.6,2
		c1,0.9,1.9,1.9,2.5,3.2c0.6,1.2,0.9,2.7,0.9,4.3c0,2.2-0.6,4.4-1.9,6.7s-2.8,4.5-4.6,6.5c-1.7,2.1-3.5,4-5.3,5.7
		c-1.8,1.7-3.2,3.1-4.2,4.1h16.8v4.8h-22.6c-0.5,0-0.9-0.1-1.1-0.3C152.6,385.4,152.5,385,152.5,384.5z"/>
	<path d="M181.4,361.8h13.1c0.8,0,2,0,3.4,0c1.4,0,3-0.1,4.7-0.2c1.6-0.1,3.3-0.2,4.9-0.3c1.6-0.1,3-0.3,4.2-0.5v4
		c-2.1,0.3-4.4,0.5-7,0.7c-2.6,0.2-5.3,0.3-8.2,0.3v6.1h-5.7v-6h-9.4V361.8z M196,360.2c-3.5,0-6.2-0.7-8.2-2c-2-1.3-2.9-3-2.9-5.2
		c0-2,1-3.7,2.9-5.1c1.9-1.4,4.7-2.1,8.2-2.1c3.4,0,6.1,0.7,8.1,2.1c2,1.4,2.9,3.1,2.9,5.1c0,2.1-1,3.8-2.9,5.2
		C202.1,359.6,199.4,360.2,196,360.2z M189.8,380.1h22.9v-2.6h-24.3v-4h28.8c0.5,0,0.9,0.1,1.1,0.3c0.2,0.2,0.3,0.6,0.3,1.1v7.5
		c0,0.5-0.1,0.9-0.3,1.1c-0.2,0.2-0.6,0.3-1.1,0.3h-22.9v2.8h25.2v4.1h-29.8c-0.5,0-0.9-0.1-1.1-0.3c-0.2-0.2-0.3-0.6-0.3-1.1v-7.7
		c0-0.5,0.1-0.9,0.3-1.1C188.9,380.2,189.3,380.1,189.8,380.1z M196,349.9c-1.9,0-3.3,0.3-4.1,1s-1.3,1.4-1.3,2.2
		c0,0.8,0.4,1.5,1.3,2.1c0.9,0.6,2.2,1,4.1,1s3.3-0.3,4.1-1c0.8-0.6,1.2-1.3,1.2-2.1c0-0.8-0.4-1.6-1.2-2.2
		C199.3,350.2,197.9,349.9,196,349.9z M218.7,346.2V372H213v-1.6h-9.7v-3.5h9.7v-20.7H218.7z"/>
	<path d="M238.8,384.5v-3.2c1.2-1.1,2.8-2.7,4.7-4.7c2-2,3.9-4,5.7-6.2c1.9-2.2,3.5-4.4,4.9-6.5c1.4-2.1,2-3.9,2-5.4
		c0-2-0.5-3.4-1.5-4.3c-1-0.9-2.4-1.4-4.1-1.4c-1.7,0-3.1,0.6-4.1,1.8c-1,1.2-1.5,3-1.5,5.2h-5.8c0-1.8,0.3-3.4,0.9-4.9
		c0.6-1.5,1.4-2.7,2.4-3.7c1-1,2.2-1.8,3.6-2.4c1.4-0.5,2.9-0.8,4.5-0.8c1.6,0,3.1,0.2,4.5,0.7c1.4,0.5,2.6,1.1,3.6,2
		c1,0.9,1.9,1.9,2.5,3.2s0.9,2.7,0.9,4.3c0,2.2-0.6,4.4-1.9,6.7s-2.8,4.5-4.6,6.5c-1.7,2.1-3.5,4-5.3,5.7c-1.8,1.7-3.2,3.1-4.2,4.1
		h16.8v4.8h-22.6c-0.5,0-0.9-0.1-1.1-0.3C238.9,385.4,238.8,385,238.8,384.5z"/>
	<path d="M287.3,349.7v23.6h5.4v4.8h-5.4v7.8h-5.6V378h-14.8c-0.5,0-0.9-0.1-1.1-0.3c-0.2-0.2-0.3-0.5-0.3-1.1v-2.4
		c0-0.3,0.1-0.5,0.2-0.8s0.2-0.6,0.4-0.8l14.2-23.3c0.1-0.2,0.4-0.5,0.7-0.7c0.3-0.2,0.6-0.4,0.8-0.4h4.1c0.5,0,0.8,0.1,1,0.3
		C287.2,348.8,287.3,349.2,287.3,349.7z M281.8,357.9l0-1.4l-10.2,16.8h10.2V357.9z"/>
	<path d="M296.2,357.4c0-1.5,0.3-2.9,0.9-4.2c0.6-1.3,1.4-2.5,2.4-3.5s2.3-1.7,3.7-2.3c1.5-0.6,3-0.9,4.7-0.9c1.7,0,3.3,0.3,4.8,0.9
		c1.5,0.6,2.7,1.3,3.7,2.3c1,1,1.8,2.1,2.4,3.5c0.6,1.3,0.9,2.8,0.9,4.2c0,1.6-0.3,3.1-0.9,4.4c-0.6,1.3-1.4,2.5-2.4,3.5
		c-1,1-2.3,1.7-3.7,2.3s-3,0.8-4.8,0.8c-1.7,0-3.3-0.3-4.7-0.8s-2.7-1.3-3.7-2.3c-1-1-1.8-2.1-2.4-3.5
		C296.5,360.5,296.2,359,296.2,357.4z M308,363.6c1.8,0,3.3-0.6,4.4-1.8c1.1-1.2,1.6-2.6,1.6-4.4c0-1.8-0.5-3.2-1.6-4.4
		s-2.6-1.7-4.4-1.7c-1.9,0-3.3,0.6-4.4,1.7c-1.1,1.2-1.6,2.6-1.6,4.4c0,1.7,0.5,3.2,1.6,4.4C304.7,363,306.1,363.6,308,363.6z
		 M303.6,390.6c-0.5,0-0.9-0.1-1.1-0.3c-0.2-0.2-0.3-0.6-0.3-1.1v-9c0-0.5,0.1-0.9,0.3-1.1c0.2-0.2,0.6-0.3,1.1-0.3h22.8v-3.4h-24.2
		v-4.4h28.7c0.5,0,0.9,0.1,1.1,0.3c0.2,0.2,0.3,0.6,0.3,1.1v8.9c0,0.5-0.1,0.9-0.3,1.1s-0.6,0.3-1.1,0.3h-22.6v3.4h25v4.4H303.6z
		 M332.4,346.1v23.1h-5.6v-23.1H332.4z"/>
	<path d="M95.9,409.5c0.3,0,0.6,0.1,0.7,0.2c0.1,0.2,0.2,0.4,0.2,0.7c-0.2,6.4-1.6,12.1-4.2,17.2c-2.6,5.1-6.5,9.4-11.7,13l-3-1.9
		c5.1-3.3,8.9-7.2,11.5-11.6c2.6-4.4,4-9.5,4.2-15H80.9v-2.7H95.9z M103.7,407.2h3.1v41.5h-3.1v-22.9h-7.5v-2.9h7.5V407.2z
		 M112.1,406.4h3.2v44.5h-3.2V406.4z"/>
	<path d="M133.9,408.3h3.2v8.1c0,5,1.1,9.2,3.4,12.8c2.3,3.5,5.5,6.5,9.6,8.9l-2.6,2.4c-2.6-1.8-5-3.9-7.1-6.4
		c-2.1-2.4-3.8-5.3-4.9-8.7c-0.4,1.4-0.9,2.9-1.7,4.4s-1.6,3-2.7,4.4c-1,1.4-2.2,2.8-3.4,4.1c-1.3,1.3-2.6,2.4-4,3.4l-3-2.2
		c1.9-1.2,3.7-2.6,5.3-4.2c1.6-1.6,3-3.4,4.2-5.3c1.2-2,2.1-4.2,2.8-6.6c0.7-2.4,1-5.1,1-7.9V408.3z M155.2,406.4h3.2v44.4h-3.2
		V406.4z"/>
	<path d="M190.6,407.8c2,0,3.7,0.7,5.2,2.2c1.5,1.4,2.6,3.6,3.4,6.5h6.8v-9.3h3.1v41.5h-3.1V432h-6.6c-0.7,3.1-1.8,5.4-3.4,6.9
		c-1.5,1.5-3.3,2.3-5.3,2.3c-2.8,0-5-1.4-6.8-4.1s-2.6-6.9-2.6-12.6c0-5.6,0.9-9.8,2.6-12.5S187.8,407.8,190.6,407.8z M190.5,410.5
		c-1.8,0-3.3,1.3-4.5,3.8c-1.2,2.5-1.8,5.9-1.8,10.2c0,4.3,0.6,7.7,1.8,10.2c1.2,2.5,2.7,3.8,4.5,3.8c1.8,0,3.4-1.2,4.5-3.8
		c1.2-2.5,1.8-5.9,1.8-10.2c0-4.3-0.6-7.7-1.8-10.2C193.9,411.8,192.4,410.5,190.5,410.5z M199.7,419.4c0.1,0.8,0.2,1.6,0.2,2.5
		s0.1,1.7,0.1,2.6c0,0.8,0,1.6-0.1,2.4s-0.1,1.5-0.2,2.2h6.1v-9.7H199.7z M214,406.4h3.2v44.4H214V406.4z"/>
	<path d="M226.6,408.6h21.9v2.7h-9.2v2c0,3.7,1.1,6.8,3.4,9.2c2.3,2.5,5.3,4.3,8.9,5.6l-2.3,2.3c-3-1.3-5.4-2.8-7.3-4.5
		c-1.9-1.7-3.3-3.6-4.3-5.7c-0.9,2.5-2.3,4.7-4.1,6.6c-1.8,1.9-4.3,3.6-7.3,5l-2.9-2c3.9-1.6,7-3.7,9.3-6.4
		c2.3-2.7,3.4-6.1,3.4-10.2v-1.8h-9.4V408.6z M246.5,433.9c4.8,0,8.5,0.8,11.1,2.5c2.6,1.7,3.9,3.8,3.9,6.3c0,2.5-1.3,4.6-3.9,6.3
		c-2.6,1.7-6.3,2.5-11.1,2.5c-4.7,0-8.4-0.8-11-2.5c-2.6-1.7-4-3.8-4-6.3c0-2.5,1.3-4.6,4-6.3C238.1,434.8,241.8,433.9,246.5,433.9z
		 M246.5,436.5c-1.6,0-3.2,0.1-4.6,0.4c-1.4,0.3-2.6,0.7-3.7,1.2c-1.1,0.5-1.9,1.1-2.5,1.9c-0.6,0.8-0.9,1.7-0.9,2.7
		s0.3,1.9,0.9,2.7c0.6,0.8,1.4,1.4,2.5,2c1.1,0.5,2.3,0.9,3.7,1.2c1.4,0.3,2.9,0.4,4.6,0.4c1.6,0,3.2-0.1,4.6-0.4
		c1.4-0.3,2.6-0.7,3.7-1.2c1-0.5,1.9-1.2,2.5-2c0.6-0.8,0.9-1.7,0.9-2.7c0-2-1.1-3.5-3.3-4.6C252.6,437.1,249.8,436.5,246.5,436.5z
		 M257.5,406.4h3.2v27.1h-3.2v-14.1h-10v-2.7h10V406.4z"/>
	<path d="M280.1,406.9c1.6,0,3.1,0.3,4.5,0.8c1.4,0.5,2.6,1.3,3.5,2.3c1,1,1.7,2.1,2.3,3.4c0.5,1.3,0.8,2.7,0.8,4.3
		c0,1.6-0.3,3-0.8,4.3c-0.6,1.3-1.3,2.4-2.3,3.4c-1,0.9-2.1,1.7-3.5,2.2c-1.4,0.5-2.9,0.8-4.5,0.8c-1.7,0-3.2-0.3-4.6-0.8
		c-1.4-0.5-2.6-1.3-3.6-2.3c-1-1-1.7-2.1-2.2-3.4c-0.5-1.3-0.8-2.7-0.8-4.2c0-1.5,0.3-2.9,0.8-4.2c0.5-1.3,1.3-2.5,2.2-3.4
		c1-1,2.1-1.7,3.5-2.3C276.8,407.2,278.4,406.9,280.1,406.9z M280,409.6c-2.6,0-4.6,0.8-5.9,2.4c-1.3,1.6-2,3.5-2,5.7s0.7,4.1,2,5.7
		c1.4,1.6,3.3,2.4,5.9,2.4c2.5,0,4.5-0.8,5.9-2.4c1.4-1.6,2.1-3.5,2.1-5.7s-0.7-4.1-2.1-5.7C284.5,410.4,282.6,409.6,280,409.6z
		 M275.4,449.4v-17.2h3.2v5.9h22v-5.9h3.1v17.2c0,0.4-0.1,0.6-0.2,0.8c-0.2,0.1-0.4,0.2-0.7,0.2h-26.5c-0.4,0-0.6-0.1-0.8-0.2
		C275.4,450,275.4,449.7,275.4,449.4z M278.6,440.7v7h22v-7H278.6z M300.6,406.4h3.1v23.4h-3.1V406.4z"/>
	<path d="M315.5,439.1c-0.4,0-0.6-0.1-0.8-0.2c-0.1-0.2-0.2-0.4-0.2-0.7v-29.7h3.2v27.7l9.9-0.1c1.1,0,2.2-0.1,3.5-0.2
		c1.3-0.1,2.6-0.3,3.8-0.5c1.3-0.2,2.5-0.3,3.7-0.5s2.1-0.4,2.9-0.5v3c-0.7,0.2-1.7,0.3-2.8,0.5c-1.1,0.2-2.3,0.4-3.6,0.5
		c-1.3,0.2-2.6,0.3-4,0.5c-1.3,0.2-2.6,0.2-3.8,0.3c-1.5,0.1-3,0.1-4.4,0.1c-1.4,0-2.7,0-3.8,0c-1.1,0-2.1,0-2.8,0
		C315.9,439.1,315.6,439.1,315.5,439.1z M343.7,406.4h3.2v44.4h-3.2V406.4z"/>
	<path d="M358.2,439.1c-0.4,0-0.6-0.1-0.8-0.2c-0.1-0.2-0.2-0.4-0.2-0.7v-28.1c0-0.3,0.1-0.5,0.2-0.7c0.1-0.2,0.4-0.2,0.8-0.2h19.2
		v2.7h-17v24.4l5.7,0c1.8,0,3.6-0.1,5.4-0.2c1.8-0.1,3.5-0.3,5.1-0.5c1.6-0.2,3-0.4,4.2-0.6c1.2-0.2,2.2-0.4,2.8-0.5v2.9
		c-1.1,0.2-2.3,0.4-3.7,0.6c-1.4,0.2-2.9,0.5-4.4,0.7c-1.6,0.2-3.1,0.4-4.6,0.5c-1.5,0.1-2.9,0.2-4.1,0.2H358.2z M385.4,406.4h3.3
		V422h6.8v2.8h-6.8v26.1h-3.3V406.4z"/>
	<path d="M405.4,446.5h-4.3V442h4.3V446.5z"/>
</g>
<g class="st1">
	<defs>
		<rect id="SVGID_1_" class="st1" width="500" height="187"/>
	</defs>
	<clipPath id="SVGID_2_">
		<use xlink:href="#SVGID_1_"  style="overflow:visible;"/>
	</clipPath>
	<polygon class="st2" points="-16.7,208.4 -34.1,189.7 106.7,-33.7 124.1,-15 	"/>
	<polygon class="st2" points="52,220.2 34.6,201.5 175.4,-21.9 192.8,-3.3 	"/>
	<polygon class="st2" points="120.7,227.5 103.3,208.8 244.1,-14.6 261.5,4.1 	"/>
	<polygon class="st2" points="189.4,227.5 172,208.8 312.8,-14.6 330.2,4.1 	"/>
	<polygon class="st2" points="258.1,220.2 240.7,201.5 381.5,-21.9 398.9,-3.3 	"/>
	<polygon class="st2" points="326.8,227.5 309.4,208.8 450.2,-14.6 467.6,4.1 	"/>
	<polygon class="st2" points="395.5,227.5 378.1,208.8 518.9,-14.6 536.3,4.1 	"/>
</g>
<g>
	<g>
		<polygon class="st3" points="243.5,85.2 431,31.7 429,24.8 241.5,78.3 		"/>
	</g>
	<path class="st3" d="M219,87.4c-0.1,0.3,0,0.4,0,0.6c1,3.5,26.6,12.9,26.6,12.9l38.3-10l-5-18h0l-1.5-5.4l-3.9-13.9l-36.1,12.2
		c0,0-13.1,12.7-17.2,19.1C219.5,85.9,219.1,86.8,219,87.4z"/>
	<polygon class="st4" points="251.5,91.8 248.3,86.9 234,86.9 227.6,93.4 234,101.7 232.2,111.6 239.5,118 241.5,109.4 255.9,105.8 
		260.3,97.1 	"/>
	<path class="st5" d="M220.2,84.8c18.5-11.5,48.5-16.2,57.2-17.4l-3.9-13.9l-36.1,12.2C237.4,65.7,224.3,78.4,220.2,84.8z"/>
	<path class="st4" d="M307.5,187H139.4l16.2-33.6c0,0,15-25.8,15.5-25.8c0.1,0,1.7-0.6,3.8-1.5c6.2-2.5,17.7-7.4,17.7-7.4l16.2,20.9
		l10.2-12.8c0,0,8.4,2,8.6,0.2c0.2-1.8,5.2,10.1,5.2,10.1l16,6.7l2.7,14l22.6,0.3l16.2,23.2l11.4-5.6L307.5,187z"/>
	<path class="st5" d="M260.1,187H139.4l16.2-33.6c0,0,15-25.8,15.5-25.8c0.1,0,1.7-0.6,3.8-1.5l14.7,26.7h30.5l7.4,11.7l16.4,8.5
		L260.1,187z"/>
	<polygon class="st4" points="248.8,127.1 260.3,120.3 264.5,132.6 256.6,140.1 	"/>
</g>
</svg>
